<mxfile host="app.diagrams.net" modified="2020-11-23T19:54:24.189Z" agent="5.0 (Windows NT 10.0; WOW64) AppleWebKit/537.36 (KHTML, like Gecko) Chrome/86.0.4240.198 Safari/537.36" etag="hfB7To7Zzzffy5Dj8XIg" version="13.10.1" type="github">
  <diagram name="Copy of Page-1" id="ULDWKFnNrxvTlCQ7KQr8">
    <mxGraphModel dx="1102" dy="516" grid="1" gridSize="10" guides="1" tooltips="1" connect="1" arrows="1" fold="1" page="1" pageScale="1" pageWidth="1100" pageHeight="850" background="#ffffff" math="0" shadow="0">
      <root>
        <mxCell id="8le9z9f76cK8EGYcwLgO-0" />
        <mxCell id="8le9z9f76cK8EGYcwLgO-1" parent="8le9z9f76cK8EGYcwLgO-0" />
        <mxCell id="U9nG9JyEE-MKVYN0Ibzq-1" value="" style="shape=image;verticalLabelPosition=bottom;verticalAlign=top;imageAspect=0;image=data:image/png,iVBORw0KGgoAAAANSUhEUgAAAOkAAACgCAYAAADpYEtHAAAAAXNSR0IArs4c6QAAAARnQU1BAACxjwv8YQUAAAAJcEhZcwAAFxEAABcRAcom8z8AAEATSURBVHhe7Z0HYFXV/fjPuvdlALLFvfeu1jraqr9aq6goZIGMDCAJULTW2v5q/4q0dmmttVggARLC0pCAe7S1VWtbW2vtz4WzggsVEBRI8t69Z/y/3/vuC/e95GWRhBDuRy9599x17jnnO868JCQkJCQkJCQkJCQkJCRkD0H9vyF7Djpz9cxshzuDiSQWJXKARQ3XUlNmUafJ4U22UDE3IrYvuWrJTkqp8a8L2UcIhbQXmbRsUnZWFv8mI+ZkTXkWJL6A4JGM0FHamINgPxP2RxBjbC9nDGk0hH1OKdlBjN5MKPvAGLOFUO1CWFQa/byto3+bn1+3E+8f0j8JhbSHKKudcpBkZBij9BhCWCk35nBCaQYk+f7C4hHK4BejII8gi9rAX/wR/90M5A5Yzua/eD7u4rkazlOOaoRjm2E/Bsffgd8LYoZ8wGLskyXXLPnUv0vIXk4opN0IWsqMAfQa21hHK6OvtmxxLDEgiCh9CAohCFiSIO4GcaH1hdgLiG8gvM/Dc39PGH1l5JB37p970TMSD4fsnXh5G9J1ZqycMUTaTScwTmdTTb7CLXYwt4QFgkK00v5ZvQsTjAhbELfJjWqtP4Sgp1yj7hlqfb7+jqsf2hE/K2RvIRTSLlL60ORDqWLjmWb53BZnEt86KhTMjhpKSH2whc25gEaxZZagK9z8E/c6fH/P0sKWQLnyGbCutTF3R311Qf1mPzikj5NaIkLaIG91Ht9PZBwllJgJhX2cZfODoW5IteyYxUSBYZwRxhgInvYEGq7Fi5tAnKKEGgny50CmeGII/8BPasFPixqSAXsZcD2nHEUb3GhQDGitvfpsB+AWxz/SdeQGuHglE3TJgrFLP/AOhvRZQiHtIOW1E48z3JoNAjaZCz7Ia7xpSzhRvLCxx2/w0UqBXOptUFd8Ey59E0TwI8LNF0TRz4ww74qo3ujYGTsOHHrg5rkXzfXqkKgUBpgBQylxhgoWOZgzcygI5khFyGC45cHwiFPhtCPAvR6Iz0Gh9bZ2rC26w3i+dNVmbfTvaCSyuOLKio/8wyF9jFBI22Fq7dShllDXMcqKwa09BOuabVkuFAC0lm7MhfJvtkECvwbJ/CSI9LNC089caX9ccU3FZyAkHTN/aUABzjSZozKFHk5cehAR4lIQzq+DSjiKc5YNVpMqF+LaRiMVQ1eYgfmWej1E51dNX+jqmuKaqH84pI8QCmkaSitKLTbYydOc3GLb1nFY2NM1BHnWEl1QKOkSXUlCnwU3+GlB9OPz82s+8U/rFUrrC4+nmo0hzFxIKTvbiohh2o27xOmUCyoWLAnSlf+E3Zsrcpb+MX4kpC8QCmkrTF875SimyG1cWGPBVY2kc2vRYqIrC3W8GDXmH2CUlsSUeu7g/KPenUvndqyi2kPk1uZmDhEDTuCGjIZq8xTB6NEMrKtXh01jXbnFiJK6QWu9xM6it80bXR02LvUBQiFNYUZdUZ4m9E4rwzpEy9bdRRRMbISRUfmJJuoxbVjlorzq5+HQbrmwPQV4BVl0SGws4XwyZ/RCUC4RBe/WWmzRI/Dc9aj7OtSjr/2cRZ+qy6+Dk0P2FKGQ+hTeXzg4Q5KboYDOZpxbrVlPTzjBNXRjajsk3HJiZOWCvGWvwKE+KZyplD50RRZxhn8D3PJZnNJLmIjXW1sD3xOs7udQX/1NZV71j8GX3yvesT8SCikwtXbS0Razlgqbn4/D7VqznugKamW2ay0fpY74yYIJS173D+11YKPTcJp9lWH0BvAIzjHKsHQeA27a0fUuY9cvzlmMAyNCepl9Xkin1xZfwDhZYtniqNasChZSz/1z5L+1q25+6433/vjM3P4xzG7i8omDsjOsGZyx74GCGu61BqfKKpQQdO2V4/6bMFO2YGzNv/0jIb3EviukxtCy+pI8LugCcG+HtiagXuGUeodR8g5mGu/qp7NNaOlDkw8hUfo7K2J9i2hioTeRilcHd933jSbXVuQtfdAPDukF9lkhLV1dOFtY4idgKfdLrX9il4qICOI0Oc8rov53Ue6yp/xD/ZbC6sKMyACWKwT7DRNsGPYHp4IehdZ6u3T1jEUFS1f5wSE9zD4npODO0Zmri64lgt5BObOgPuYfiePVw6AaZhz9ACGZhfPz5+9TczXL1kw6jWi+QljWSVrpFuWDcRzZRKLadb+7sGDZAj84pAfxBnPuS3xyypTruCV+RinLSG0swU59CPlcu/LGxgbz/xZPWtzoH9pn+Pfqlz/9St7p92tjBnCbn5Xabo11VlBkgjB22ZdzTv3khbqXwjpqD7NPWdLp9UXXCMaqGKWR1HqXN+pGq02S6IKKsTVP+8H7NKW1U35g2eIn4HxYLRQauL7GmB1QZy+ryKu+1w8O6QH2GSGdtrb4ighjy8CXHZJaBwWLQWRMfqikM27R+JX/8oNDAKi7l3LB7mGMW6nDInHgA1RSd0AdNb+yoOYJPzikm9knhLS0bvJZwrKfgNrmsNSChhZBKf2u1m5BZd7yF/zgkADT1xSO54Yt4IIPbpF+OOhBqrcdKq9aMm75Xtt33JcBH69/U3Z/4eFQhVoGwthCQL1uBSXfdbUcGwpoehbl1NwHrm0RKLPPcS5sEPRKhC2OiRC7Clep8INDupF+LaSz7740QjX7BRSiE1K7FLzuBKk+IlJPWJK37GU/OCQN2DeqjDtLE70T0y6IhLQVEX6OznTmE6jA+sEh3US/FlLnoAOuAwEtSB2oEG/00JukUoUVBctwYHxIB1iUu3wVaLZrFYBdVUFkDASV0/Glawq/5weFdBP9VutNr59ykS2s+40h+wVbJrFwacAQVVyRs2yZHxzSCcpXT5nDLetW7I4JzlHFtDVEb5XaXLooZ2nYANdN9EtLiqspCG79lDKWJKCeSsIJ2preHgpo12lqoL+USld53VYBMK05F0OpIRWlq/P284NDdpN+KaSWrb8nLH5uqpsLYURJ+ajIjv3cDwrpArjEinSabtKu/g82vgXBeaqWEGcQnj3LDwrZTfqduzt9TdGXOKV/ZJQNDVpRr6tFqg9dxS5aUrDkHT84ZDeYft/EL1m2/Qhl/IBgy7nn9hr9hSLysspxy5/zg0O6SL+ypDhInCtzi7BEkoDigHkoREZrcksooN3HovErX1TE/NLbCah7z+0VfD9u+E1+UMhu0K+ENCPLXEY5v6pFa67lDWFbtY3sDOuh3UzFuKW/la56CFdyCKKlAYvKLyuvLZzsB4V0kf5VJ+X8Zq+wBNuKOCUqJrdoom8L1+rpEQxUJG6WUu8Mdstgqy9UMcCY0pnFtbkj/OCQLtBvhLS0rnAW5+wM7zMPAbw+UUp/VZlb84YfFNLNLMhb9jLV6hdQq0hye9GjsWzrnAwx8DI/KKQL9AshnfHINUNAGPNRIINW1Bv2F1P/2knsaj8opIdQOnKPcs27qcMGsX4KWfL9S+++NOIHhXSSfiGkuiFyIWfs68G6qNdYBPtG66UrchZu8oNDeojK/MovuEV+xERyh4HWGlt7TzrswP2n+EEhnaRfCCnj5FoUyiBYPwLP9w2zzV7kB4X0MK6z43HlqGeT+k7BjHKB+3RC6UOlWfHAkM6w1wvp9PuLzjOUfEW3sgwKOFo/rSyrdP2gkB6mMr/uC6XIcpwZE9SZ+JkLyun5yo193Q8K6QR7vZByTScIS2QGx5Bi3VTG5BvSpX/2g0J6ia1mRw1UMV712gd8MG8gj+wI5bl+UEgnSPYR9zLK7i08nEX4I5yzk1RgtQUrQxAnKn+8MKdqjh8U0ouUrym+FoTy7hZtBFp91qQbTq7Jr2v1I1Z5q/PsgfbASEREhYkxSxGTPOawkRBpx2SGHCF3qB1OVlOWA54SroGc7Eb1M/ZqIS2vL8zhXNRrbzpGPAw1uNb6E1fJixfnLXstHhrSm8xeM/Fg19ivMpzgkDpLRumyBbnVld5HsQw7Umt+IOP6YGrIwWByh0MOjiJGD4WSuZ+hNNO/NA7UX+AO2+FOO0HqPwVHeiv83gRh7xllPmSCfUikfmfEa4dvmjt3z34wqzvZq4V0xpripdwShUGN7X2rRapnK3Kqw/rPHmTm2pJ7hC1mubFdi/3Hran5gFCzHvZAMM0IKvhAnPiAYzY9Xesr3MTfVLy6LmyUgjuNf0Hw8T/ve7DEfE402QTnbNTK/AeE9ikVbfpnZMjwHfNGz4vF77D3sVcK6cwHpx6tHP1lxujdkPEjgtra6xuV8sqF46of8YNC9gDla0rGg6StAmsKsrgrf7AflQqwfShSOL4ajgUOdx1PcEFcUWg9i2287h+w3F8YQv9BmX5YU/3iNhl9fm8bebbXCGnhU4UZ1hZ9sWCsAKJ9HmXscGooS3KnUFMr1WikOaliQs0GPzhkD3DNymuG7JeZ8QwX/JTUsdS9CZaJxLxX6chtsP88WNk/O4ZUH7ru0M/2Bre4zwvp1Lopp1qUjiaUl0BkjwZL6Wlmb2pUigYG94rEHLmkclzVdHiz7tDPIbtBaX3RKtu2JnRYSNEadrhIggWO/+kwaMVxsAV210lXfQ4Gt9Yx+r6s7E+fmzf6iT7rDvfZLpjy2onHldcVLbY5f8KKRH4OXtMxmIOY4d66ua1kjvdJfGPeCgW0b0Apr8a6ZmtgXqFSxQ3XPUaLB+6vBBc1lthAGUdTt13HSQxyWWFDIX63Bzes6qCrmw64zls0DRU852ywiFhlUL4ecxtHrSmvK77CP63P0ecsaXnd5DOgZjkLojZJZIiIV7dIGTTfGlaGRbTRHzXG1KVVOVWv+sEhe5BZNZOHqWyBfaajsP6JAoXfeQWJJG6T8ymc8jo4RVHQuJ9BzeXvlLvPmRjd5CphbPBNGwbQFibYjtoigxiuMzUnih5nqD4XSseZzDAcGzwMnnGSFbGytFaeQLanrlGosbERzlWgBJ6FWN4xatjBf5h70dw+83nLPiOk5b8vH6m3x77DOZ0JGnE/HKUCieYfbQkmLCYw9o+CEIMom8cFZYt+l1P1kH9KSB+gbG3J3bbg10pX4siv58CO1XPCdoL0vLpFNbxUl1/nxM/cffBr7Vman0+UGQku1QlQQKZDGRmMygFLOnpg6cqUV3fF7jtjHOWox7QTu2XRpFX4Ffc9zh4X0pmr8wZolj0GInK7sK2D0CVJHeIXxBsHSqFOEVPvEKZfB01Zo2POM5Et23bMu67v1iv2VYrri4/kRmVGuPnEHjW88a7z7mryD/Uo+DXzLCtroO3QQyhj10FN9HRh85MY5xlgpNNbWCiI6ILDOdtB+VeYSOz2yjH3bvGP7hH2qJBOq510BGfWryHxrsZES+fWoobDbjGo7GPi/gEc4NWEkz9VjA1bcEM6BhoDY2VdrCW5hFFayCyRhY1USrXuEntuMNRxlSv/rZS+pSJ36WP+oV5njwgpuBy0/P6p05g2c6HyfoCn2VoBXRBsVHCiziZIxz8KbX4VMQ1v3lVQ3yvaOKT/UfpCqSXejQ1TnJWDcI6HatOxIKw0nYGIC6rrGqnvcon1yyUFS7b6h3qNXhfS2bXFIySnc5jFZqWznp4WA+spXd2gjVpCqKyqyFnxkn84JKRbmLpq/P6WiEwgjM0CF/dobNxKWx5xJFvMfUZGzXcWT6r5P/9Qr9CrQlp236TTqLAWCUt8OZ2b4S0aJnWjUmaNieifbYs2vh2uTRTSg9DJaycPzVL8e4yRqdyyR2ipWm1gQqsKxzZprWYuzK1Z4wf3OL0mpOVrSsZQYxbyiDjA69xOSQPUVjgyBFzfvyitflqZW/NHcHdbEeOQkJ6h9KHC44lDb+GMjWdQcW2tAdMbvWTMTiXljz/Tjb/uDQPSK0JaVlc4nQvrTsrIwNQP+CJ+a9pn0pjbHa4ra8bWfO4fCgnpVbBVeDDLLhCE/lhErKPQoKRaVTQoANgS9dstaueP6nu4jaRHhbS0otSiw6LfAwG9GSrnman+PjYMeUtuuvI5rtQNvysIVzsP6RuUrp58KDi4dwiLj4Nd4U0GCICCiptyZH32IFl057dWNPiHup2eGxZoQAaHu7cIbv0EfrcQ0HgHs5EgoPNohnN5KKAhfYnK/OXvZ5udRVrLGygxOxOD9BN4jUzgFVoZdm7jTlGTW5ubPPe1G+kRS4oz7IfS7Llc8O/DLkvVQvjC8IqfKYf8sCKvKlwoLKRPM/2+yReDN7hQ2Nxzf1PBccOxaOxBobMnzc+fv9MP7jZ6xJIOY1nfBTf2+yCJLQTUayFT+iPXdceHAhqyN7Bo/PInpZFXuTH5IpbfVNMmY5LYkchVhjUtzMvLS17ypRvo9huW1k2ZRDm/i1EmUivcXuutVG9Kpsctzln2dz84JKTP82LdS5vPGHPSY4axY6Geemxq2cbZPtwWp0aOo6NGfPXrf3zniee7rdW3Wy1pydrJ53Ju/ZozbqexoG8rzXMWj+3dzuCQkO5g8eSVHxpbFEtHPhgfQ+4fQKC446QQxkTp4aO2YzWv2+i2Oun0e6ccxSPiD0LwI1P9dnwhKeVbwuir7gm/yRKylzO1NneozQZUMlvkpHYpei2+WjvG6ILK3JoH/ODdoluE1Pv8PVO1VsS6uIWA4thHqd53lRwdrt4X0l8ori0eEeF0rbD5V1PLPFbrwGvcYFxy6cKCqjf94C7TLe4uCOiNVkZLAcVuFqiDftDkRq8IBTSkP1FdUL1ZKDZFuvK11O4ZtK7gPR5OLVNZ8kDJQD+4y+y2kJbVF41mlN6A/ngQXE/GKN1otFu+tKBvTJ4NCelO7ilYvN5x3fFKyo1eq28ANFhciK9bUt/oB3WZ3RLSGfcXHUIp/QW3hdViQDI40iC2P63IXb7H5uGFhPQ0VeNXvKqlyoUqXdJHlBEwUuBN8uvK64u+5Qd1id0SUqPI9ZYtWizZiJ274AassTI33ukHhYT0WyoLlj+Hk0LQMOFQ1wRaG8IZHUQp+2nJ4jFddnu7LKTTaydfAFGaqVLdXOFN0n6VZ5pv9+VlEkNCupMDhm34FVFyrbfQWgBcgwtc4TPtwcO/6wd1mi4JKX5nknFxk7BFJMnNBS1ilCKGyJvnX1HT6kd5QkL6I3MvekYqaa6VrtrgjUsPgGMGmKBlM1YXnukHdYouCSmLOeM5p5ek9hHh7HWt9bzK3BXd0j8UErI3UVGw7CPtqtvAcKkktxfrpowdoDm7bs6cOZ2WuU5fgMsmUk6/S7H1NmBFvSF/rnwHXN2wHhqyz1JRUFNljF6b2i2jpEJhm/zJyRs6/SGxTgtpliTjGecntTZ5Wxr9i6pJq97zd0NC9kUMUeo26bo7g9YUhw1ySxDKyI1z5nRO7jp1cunK0uGaspnBZyM47A8qyH9lduRePygkZJ9lQd6yl6Ee+psWgxzA7aWUX7TpxMLL/KAO0TmJtpyrOWenBL+qjdpCaeVAXfSuyjGVjX5wSMg+jdSqRin1dlBQsQFJWDzTCD5xzlMXCD+4XTospDNXzxwAddEixsGMBhp0MRJGmae3mYYH/aCQkH2eJQUr3jFat/As8fs0IEETNm857Dg/qF06LKQxs/NEyvn5qf2i3rdYjKkIl90MCUlmB3EXSldvSh2JhIZNUfodf7ddOiykQrDvs9SHcfzAjX5hq975uB8UEhLiszJn5ccgYRWp43oRJvjXpz44fn9/t006JKSzHig5kFF2Wur4XNQQYNKX9PSShiEhey/0ERmTW4IDHLx+U8qOtdxMXImwXTokpMpVuVDhPTrY7eKZbFe+Zbj5ox8UEhKSQsW4Jc9rYv6ES9c2A7YOhZZxft4Fc9pvQGpXSHGEBGXsDNAIfkgcrw9Is78vGrfsv35QSEhI69SDodNBEcKPlGmlxp94ypGH+kFpaVdIN562/gjwcidJd9eXz1BAYV8a4q72g0JCQtLQMMB93CjzUergBmELQZk5xQ9JS7tCyql9IN4s2O2CGgHqpxuZaXrWDwkJCUnDClzdnuqHUwfegxARbWi7s2PaFVIj5XV4syDxh9En5+fXdftCwCEh/RFFyWMKPN6UWiM2IA33f6Yl5ZKWzFw79WUQylNwgHACbwCDVHnzc6rr/aAugSvdD1cZR6mIGGY0yaCMRMFP38YiW9dXjnkkHL0U0m8or514HBHWY5yLI7F1F8HeEa1MVEsyoXJ8VdqZY20K6Yz64iPhzzNM8IOTb6w2K+leumj8yhe9wE4w++5LI9EDR53JKC0GH/2r4EYPo9TYYKux/UsZQh34u9MQ8yr4Amtk1P0TrnfqX55EacUVWXzYyP81lJwO93ExjBIqpNZ/WZRfvc/MxilbO/XbTJNvQprFGw4MsSBN/m/UsEN+/PHmd89hRHwPVDZmYNwlopRprZZX5i1d6+23wuzlEwe5EfuXkOGjCAUVmgDurYn5fWVe9e/8kBbMXJ03StNBCxLX4Ze04bfLmL7td2OXtrve1cw1xbla02K4MOoHeVBioA4n75g/bvlf/aA2KVtT9E2q+cyk+Pt4cSJmu6Pod9v7end5fUkOMRgf4y9iQCNgpmrn51Ytj+93jBl1xfUi08rBFe8TWJkWcZrcHy/MqZrjB7WgTXcX5HEMt0BA9a53xDmjjNFXVUbkbT+ow5SsKjnQOWj/BZbgf7ZsMY1zdjzcbwRlbD/G2AD8yzkdAZb6CC74lSJiLeVZ9tPldUUlsx+bHfFvs4shmRbj9AI7y7qSW2wcblYmHwOW/1z/jH0Do8/G906kgZ1tXYnpsnnzugxqxFYeYV+yMsTY5uOZ4mrK6Xj/6lZptDNG8ggv5za9OnEdbpEB1pW2zXNBWNMr+EjmMJHBmq8TmXwsFfRM5biOf0ZaSivy9gP5ud7KEqODz8XNzrbHgA7O9U9tF0PZUcF4BDdm0bGQJoURS13tn54WLujxkYHW5YlrIQ0uN1b7DT6pgBJ9rcXsMaxKGj3Q32uVNoXUMDqE4WiJ5CopNhq9UXV11Q5/t0PMrJ16dIZN1tgZkWK4XwTXRULrjOvAYB0XZ9L45t9bEhE3PEcIfhQVrMJp+uKn+O1I/3YekQG2UUoZXKkwcQ1u1Jh9aogieiDB98fNKANmdQivKKh+HfY/xIEozcch3RmhB+KnKf1btIAJ90QcEN58jb/h2FPIlwOmrZ50uH9qC7TDvgLPb74GV6SDa15fWLCy3TVozeDsQ0FZnyejMum5uLkYpkg+rvPsn9422ujUeyRtXvmjs9vrq4QiZlKvpTKloaYDaEpegGc6wVZeHGYLN/rmzNWFo/ygFrQppEqSQUmNRlgaIILAu95+BwH3Z4ARuopniHPQ1CdGLqFwMkZc6bh/hW0NZOSLIJAK67wJvAQB9Qm+/A2DWfYMPzikA3B3JyYkJDd9O6hoUfggdAQf5h7iB7VAGD413kCYDAofuNLHWNw+zQ9qARTC8cHxqvGqknk5vtc2YLVK05VKjDeucGDb6nw/aLdAgwD3O/2Ek4+Y4gf1KE0N6u8g7tuDPoinMDk7OUbNSD+oBWmFtHTlhOFQVzwvaVoa/Ac3jRHNOpTgCRQf8ANhi68FfXEsAGBFP9JS5jdxc6XaYk1wHTbadZzRylFPBQsIZg5Uo4jg7Dtl9UXH+MEhHUY9FGz48wTNkMNhO9EPSsZLbtaqAKOCtTMspqk+2g9qCdvVYolWwyjtgmB3pLuOQr5fQOHkBEFhR+KNlqbLQgXxR3XlFWr8ifcDEzBtxiMzhmBYT3Lku0dug7TdlNRfCuC+UGBn05BWSGl2xkjIyi9hhjaDt6GkkXH33/GA9ilZcc1hnNGJ6NYmwIQHN3W71E7RgtyaB/Dz+5Vlle6Sa5Z8uihv2R94o8xTrlwXFFS0qMISRxFOO738xL6OVOpFKJDeHCnEE7RM2wYr0qrCK6stPE9rfVjcAgLxfG8GLRD4bqemVj+QabXTjgBrMdSz1ghcB4/b1tAo2/2KXuna4omQzyclnouFF8rNBvjRrGEw7pTz075dO+kIP6jDeB4aJa9AuX4m4a35VapzjYx9zQvoQebOnQsvRuF9/AAfhoqMsP383RakFVLpKgGZmPT5Qu/ehuzYJKOfewEdICMSGQf1zSNQyBJ4wmdI7aLc5U/6QUn8rnD5Z1ChuilF4cRdA2XG+LshHcSmsc1Qut+A/PRDIPlBiKB2eZC/mwQX7Bwrw4oLGgqZNlEoB7FE4cJ8gLz5n0FmUIuCxbm8HPL7sERjo9fOQPXLR79zdLt96pzSL4HyYIkyh/lvpPsz0C9vJSwqliMoP8dEOfkfL6AT4D2oIZuVNivQuicsGsYV6pg/9HZ6HPOfVEuKicwskbaxM62QCnBovAneQeDmkHyb6/LqdklcG2A/qGb0HIxEAowgWEkHCk2bzdc8S7zDbO598Kl5E5xozo6/oBOz2tui/L5JJ89cUzIxsc2oK540c23xhGlrpx3rn9Im19fmZl53f+Hg4IaT4yGRUnMB043e+EDJwNTzC58qzPBPSQsuoYqroM+sL5nsxfX+kslldYUXdnTlORx0Yij9fTA/PWtl6PnYXuAHNWMYPShxJqY5AK6qeTYh5F71g9EDLRE70AsIwDkb5E3N8nU7XsMMeSRuRdJTtrLoGHBjSxNVIlTkSuv34IZPg+9d78fDA6dM2ty+sDVL3iYQJ0iHzIyNA1cqZV5JDHpHb5Fy9uXy+sLJXkAPAk96OaFwEoBlx3/TeohpM5lqG6xwymHv3uYz+OtnQdsMZdmHwZnjguN+8R6guD5q2mn+5Ye0ipbRzU6TM991ZRVY9SW4OU1uNZX6gZGbwRPvKpBK02sLLy9fU/IQtaxHRYa1IrFZWfZybluruJGPl9eX1JXXFrWpraNswKyoYn+OKf6Et0n+J02jd86sm5ntn9LMpOUTB26XZF7wfEexJ7M+Z2nrV1gIsfuJOfIxKLT3Q/yWefGM2Mu4EA9+cvJ7i0tWjT8Q3snrI24Lqszrnmny8awHWC5jZSfVxcpqpxwEliYf0tvbx0vAsL0itVnd7MICcC3V2jrd320GXOFDE+ehQnZjLuyal7yAtsgUJ4oMkZ2wop63pclTFblL31aOehHvg/dDMG4Q/ZyBzDrYC+gk866b52hq7kzcD58J3gMYcp5f+tAVWV5gD8EsujnonTZjdNpGvPSaWBAcyJAEvhJI7sb4XvtYts0F/B8U6bgWMetqimraXN1+Yc6KTQvHVc+qyKmeujCnapq35VaVLMxb+oOurgJR8sCYgWCRqiyLP2JFxJWM80PdqIsFKb7Bb9TkQogjrQyRSwX7U/maornX116f6d8iGcGOzMiOnAHv+BXcItnWl7hFTzbu5y26NjLsDAEF4ZTg+VamfabRtNWuDOwXHs4GrBARa4mI8AsgCTNBaXlxdKIOZsYgcA2LbSvzYTBRxwTr/K1BOXkJrv3UK/wInA55acOPpFZFGhEDbFsc5FlLT8ikAWP4Etfsb3CuG1fUcSGCrBwb34tTUl9yGPiT47Ceh3h5Tcl/uS1aHYwSBNzaHwWFGxS7Mow8hftS8+cpYy83t/rDaZCWmTa1vxkP6ATGUFB+TDvRPylHvpi4p7esCSNX8MYh53kBPYSW8FQoYwkFkQCilRwQIK2QMmlaTqGB+0D6fOzvtUus0RmYqjUwcpC/r0HmJR/oYdCtjOhhv7UzI0X4YEwotCZeJhnQ2RoKIPzCfaz3JBJS2NYtO9m2W1p1rbCrFwpkYkMNr6TRdpbV6rsZMEfB83GDZGhV4chowz0gxOO986AAYXskxg3ihE2zLrhoxqujW+xL4P59LWjlWkOphrfg2g1Jrhb+VCxpVXWl9Nea8wyOw88vYrzpSU4z3zdabwkWLnAXDw72MWYLk23Z1ohEXOJpa16cf9WSd7yANJTXlhwHQohelwc6cJAqH3O10xsRVXVN1UatVNLoNi8ehk70dzvFqAGjxJJr7vsUsr3Oexv/lRiDLLbE9fG9noEbBm4lbTGoA8pBeln0/7ZAEzMYcygVQ0mD/7NdGDct3CEsJNrQDf5urxHZTKZzSxThPL6geoD68WpDnG8q2zpQSnWlkvJJ0NLeMSysKLCWYDcO0VlXeoG9wIy6ojwo4FO8uPpgusH+X42rJlCl0aUcA3F/Go9BbNutm1Xm130BQvZOokAicatqLo/vxeGGzk6cgoIAOmFD1dX3bRzx2ohGCPlrYgkdFERQFAccc/KuBbWkJAcGlQWmHejBdf5uergeb0fEyESrLkgLdvz/PWkCB6MPg8LCTnMPfA6kyXEzVxe2KGMdZWejmgeKdX2iru01iDF2UXldcaeW3OwMOCwC/nWC+eARbNVLIe0BuAmkWOqdIAQkzP/ZPpS23tdGSa9+J2ZWzeRhnLNvx/sH44WI21iuzcr9XzlsArjWf64cU7llUUHNozsa3RwQ1j95jR94hlcYoDhbDL8z2fF37yKz754dATd7POSZnSjwKExaqxcokzkLCpbWzs+v+WRhXvUjNOaga/kUfiSrI4DQ/QUtc9JbcJY00gVc4GZXHRWDIcxTBNjwA7H5Z8JdRi8E0ugQYXYNwZRaz0iIKAq40qoJjFOb/aOlq71hgGC9/QAEdhjXVf6eB4vGngaV2dzHiAJl2eIARdglXkAXWDFlRQNIQGVzAxI8F91oeMSUrnwOoiNIDp4QvmAK8Oy0ZatTEfHSR9MOT0+D81tEBu/BPJPfe6jB/DQoyMcmNDUWPhWTW4ky81NbHVdOXrkdCmA91B28goZ4rX+Enj69rvhsL6AHUQd+cTQ8d1yilRPB1j9N1e1YT/eDPBZMXLUNsvYusLCxRFzbAnzkv0FhcHBQCoKFEt5tMK5hhftltVPywYM6yusH9Y6DJSTuo94OIIl5NRZ1tfcsOAVbXEHZNbfwMspO8H/GBVyZTZ+phmf8oNahA4+B+HwjMdgClQB4M+9AzJKGEOK7wjMfTygJBOvh4Bpf0loLdUehmqyWUfdjjC+Cw/TAio/9+JT1X/UC+gCdElJP/pnpcIJAGn7h/2wG76GZTDtOsUdwSIH/ywMzGqLxpsh2X/WDkhg4SC2HeL7drGHhP8jELGbIBV5AD6IoHQyW29+LF3ZwGz8TlLU6oaEyd+nDoFTeTxSythioG98l1HyYsKRx5UOOAIUQbywR/BQc5IDCi/cDwdkKjlOzYogwtR7k891EuqDSA6/jyzizqbSiNAuEbdckCDgF3uPt9hr5GDUFSV02UNUwhj1SMbamRZUI6vuPeorWjz96BZCX33BURouuoI6yILcah7gub/ac4N0tS0Qo4d/2AvoAnTfpbZjlVDhh//F/NuMVAEUP83d7BdD8pwYtjV+gt84bvXK7F5DCnTiT3phY8xVQgOKNNqRLTf6dgVJ2OTzb30vElW6EVPssHtISytkniYLbFncV1DdRTZ9NWCOvQGbaluHUG71DDT0Wv06NxOvl9G9yJ33LCwA2yeh/IS3eSdRL0duA517SOGLwYDrYHU2ZOQQFH8F4g/2/39tJAw7wh7PHJtx6zCMXLLVR6s3SF0qt2Y9NHJTY5nj9yXQ9COmGYPUNn8NtsVv9m/DcClBIHyXSBRUBKJzR0+8r+rIX0J24OCWT8oRS2oU3lbBV0gopNezT1jIeCkvHZiAAkHgfJ1yrZiBDDKPHw68OFKvuAdKjxeAHiFe706aCYMGAAjHI3+0xIK7nB/PPUy7UbLOJSTvrCGo573c0MQ01fw12f3tKk/CB09dOOQrKyehdi5/DHTV9vaa4pnlOJ1pFQ/W6hFChLhFc2JnZIktzfaLIsCy8H14aX6ndtDnfmA6NjuWUNveroscCLyxBWCbzDe7jstG+P7Ft2soe4YLiHOFB3jN8MH0E47s1Cg2tqSvVw77y9tohRIRnC4vOwn2aiGA3ANLJ4WYtuujaekZaIdVCv+//3AVmKKMH+HvtIrU02MAQxIuLIaeApmxz1BCOxilfW3Jj2ZriW8vrS+Z4W13J3LK1RdfNMZ2r1He0ALcNFqFA6egh4AktNCoIIXUa3fSvgd0yHUS7+i03KpsSBTJuNczXhDZHMM4HeEKLFi3mSsJUC08I6ir/VFKDV+7vA9oVl3PDMhKxiFs684Zj3Da76yhh3+ARERdsBP7AbW1wPc8DBf8N2P6nebPEN4QtLoR77xoXDGD8tVJHz6ifulut75AGd0PdXiYKC7ZMw+8rp60uPB2TH+PWHUhOLUh78CBSbgi1C/9XC9IXdk0/8lItgLdnSLtrsiRgzo6PoMj9IeHvI5gfjLJDyXqZdqoT0iDNQcLmtwvB53CL3YqblclvMYRf+3Hlxx1rzvQBd7BFQxUUjJaTyNvAm+eqk+vYcI8kwcEdkBfd5EZaZKktmyCv2xdyyLxngzfFAgzFZbjOstIOwDZGH93+neOAcP0XIvpms2uHhZGQr0Lt7rqEevAF+JOdA9TDXkCQBmx8Ig14IyQeP3ojvNvoxIwpr15JzF+qctN/BnPavZOPhYLwLf/5SWCY1z/cytYs0D4osHaWnQXF/iw/qEtU5ta8AZZ6kRWJ2w68LxdiKGe0GJ7YqfLWFoyZ7GAdvJk2FG16IXXduNULAruQpEMhpZIKZzriY0b1XxIFAsFEZoJmUKLb7IiOcDEIF1PBDGveYJ9p/d/K0spOtQ6DNX8hmLn4XlDGhqebPDzjkWuGGEqzmq+At/UKEzVJ3gUUxCTth8+ApDlIStliWGAsOyMTLsiAE/yQ1rEZezwhAIgf1/2p5K1OpUKvArJ3hL/bLvg1aqPJOs+N9oHfIFb8smAaweFPvVXuUhh12HufwmuvT1wfjx89FK441WvUATzrRkzbo4wEPd0biO9fg6BwWxlWuxtYVP+KOOhaa9dMxCGNflCX0NrUuq76vNnLgDyH17wGVM4ZqR5hl6Hk8F0pvwu4fdr1q9MLKZJaniAToXo7Iq8uv+3rAmjjPuI68pOgoOJ9YX/i9LqiVodg4cB1pdRvUh/v3YOSB2Fru6SnoJhJ+rqVXzBOtoRqtSNcNVqFnLNdC0ZBTkEmbZeKNXdHeFC6BQU4ASoRLthRkQzawuoJ6ZwJQn5consjHTElsQvI34sLARTmoSBArS7XsbFuQz7E47AWCrUNQHG+4nV5BOLOGG22FlhIjaatrn8096JnJNzguURBTgD7XgCGg0Xdzgz5s3cgDYKx0uAd0LpA3ehfTlPsLifq3JNui8Xc37gx535fR3hgPoHgHkWFnXb8a0dYMK76GSP1nxNlFZUWuOTDIGXHekq6G2CGnpaqpz2Fx+hf/N0WpBU2TiMN4OtvDWYG3psyMmgAszrcOluRs+IluLI+6PJiokJCjABXYknpqslnoVDCzekNv78he8baySc00gGrKeNnJWlZSDglJdRx3Lb73VoBKhTrQEu+lJhJ4RV8W2RB2syYeU9yH1txffGR8KxCrwD7iYnPhnR4oaqgKqnvDpLmg4RFaQZ2jVbT/T0PrF8LZpVxy29YaQO2NQOH79Um3C4PvIaTH+JEfD/Eo+zewsM5Y9dD2iZNKUQgWibd8ESI4rNgTaPBRr3g9dg/qphO+/kQ8Bb+1OK9/cu9cG02V+TW/C0e0hJc4A6eDdYpfhFeI13lwHPvWJi79LsLc6pnp9sqxlVdD1b6Jrj0/YQwIRh/reUN/m6XASH9dYpA4liWTlWN2gLifXxrChU8mX/4P1uQVki3x2Ifg8v3j2BCYEZAgmZHSOY5fkiH2LndvVXG3Jfjo3ziYEJwzo8XGda/omLAX8rXFN/dsGPr/xFjrRMRcQWqsKSMh/+VK+9YmLOi1b7NtsBJ5dTRv4TEcRJKB+s3jItcPWpAXdnqKVNmrCkuLq8rKoxQ8zAI8+mJjMI+QbA6O6VybvICAsD93oH3ksECi10YjPPZZXVF82esLZ6E058cze9nQlyOz0wFHOSkEoGT38F9WysduWu+I1hfyxLHMzvy5My1JdPL1xYVYnypze8HC3J261bU8J2O14/SAvNZ5HkchxuQ0WYwfbSrtnDptto9FUe978bc7UEF3gwEQXTaHKsLLzyJoXfgxxun0MH21oJxS+u8gHbA+iMowj+klk1QWGfhtD4/pEvYgz59QRvzoAiU1fYUa0fxqibUtOjGQ8/JuNG0Hz1LK6Q4ZArqOq+kaivY58bIDs23TLAcJ3ETd7xy1DqRIbyCgKClxPenXJwFgjkb7u0tyeEJiJ8u2F+HgiJdd/FW05R2Gcn2GLHu0FpXqjvx2Yl3wucIS1wayc6ssTLsKjsrshS05okJAfUsLwiIUeb2RXkr/ukFBvjMNPwTrEG9he/kCxS+DxQ+YUWsGVbEXm5nZiwD5XQhnAeWwl9yMwFeYmiLtW0q8qpXw2PrRASe78sBCjhYzNNExKq0I5GlGF9Im9NBgeByW+8HBQ4LPzgmw6igrRZYUAQSLPNLrQkZvjM8+/GF+Sub+0dTkcrCBqHmxqcgeEdNVdKQviCTfj8pG9z+rwWfjS0c4LU95u92CIjj31zHH/0EQBrgww8nUu7WekXzRj8Ro0YtRcveqhLaDT5a+9GB4O6OSBJ6fHcJXgAVSco6SFohRUA4mmfjJ/A69Q09yt/tMAvGLX/dJexbTpPzELg1MdRUmAiYyJjAiZY73E8IErrIkFj/1TE5a9Sww2fU5dcl9W3GdjoUrDHFOOH5iQ1o8V44/G+b2Xmzct3vQ8H+FJSCJ/yoxRJT1byheJB+eA887rruerBzMxbmVf/Ev00SGB/QWNdHG2JPJOLgFRr4H+t83kwbEHic5C4ddw4I1XPY8JGIZ9z9br1LyygxM9bo3gdVAtdTVF46garz4+nVKUFeoHTfAaW8BhtTEvf14sFIhMhoutUAwUnSv8f0DV7jbfgsYt7Df/xzW4DL3IAgvsytlGthw5IGqjftcq+R7fzLjLGv44mJa/DdwHpV+6d0CLdhw33wGh8m3gFHaUUybVzdoXkAAoWClHiGt/l5tP3T7W1K3xbd+DCoub+lpmlwM34dvDMwqi6EEj4wmLJ+FewZxzYfeAGt0KaQgop+F4SqWVshnpbm9CRcQ9cP6jCLcxZ/yHXDRMc1VzpRtxoK2nsgJDi6x4WI4zKCLuw3Kak3SiWflFF3OgjvtxbkL50/96K5LVp0odYGt5DvOA3OG1BffQk3J+qsgwLW6mqG2Bm/MLfmDtdRl0SbYrfAc14Da47dKtgPpkBJONqorVqqF2VUfqfJ1d9ckFe1MH516+Bgdzt7YIHb5JTCdf9WWu+ENIJ3wfHlqkFK9xljVF5lfs0v4HlvQPyCcX0DUrPVkUSV+ZVfcJM5PSblBBVTz0K6fAEKA+8rvTRy9ToQ/sKRuvEWKIr/caPO64n7goV5BeKQNtM9XPJ3pzH2EqTfy4nrIDFfiTZE/w1C1u56RFBU/wHK6VUpd10Pv1+FOD2RaVmf+qe1AMQJG+TWg2cUf6ZSrzkx916iIx2eAonUFD8TpZrWujFnXeL5TQ3RV42Sh5SunuxNswQLvRnU4yuJ4/C+r0OevN2Y3ZjWaiFYTiBd7oay33xtcIs2Rt8Ew9LhedUJqDKnguA3Lw+DeEqRkuewSuYHtaBNbeAtxckH4sTYY5rraGDlIJGboJJ+SWV+x1YSbw2cnzkkY0iE7NiRRQUuekb3Y4bsgIrYxhiQdWKWU3lWZbsrDuS9mmdnbc5KUjaRgRHV3rWQUDj5NyPiRKwswUcIEdkfzPYHlGdta2hokDXF3qT0tNakNQqrCzOybDeTZmUdBmqHs6bYBjeauR3rmXgcnmdnjUiOa+PmRp3qIaSC142K2RlOln2EcA0YV/rB9pF6R81F8dFAOGNjw4UbbO9kn6GbGuigdSfF0i1bgtds/cpWa3tmslUZ1DTIzBs9r80J+QjmH7xLC0vdXtrjZPaPd3zMskdmN6ftBrJBPoOtxp0E63gbnk5+78iOCNsW3RZDQVu9ejV/dMSjSXFsHAHpfXLb6e0BBbLw6cK0DUaRt+A9/XztCPjebnTnAxZUr7DLKAFWlZwmeevC3Kq5flAL2jXZM9aWvAwuZdK3YAS4GK4Tm7kwd9kCPygkJKQNZtRNOdVQ/ji4twcmei08gwcekqLkqkXjqtP2WrTp7iLgAz6CzRBBoP4A//KxqE3jISEhIW0BYnmSsHcJKILDJ6F++35bAoq0K6SGmXuDdVLEm+lAydnDrewuTxEKCdmHAKPZ2iQAg2Op2/1SfrtCSrS1BXzopLVxsOILWmA/rcg4PygkJCQNU1eNHwki880Wo82wVZvSu/y9tLQrpItyFn3MOLkXm6ODYLcAMLq71sANCemv8IzIWHBrhwVbddE7BeP3uSQk7SSEBO1bUkA55v+cJidpZA3OeID9c074/Ih96zODISGdAFvmmWFjmQWiFjCk2A9PLFpTlVvVPUJqf/Lxg0yw17BPJwH2l1oRMcho2mur6IWE7G0MZgPPB9P21UQXJoLGDscfEFc97we1SYeEdN51T8SUlo+m9hoqeA6ElbT1bcWQkH0ZTvV4qCpmoVFL4I18YvTVTLWzzeVlEnRISBGbmCoJ+Lse6GMLiw9TnJT7QSEhIT5Ta6cebTQp3LUkTQJDtFH1uOaUH9AmHRbS345d9i6jrMbzpQPgdCdGee7uTrgNCelvCO7eAFXCSLDBCIcPSUfFtKVr/JB26bCQghsNSsFdo2JuY7A7BkciQUROIhaf6geFhOzzlK2dejbn1rjkiYgEZQXcXXp35ZjlLdcQS0OHhRRZOG7Z45qSv+EsgCAypgjTZNa0LnzYNSSk34GTuYgp5YLv+nQGgHIjHfmpUbreD+oQnRJSBCq8twXH8SJe3TQiRgohfuQHhYTss0ytLbqMUToVBNIPiYMeqFLm4QU5S9v87GcqnRbSEfv99++gJdYEV1lAsN8U6qbjy+um9NjHbkJC+joli8cMtC16U2IB8QTe4AVXNSijfuMHdZhOC6m3EJUkv9Gu2pY0VFDjKoAsmwrrZlxx3A8OCdmnEPsN/gG3xflotIJgt4vRet7ivGWv+UEdptNCiszPr/6rIWRVcHADgqsrCIuf60at0O0N2eeYsXramZyJWTqlywXlBGTjLS31Yj+oU3RJSBHtyp+7jvtuaiMSCiq4vbNK64vCkUgh+wylD5UOJ1wt4hYfnNTlAuDAetc4P180YVm7M15ao8tCiossa0l+qoHgmF50e8ENzhaM3jFlaW7YdxrS78F51cxxb+OWOAONVBBcg8kQ/fDbwz5Y4Qd1mi4LKfI5bVihtLk31e3FcYrcso7LHLjf8tnLw/ppSP9miMmaDh5lWWqvB3qZEPY+sehNXVkeJsFuCSmuzWMr92aIyIZUQZWuJELQi5wM+05c38UPDgnpV5TWFX6DW+x2b6Hx4MAi7CnFzkmjf7LwyqpOrxUdZLeEFLmnYMV6HXO/Y5RuCLb2YoSxI5cLNs1p2v5DPzQkpN9QVl94viX4Csb4QKj1+aFxPCsaUysW5iztUmNRkN0WUqRiwvIHIY53eEIakNOEZuGM3zTj/uJw2GBIvwE/icgIW0EYGxUcVYTgGALXlf+KZPAb/aDdoluEFGnaoX6ptXwEK8pB4lN0qEUJ+21Z7ZQJ8dCQkL2X6fdN/BKn9D4m+OHBeaIIVvtkzN0oTdO03161JO36w52h24QUvwhtdsipstF9PnWpFa/Fl9IsJsTS6fWFu/Xp9JCQPclMsKCcW/datnVcqgVFTxLKepQocuOSvPte9oN3m24TUmThlBWbdFTlOTHn9VSLii8EL2HbllVZVl90HQQFHeOQkD4P1kE1Z/XcEsemtuR63ZAGZNRRP1lYsHRVPLR76BFBKaq95pQsO/MBqDwfmdpvlKi3aqnu0rphbmV+XdLXs0NC+iLT751ymWXzFfg1uNQhfyig6Oa6UeeXFfk1/+sHdxvdakkTLC1Y9Yp0daFy5cbUgfheHRXekXH+HUYHLC8Ml14J6cPg5zjK64pn2RnWaspbF1D88JfjurdvJY09Mhy2R13O8nuLvsYifCUV9JDU8Yz4ZHSJ3Zh8HSR3ZkVezdP+kZCQPsH05RMPYJn2bULwEvyKg7cofICEgGrX/dmC3JoeG6/eo0KKlNZNPotRfq+VYR/tfVowBfz0m9F6i9LqV03bzd3YAOUfCgnZY0y7v+hrXNN7LM5PVSkNRAj2gxpjFFjWn281O2/FD0T5h7qdHhdSpKy+6BjQQbWWJc5IbbJGUBvhdzGkK58yUv1vRcGyDi11GBLS3UxdNX5/y878HhjJmdwSWaltKgjWP6HatkPGnB9Vjl8+zw/uMXpFSJFpyyceLDLthcIWl2NLb7z/NBn8KC24xVu01hXaNNwRNiqF9BpQ9yw9ZcMYTtkPhW2djcNaE4NxgmD3ouu4H8Ch6ypyqju0JOfu0mtCipQ+VJpFY7GfgIaaAQ/ObPFtDADdCPT1cRoc2Nyfar3zgSUF9Vv9wyEh3UppRamlhsXOtgi9gTJ2FeecpXaveECB9Yb6OfI5o+m0ioLqdf6RHqdXhRTBaT1D6YB8EMRfiwgf5bkTrWgsdIExXEv1HKFswRa1vb6+g+uUhoR0hOl1k77CGf8242IMCOAgFfi4bxCQW6+IKtedb2l267yC6s3xI71DrwtpgrIHik8k0vxSCHEFTpJtzf1FsAUY3GP8tP1b2tDfGa6eWDSua5NnQ0JmrZ08TGl+FjF0FmHkYmGJTGwnSZ2onSDu3jrroYTevHDc0lVgXFo/sQfZY0KKlFZckcWGDJtBBf8eJNYodDNaFVZ0NRi4wQy/RCU/1EY/xAh7fGFe9aNwtNcTLWTvY8a9U09whRorKLmCCX42CBvHLpV0wom9DjizBcrkfYqrOYvHLX/LP9Tr7FEhTTC1dtLRnIjbwf29BNyO7HRuB4L1AgausHRUFAR6A9RbnyRcruJafDoy59ANc+ncls3HIfsc2EprW9n7G6rPB1mbBGXmBHBbh6Ci9+qcaVQ7Hscy5kbd1wxVt5CtmQ9XllW6/uE9Qp8QUgRHdnx64voriGA3govxVRyV5PVPtZGYXmcy/DVwHpy7EU7+PajG9ZDM6w1z/7AwZ8Um//SQfs6c1Xn2JzTrPHBjzzWUDAa/62IoG6dxm3sWE8oFWMb0Ttcu5S+3Qnm6I2bYkupernumo88IaQJct5QPGXI51+wHwmYnUcat1EWGWwPd4fg3IA0mtIQ/ILQEu3BcyJq3DKV/h8rtOkGsTwhx4L+QvQnb/6ssboxLsyhVp0HxhbolOY1Qk80oyzSE7i8sPsgbBQT1TG+WSnq59MByIzIEiTU5n2ijamWTe1fVpFXtfjO0N+lzQpqgsLowIyObj6ecTLRsfrGnBeF/bwZ8OwmfsLDBt4v/jP9rTKKhoM++fkgKuBgJZCwYShAsGlfGSLAoYHtGugbIIJ4Xhm4tbE7M3Qj3W9boqIqaCTUb/FP6FH2+lJY8UDLQkupUyJnvU83O5RYfDolLsesmXaU/JKQ1cKQQurXSlTu1Uu+C4p8XJeYPy/M7/vGkPcFeZUqK7i04xGbZ1zBqzieMXAJ110hCc3paNBTakASexYV/Eu0WUD6UlOugfvoECOrjC3Krn/TP7PPsVUKaYNKySdkDM9lRmvHTmaGFxqhjIEtGcptHUFNihiTqI6Hg7gOgLOJ/UBf1Bh5AnrsOFABttkJ99SPYfVwp8yCxrA8X5yz+0L9qr2GvFNJU8lbn2fux7IuooedCbeUgqJMeD+J5AmTQIGFZFipUlNVmgQ3ldu/GM5CeZHp/lSsNCGED/HyPGvKKouZ9RvjbDjePVV1dhQ2IezX9QkhTub526tAdVB4KGZgFynUgo/xwEMyjNVGHY/M8NSwDXlxoYrIhBUKR3QsABYxN/I3wQ1JjtmvKPoE8fI9q/YbU9DNwaRtIRGy6+MptH+XTnps2tifol0LaDnTOnDnee687ad2++P57JSfmnWjIrYTMvXWuCRVrSEhIH4KQ/w/T83a7flXn0AAAAABJRU5ErkJggg==" parent="8le9z9f76cK8EGYcwLgO-1" vertex="1">
          <mxGeometry x="470" y="566.97" width="174.75" height="120" as="geometry" />
        </mxCell>
        <mxCell id="8le9z9f76cK8EGYcwLgO-6" style="edgeStyle=orthogonalEdgeStyle;rounded=0;orthogonalLoop=1;jettySize=auto;html=1;dashed=1;strokeWidth=2;strokeColor=#99CCFF;entryX=0;entryY=0.5;entryDx=0;entryDy=0;" parent="8le9z9f76cK8EGYcwLgO-1" source="8le9z9f76cK8EGYcwLgO-20" target="8le9z9f76cK8EGYcwLgO-11" edge="1">
          <mxGeometry relative="1" as="geometry">
            <mxPoint x="210" y="350" as="targetPoint" />
            <mxPoint x="110" y="500" as="sourcePoint" />
            <Array as="points">
              <mxPoint x="280" y="375" />
            </Array>
          </mxGeometry>
        </mxCell>
        <mxCell id="8le9z9f76cK8EGYcwLgO-11" value="" style="shape=image;verticalLabelPosition=bottom;verticalAlign=top;imageAspect=0;aspect=fixed;image=data:image/png,iVBORw0KGgoAAAANSUhEUgAAAi8AAAB+CAMAAAGsQDGbAAAAAXNSR0IArs4c6QAAAARnQU1BAACxjwv8YQUAAAIEUExURQAAAAAAAAAAAAAAAAAAAAAAAAAAAAAAAAAAAAAAAAAAAAAAAAAAAAAAAAAAAAAAAAAAAAAAAAAAAAAAAAAAAAAAAAAAAAAAAAAAAAAAAAAAAAAAAAAAAAAAAAAAAAAAAAAAAAAAAAAAAAAAAAAAAAAAAAAAAAAAAAAAAAAAAAAAAAAAAAAAAAAAAAAAAAAAAAAAAAAAAAAAAAAAAAAAAAAAAAAAAAAAAAAAAAAAAAAAAAAAAAAAAAAAAAAAAJycnOrq6ru7u/Hx8fHx8e/v7+7u7gAAABAQEBscGiEhISkqKDExMTc4N0NDQ0ZHRVNTU1RVU2JjYmRkZHBxcHFxcHR0dH9/foKAf4KBgIKCgoiGho2NjJCQkJiXlpqXlpqampucm5ybmpycnJ2dnZ6amZ6bmp6enqCenaCenqKfnqKioqOioqSioaWioaalpaelpaioqKmlpKmqqaqop6urq6ysrK2srK2tra6urq+vr7GxsbOysrOzs7Swr7W0tLa2tre0s7i4t7i4uLm5ubq6uru6uru7u729vb+8vMHBwcLAv8XFxcbGxsfHx8nIyMnJycvJyMvLy87My87MzNHPztLS0tTU1NbV1dnY2Nzc3N3c293d3d7e3t/e3t/f3+Dg4OLi4ePi4uPj4uPj4+Tk5Obm5urq6e7u7u/v7/Hx8fLy8v///53YoPwAAABGdFJOUwABAgMEBQYHCAkKCwwNDg8QERITFBUWFxgZGhscHR4gISIjJCUmKCkqKy0uLzA0NTY3OTo7PUBBQ0RFSEtMTWJjfODw8vPxvSQ0AAAACXBIWXMAABcRAAAXEQHKJvM/AAASZklEQVR4Xu2diWPjxnXGSYmijvVaktfHHk423qzaOonTuqnbxEnaNElBSTRXNl1ti1pt3Uu92zS1eqVp4qC100g9kpabpIfVrtPYgv7Jvu+9B3BwkSABEqQ0v10KMwNg+Oabh8EAHAxqtfpCcSgXvwRulpPNVj+b822DdzQxJ4lszmVRMJvz8zNeFssGeZyfpWTj7PuOQwvP83YQ2HFa/o5PASFuzevn5w+wDLOhLT2n06Fdsbd/6B/LzmEOTEKbe6/yImaN03MIhDyKIEAfBxEhkY1SQBuT8bMRzs81MBKTymY8Ssrmbq22eaM4a7WaNhlFqNdqj6hdhWjUHtNQIZr9bF5SB2Y0LS+JbPSQ0LS8xLPRVqtgNpSLZKRpdDTjeHZcbRictkdthhzrftvv8ZJIWiPmaJp/euS4Dv2nfbh52EGiZmMwTBv96mA/x3fpnxFVEtkompYXIxtpaBRNy4uRDfPuWO1EIpvRDWHi2YxJs7apoUIs1RrXtc0owJPUUixqjpWzXK/VS9GmDO4u1eqJ+hYvTmPEM+mIbDXTjDGPUD3chWqNYT00TFRpjBhimJM0xulR2yitMbWCwX9tEGnRQ5BbcvwTkHJE/b44g405ITt26YNOKZMwhjP2Xe79odWX7z1AMlL8bqsd2IBt2SLfP9KUGMOq6WUy5XUNEynVhNzFmFOHe80d32nJ97BtbB0vJIaQBngjg+EOHCGlmk4pZz1pkh1el60LjBF81+lQOieaazhokG5MJhU48K/pVyf5I91iMqQaY/B3ZMFXNDxxBhvzb78tfE/jE2aYMlMFxlx97pMvzgIvfKBRK+ceSRlQd6ZWnxFj2JYVrbLKWazVGjc1XDmP1GvNuxqunE0yZkvDlZNqjDT9aegGEyLdGD1HJ6jamPsnGgAVG/Om0c2r2piHcJRdjVRszBlsoZ6wRks0JrxlajLQGLKE6ogN0gTdoM9em/qQ9AHUveR7OfS/ownBB6n8CXqbxh3cPsOMub+9/doAY/Y7x46PD3Ac3L3hO9lsjEdf7Hme9MPZGA/mHmBT39edTAZXE5nx8it9W5LGdOnr6ZvVmB2yQb42VEZFIavYmB3X7XYlgeCNDIY4MBli2JJSTcgRxiBr+kLfx2XScWBMCyrQl4tFSCJlshlijOkwRIoDn0IGKSNU4F8K/BYbQ5dydFmH6yg2Ff8FThbjIgwzhqzRAEhWU5fUCH2m/y+sJv3gm3kjUcbFetnJZKgxEZLKRI8m/IN5B2wMiSYKsDGihBoj6XGKGlMq6cZkohtMiDk25n3dYEKkGmMAEzQ4eebJmLdgzG9qZOIMNuZ35br/9zU6aYZV01SZOWNm6SKu8YEX9J5EtXzyuav1Wn3tSf2JpVqub87a7RmyZrHRXLYENJsNEWZheUO92aJsLGPo1NL6Mxq3KM+sL1Ej03xsZs4Gs8LWZjOfMB76NCPy67rvPJJbmPPs3+WymPBvZJOlBGFe0WWCyy3Ml+mQ4cGTSS6zMG9KY2LeIe5zeYXhe8PM9rYxMCHgsgojsshvG3L7PMZkhdFbbzvOIS/9djtICtclOc5cE2dcYTCQBkjLe19j/V85QA5h+N6ip0stISD7Xc/FGo/XUwJuX8t9UwFF5N1AB0NkBKzg4mtcCPahXEic5NChBON7zAPRgsMSjDc0w4XhYT64/4oi7wQDbwjc0O90guJhgU0NYXoYrdpzOt09/5hcpUMCYlusCoSh3Hu+y79gcJTijut2MKbecU45ZQBF2pig5RWSp6ZcHoOfEqTI7CBKx+m6TkQYB79CpHgMhQ5RTpdAwUmtQBgsIIzG/Na+6+lXtPTGeTaFGl/+6Ukwf0YNyNXGUKlwKKkwkAEHBh1AVEBKPKCyOgdcRufIEIZ2o/Vym5831F1FFUih0QDaItgacCaDKCbM9vY9luU1jUUZLgz/isGloKKZh5KU7igoHsePRIAALZyHYwWIa0iqriP4UFLIByXAv7sNoagwaIazur55G1/Sg5dG44uicQOEIvQ/Q4XBL20IyzqiQmGyyXUojQt0ZDkFTdMFDj4hKkwfTcpmBGFGZ5LCTBorTAYTFebbuu88kluYH341FZVAY1G+/p7uO4/kFiadr6kwOfrYc0ZBYVSXSf/IXgEFhDl5+32VhXnrYnlNQY+5uFhhMrDCZCDCLG3c0bhF+IU7G/glcnH18dvPfuw5i/KxH/vQ46uLdTyNsthcWVm1KCvLTcgC6rPypM5MQGqIKguLS3Z4TJ/m0iIPj1lY+rw2ORbhC0sYHNO4olFLwCMNOiMtX9OYJeDa8kJtYfW6xiwB11dJl7WZeTpyZri1Bl1uacwScOuK1SWNp3Pq8p7ebRkF3XUuyanLN7SoIzHPN6xy6vKl5JiXYTw4f0t3nkesLulYXdIprEvmisutC9rX6JCygMusiw69u6fRCJdYl2BE4vnLmmByeXWRwVMgZUzv5dXFlGX3vib2uay6YFI64dXtl1LG3M2iLkNHrIaMrYuOb+YmlyWKj9GcsC46XCwcIObs80hXYA4lixIdsTeIcXXRMassiza/sTG9eXTxWs4+LTD+DcsAKSz/bfOsFZ7TClIDQl1kVOehcyC6eBjqSut4RHOA6tSVLCUymDF1wWM3QGIaeSgxJYcu+2w0CifLACqhqyOUJZ0HVJpbsC6yGwiyoNAAXeSRgRY0HsqYugRtrsQ0ItOyB+TQBXa2nGNdaqUSbjhcGeWlv6SLbBUgxcU8PZiqh1ZoQl8XUp3Hw/p+b08u7E91RHwuYcY9jvTY4dPQ6xKODevNqYvnYty3RhSPpwDitgBFZV2MZ0gIKjuGf/vOod+i8tIh0oOXEaEunIxPW2Qib9l3u51Oi7IcfiiN3e4GjcruPX2oIj7aOacu4TKIANGFioMJXI9Q2K76TwjWUtGP6XPAwil9f8H2wYejBuFw3yzG1iU8epTEIOgculAbwK0mW24WG7r08CTBnnPo7KHYhw7Xfx8q+4EMGUf191zX3SFFXLevS5cWtM++xPxuxz3SByl6w5++KaBLRJjktWMOXajYfKwHumito9BOBw/TIBFxKqxD22KXAGeHVknxtLmIHUdMdJ8RKKKLIUzKJXUeXfD0BFnO1tMfU5cuNb6ciDgVdh9ChPDZhlYJlKAhJ/AXcwg8AaE0CDiPgRTSJRQm7U5DPl3o7IBZrClgWkvO4e6FxWVdkCYrAaVSUXktIQnMbOiiwmgkSg5d8NwNnjdK6NLGYURxOocQx6KLzmvNkJZyrAR70RLHEadmHEdh2EzMoqAueAw09dnhXLrAQHQqsDT7L0GTSSU8olOSy7rE25fZ1mX7QYYseXThVoJ7+EATAfXq+bUb8khSi3XBI3sGabp40lWZCV0yydO+HIqXQBXz+oiOH+rs0fmZS0B/oEukOHisk3cTuGtI/oJN2hxXzH1kU0ZTBlCtLmNz0HczwDrIeZrbJA6Ay6bLxMmvy+hYXdKxuqRjdUnnEujyh1rUkfgX3XkeyanLf/+JlnUE/uCHuvM8klMX/1v6WGeU3xMFfkmjUb6ju84leXVJ5x9El69p9AJRTBeR5QI+/lmOLnM9wjCdQrqE8yOeaMLFoYguP1BVCE25OIyvyxv/qZowfznPnbgUxtflj2Wy8oA/1+QLQrF29+JidUnH6pKO1SUdq0s69vmjdPh5tdUbP6dRi/DzN6DL8uNbz/+0vqLC8uKnfub5rSdWFmr1pUdvbn1EJm2wEB/ZuvkoZvRYWL567Sl9i4jlxo2nrl1dXuT5GRrLdj6PPivL+vqSmXnLzKygE3oQPNPJosWSCvuK4SwLi43P2clOLNl84XONRW1fMF/Qip0DxjKYR1ZkHqV6fXFpbf0JTbVY0nlifbW5SC0MdXdXHn3ig5pqsaTzwSevruBCoL6wtLpxw86SaRnMnZsba0vsL821zVt2ulnLYLZubYb+8pj1F8sQtp7evNIs01/+6Y23J8+3w4ciLNOlZH85/i8dCzNp3nlXv9EyVUr2l79GXd7/xQnzkPzlH/UbLVOlZH/hZytGfvfYqDwgf7lgY/nmBesvllGYAX+5f5b26tBBWH+pjMr9RSbvepA+v2YG1l8qo1p/2Q3mNDs/fziCl1l/qYwq/WU3+p7vs9SpatOw/lIZ1fnLLtV6nJweY/2lMqryl3sP2UEipM1snIr1l8qoxl9ePmMHiYBJjXGGSkxunMT6S2VU4S/3TW85O3nt1fsnZ5ifNmhz3pTNsplrf3FkhkHh9Mjt7GhYOcZEuPudTmxW6Z7neTL9cn72nTYmDy2T6fuLTgounPSvo00vGnJD5uL4C+aDjc43fkoJezyrnyb4p+wpmNRS9ovMQh3ByJc4xWx1rVF9bAjT9hed11kxeyz9S2sw8IZMSf7SFZVlBl9jbrtW+kFp1CEqT38i5z0k6PNcsEcI0TJr1nlahXrFpjF4jz0KdN0d+ouZhDF7KHKVSVBH8pfDMOUUU/mW9IKu6frLS7F+i/lOk1c1LWBAP6YUf+lBz539bjjXN6Kui/pyWmkvX8DM9VrdqDzZhGtFHU78hU8vtEzzF51cmOiH+mAPtDcRkv5ikJrIHKNYgQkcKcdjpt2+vBS5LjJew7AbWcH9mUxK8RccpiwhmhmZI1wERv3E+hQMXKOHlR3solvIwa4VI06gb4kY7i+0hZwtYIbE4QDY0WjLUvwF4W4Q4ES4meHkxzgVtQ2nZ48xE8Zl+v2X6H0X9YvdyHnqLD7ffoxS/AWSRk7uFJc6RhOTMiALDZKHSfvbqE6uL2mkCMmInYAjCHBSEloV1Ds8tdVDXbb0+/oOFYJ3RsT8hXeEWwaJPKd16A2JNipEjC7C9P2FOGGvyGL4fd5S/IWrxuypUFTqGLWQNoCP6tVzHVoLf5G3MmBTVJ7UJLKkVojObmFeSYKtuQ0QA5CD00V95/QXTKEPEzURXmt2bNGY9Nmha60O9YS4+1u0ianEX+KdW5MHOfYuxV/k+oGO00BCCkf8Be+vCEG9Urtz0HEOdxyPKkR6A6g37ChnJ65Z6uYcDvWXox6ahBb3jcEh5Wge/IPPR7R924UBmnh62I2cazKc4iAyT/h4VOQv4UulYhjX1wMox18ID/UdtDIUiPhL5FjHGkqnCxePXIYSeEts0uXmgdsjqVm8PkP3SHIqHWQ6m3jOvvois6dNncT610dezF+wzEY96hBNShJZWYjK/GV7+xX2EJMv5xzVUJq/ENzKsJLBMvCXBFRxtIpW01/ZUjxFvEY2oBqjLk6X2oe02uETD9E5PE1UvG6vsRC8UAJ/sXluf8nYSFYWokJ/MV9zCHL/fFSqv0gl4sRAC6mzjP6u1GWb31OlFYOQgqjULDLM8BfPaaMzqrUKdJc+EtfzEUei/hIhNZFAevT7kcnc+8v29r3whkzyZaHZlOIvaPK5jxi4R6AxpE27npZa7Ij07E/wHPQkkQ6P08rHLdp0fwGyTYDu0kfipr8I1l8EvrwefLslQSn+wgq25f4cn01oOfB+XVg92ILjqFV0O9F3RfUElc99FOsvORjdX8hjTobcbklQzvlIr4/IO+RaR2MUN6+yTSA6NSxUmVwZaEekVlC95GJh5Yd9ohinHt/AoW2kM+u6OBmiiWLQ3MlqzpA+0pB59Ad3lxNvVhzkLy3t5ApcVl1bhBnwl9Ept/8yTbj1QpvEyzjiG/gZmtsXzz0UTw5uwBm3WIRB/pKCri2C9Zepgt+aNTiQ2HgGiu3xDZcYWf6C6+nozZZjNDIaLsIk/OX8bNLMrb/MPRPxlylg/aUarL9YRsH6i2UUrL9YRqFkf/nnMd5lOBZ/+n/6jZapUrK/vPetr/7qb+TmV7Tymfd/WVNz8Dt/9q/6hZbpUrK/EP/zvdx8RV1F+AtNHc5//K9+l2XalO8v+Tl5Rz1FeFuTLTNMlf7yN+ooAV/SdMvsUqG/HH9f/STgb3WFZXapzl9+8PfqJn1+S1dZZpaK/OXdb/yV+kiUt+w5abapwl/eeGcwuX7BtVRCFf7y798czHd1O8vsUWF/1zKHWH+xjIL1F8soWH+xjMLWLesvlvyY/rJ58+4XNdliSeOLd8P38S2trD91+9kff+HFT3/msz9rsUT57Gc+/akXfuLZ20+tr7K/1BvNK5vXP/QjH/3485/4KYslxid+8vmPf/RHb19/7MqyvIB6obG8tv749advP3PnwxZLnDvP3H76+rX1tSZeJ6wvuG+uXrm6vr6xsWmxRNnYWH/06pXVprzenqmTyzQaSxZLOo0GOUs9cBeGohZLJuwktdr/A2Nuz68C/x89AAAAAElFTkSuQmCC" parent="8le9z9f76cK8EGYcwLgO-1" vertex="1">
          <mxGeometry x="357.73" y="330" width="399.29" height="90" as="geometry" />
        </mxCell>
        <mxCell id="8le9z9f76cK8EGYcwLgO-19" value="" style="pointerEvents=1;shadow=0;dashed=0;html=1;strokeColor=none;fillColor=#505050;labelPosition=center;verticalLabelPosition=bottom;verticalAlign=top;outlineConnect=0;align=center;shape=mxgraph.office.devices.cell_phone_android_proportional;" parent="8le9z9f76cK8EGYcwLgO-1" vertex="1">
          <mxGeometry x="305" y="617.63" width="30" height="54.71" as="geometry" />
        </mxCell>
        <mxCell id="8le9z9f76cK8EGYcwLgO-20" value="" style="pointerEvents=1;shadow=0;dashed=0;html=1;strokeColor=none;fillColor=#505050;labelPosition=center;verticalLabelPosition=bottom;verticalAlign=top;outlineConnect=0;align=center;shape=mxgraph.office.devices.laptop;" parent="8le9z9f76cK8EGYcwLgO-1" vertex="1">
          <mxGeometry x="230" y="623" width="75" height="43.97" as="geometry" />
        </mxCell>
        <mxCell id="8le9z9f76cK8EGYcwLgO-21" value="&lt;b&gt;&lt;font style=&quot;font-size: 15px&quot;&gt;移动终端&lt;/font&gt;&lt;/b&gt;" style="text;html=1;resizable=0;autosize=1;align=center;verticalAlign=middle;points=[];fillColor=none;strokeColor=none;rounded=0;" parent="8le9z9f76cK8EGYcwLgO-1" vertex="1">
          <mxGeometry x="239.52" y="686.97" width="80" height="20" as="geometry" />
        </mxCell>
        <mxCell id="8le9z9f76cK8EGYcwLgO-22" value="&lt;span style=&quot;font-size: 15px&quot;&gt;&lt;b&gt;SaaS应用系统&lt;/b&gt;&lt;/span&gt;" style="text;html=1;resizable=0;autosize=1;align=center;verticalAlign=middle;points=[];fillColor=none;strokeColor=none;rounded=0;" parent="8le9z9f76cK8EGYcwLgO-1" vertex="1">
          <mxGeometry x="827.81" y="686.97" width="110" height="20" as="geometry" />
        </mxCell>
        <mxCell id="8le9z9f76cK8EGYcwLgO-24" value="" style="shape=image;verticalLabelPosition=bottom;verticalAlign=top;imageAspect=0;aspect=fixed;image=data:image/png,iVBORw0KGgoAAAANSUhEUgAAAWwAAADTCAMAAAHlrekJAAAAAXNSR0IArs4c6QAAAARnQU1BAACxjwv8YQUAAAJeUExURQAAAAAAACCPz89AEN8wIP/v7++UjAAAACCXz884GN8oKAUAACCVz886FdorJQQAACCTy888GNssJPv38+eDgPGsrPjX0wMAACCWzNI5FtwtJvz19e2bmOh0cfO8vPnd2wMAACCVzdI6GNwrJfz39OuMh+ZsZ/XLyOJIQ/ri4AUAACCUzdE7F90rJ/329vbT0d87NeFGQfvo5gQAACCTzdE6GNssJvv19d83Md9EPudybgQAACCWz9I7F90tJfrh3/349vGwr/XEw/zu7O2SkfK8uQMAACCVz9I7GN0rJvfPzP339+ZoYu6gnvbHxeuMifjX1PK5tgQAACCVz9I8F90sJv749u6al+diX+RTT+uHgvzy8eNPSe2VkffJxuZfWvvn5gQAACCWztI7GN4sJfKzsP739u+invbDwuA8N+duau2PjPri4fzz8vO/vOt9eeVcV/vr6gQAACCVztM7F94sJuhqZvCppv749uE8Ne6YlP308+l5dOJKRfXEwvGkofng3+VaVOyJhfvu7edoY/fOzAMAACCVztI7GN0rJu+gnfja2P339t0tKN86NPrn5eJIQ+NWUf3y8ffU0udtaehxbd42MeFGQfO1sgQAACCVztI7F90sJvvq6f349t0tJ985NPnb2vvq6f339eFHQvClov319N0uKORUT+ZhXfnZ1/3z8udua/zy8fS9uuuIhe6bmPzx8Pzw7/ri4OdpZPS7uPzu7fnh3gQAACCVztI7GN0sJt85M+FFQONSTeVfWudrZ+l4dOuFge2RjvGrqPO4tfXEwvne3Pvq6f339hSqiXoAAAC4dFJOUwAQEBAQEB8gICAgMDAwMEBAQEBASkpMUFBQUFBXWFhbYGBgYGBkZmZqanBwcHBwdHl5eYCAgICAh4iLj4+Pj4+PkpSWnZ2fn5+fn5+kpqeoq6yvr6+vr7CxsrK0ubm5vr6/v7+/v7/AwMPDw8PDx8jLy8/Pz8/Pz8/S0tLT1dXX19jY2Nvc39/f39/f3+Hh4ePl5efp6evt7e/v7+/v7/Dw8PDw8fHx8vLz8/P09PX29vf4+fr6+vuVJ2RWAAAACXBIWXMAAA7DAAAOwwHHb6hkAAAja0lEQVR4Xu2diX8cyVWAWyMRS5a0GjmANF4OSRuOWHaASPISLC0BgiwnJARJXu6ADrIGkniRxksgEDCbSDIs4QygGSEWliPhJlyaHu+RDYSd/4p3VXdVdfU10zOSj+9na7qrq6vfvKl+VfXq8hxMyGcGThRynsjwyckwH2W5Ye9kQ46A1PhjZoS0+CfX5EA4OUz6EnylAeAfCjjZiL8hiB1AwXDXGB+YRKNL/GVX+hOO6EH6/KnoQxExbK3hLTZGphteqVFrLKro3smyHBDh12k0Fr3rI5vX8dvimQQbyWsnIoNCQiGKfAInh3IASDRBAgGRlY74k5GIgAQozkm8MPaVZhP+uuISqxQziN5E4DMmNuZAz9uR6HcoNsCnTiCqiCRxETr3PF8+NSDuHEWXmAwG+J4P8YfwD1DZoo9LmDweQKR3HN+/e7XZ/NR7KD5Hhz9Lnl/3+it0G35ZkoaTVUDAZY7O9MN/PMOofZHoGMMJCULJ32s2QZLmjeYABrkRrYQ5LJEwFmaJdCQysidBsexIxAh9YpkyIEmdTMl5EhCNDy5l+O56lNToZgSVTWOwU+MvICcR6AK9RLuNxggGnLBiMdwGXxJvEGMrOByMDx8YUKDEE/a1KxYUJNHAchF0AS7tyQETiNdoTM968/ONxiCYvVKjRFdN9cB36eMjSHTW88perQF/1gYDM6DF1sTi54dIsHeyKgfGYySSQkJZUjniD0aiIRKi4PiaHPxauqISGDMsaNRrHBMZog4HglBcRM4dnDuR2BKToABva4E/dVyx71AIGi0+IFbwD8TG6Bip1frNn2q2mi+qxH2OseXV5RRjR+1VEBuMHLPircygjYOoQeIBFMNBqHGJmKQSkkKip3KoLBBmg3QknyISEo/ES2FZYhMSVgSSolTZxA7zSWfsOBMCc9px8iikpmCdTlOPTxmBq1b1MweaZGU0AWI+Q1D2EAnMRBgdEzZZ4wthKUm/QObkk5IOWJQoBKburC5HODlRDRZJx43EYbD2Locx9FHGC2Ptq2SMD4VEEpIS51QZDilRAg14gudhJb0x3dht7JcxaAQKMttuB/dZYIJai4nBpHXsAImmmHCmDQlr9fcASSIGKXk1UMA5OVZAkBxZSCoR9qHAdoBpMxKAQWYVQWdEUtOQKwmEqeuPEQaknOCCIqgP0VkmxjhR+ODzEEkYkZD8UOKm2JKkiVzLB6YLb4ucxaQMyGXgMrRVfGqFjI7Df3+Bi3cEaxGjfIhQuicnl+QUmxotprndgsOPtSDg9m//ULN5UaJgqpT2DBz0+9AaWoJKw/oQhPT73uh6+KgpUykk44e/B6odH/zWZvPCH7U++su3PvxnrWMMlihB2vCvCn8gbT4B+qFuAkdSC+Jkg8ShlRQLx0AgaRQ6BahZU/EBiUvqklAEvpoDNOpyGKbOPIEJSt2tDYYhOc2cY+onpv+hTaiqEUmIki+AoGqfieGJhFK/bdiNI2RpdGbmmiQaIhc6Bq0Zwj851xUKSp1Simn9dQgmE/UQYKhdbuUGE5FDA7BB8U6JbMQlDcCV9muaQELSdFGO2gEdrnLooqPEU26GWk5AXvXALcE7TiW8Xc/hZBW5XleIL0eTlDSgKkISTmnuSOsqsY1hAZHlyFGz4nCtisepy0kqYVRJL8q0RCByJA6mT2lQUnIhMZjMiYfxqB0Vh8RhsiYeRpuWZNxIJAZuytLzookgqSg25ZOROEKq4LaNllSocWInbSUOr7KrfSBIOwqRELofWpSlBqp+rVRb2/fmZ2v7jRLVmyWWEN4WQUtZRcL7B0uNXa9UK49g2xhbUfMNSLdEdX6OpQg9gTaUpGX06X5on0HtHkSfLUFAaRp7U8rUnqhJNEUgkwlWhCIX1jBtjUlIVkeiBbjTxp9QVZRDxG8ahy22O22sg8ihDjZPE5BYIZDKyeo5OVG4k2Z9x7EpcTRUbtCdBnDq/oHt/BywFm23AmFOkwAgPtMrV4FBRM8m1J2omu/Gc2yios/LlXgwZ4i0TrGPoG5/hQ/DrIie/0xA4lSFmXOIja0GhM8kZXg/MyO6cKhEUgb4nJOe5JNscKrRtC9IwogE5QaqwMOYtuGTuSKJasiVfJDIRu0l6KA0kIu5WOa0Q+uHucOBXGX6tT7FJE5OzsH/IAsGbhOLe3IdqPtbW5w4+vSrXn0djxH0HVArX0Bda7+lJOVAIlDjfZ3SrpDTAdMLGMW+0cBXgOmaab/aarX+Ef0QrVffgL8Q8KHbWuJB2pj8UKWyUFnHp1RR3qo3WlnAMwbThfdfzjDt98H/j/3qceuZuy9hys1m68UX8eM8xzDSBq2Me+soer2OfyFlDckokvhFTOSbbz0Df9/3hWbz+0DuW7fut1r4Cx9xlFAn8B/Sg7RDSVH1oJUhPqP8Z6YdwzMcBX8wTttbwE4ZBRwvoF5Gg55pMFjwV3xigKTjgiMgK75flcMkJFH4YLfBDUkoiqgkO0ExCZ/sKne/loG1zUGgC9SK+OEpKfSJIXiWW2ICElQNauofkmOCk24bIzmqYxblwSC3iBwTeJ6nTRQLOy/kRKCgopA0Q6j0LwJJz0LV7TugUL8T1ILnjMo75L+5An64LgJ1myRyDJnrGVHvnpOOHERFQ8PwhA3XkBzdd1OE+7gAQj1Hut9M0NfHZOvY7CbB65fttVMupw5dlR2ipMijPrkl5afpIip7yGlm5FU4pazCD2+rNOU7EzxCXUPKOdvBkBHpZ8HD4UvLy6sbq8vXptpMKw9c+Lv0Nb24u3Y9vRlO9zvJ132VC5baLjzEXSioZr7yZhluYByimkTBNQ6GX0bLsecaDWCFXZeoBNrxQ+O97DPK2sKNJPkM7eIuxa8nlOE3md/d378OB3EE/QkFGxtK0srX2aS2GJSbIwQV2wIzC9f05EQwxrfmIN7Ppcrfwmq9lJqV82ZFjPxYb6qGNFUKMu/nKDHLyCb2xyST4GWlJ+Uvhp1wLVROAkQGxaBpDBP7gmR4nQt++duVeyx8uRVyRSGZBF/MErp/sV+jRk5meO02wTqONDZHQPTNaTiqDWI/SuiCljScOJ+WTp/eBtCQy4yUKPus8801D8WGrwIBm9grgT8GurK9xjzIO43R4BSiMZKKG8fj0jAa2IfXpOFChQIfMqHx2x0s1VDEfRRb9RcMksilRfwW8/ASzNI30HKNJOOGqy/Z20T86iEbyUZIE+A6foP9XT5pzF+HPxAyr9Sq2MdvNL8oXzfFI88ZVE7SUE2ow3S7GSrbzbT6Gm7iLaBAckS72xzIG5zN1idLlYYkkgBJkqU1RBGz23kRoB2cXW4WLI0Q77IQ94CcZcC00ZnZzCIzYHm5AFeDgsvUfGOMRJBsZO7KE6YuIXPLhim28zpX33NXYBy1bScpHabpBEbZqBVx9a79apc7w5S8aSgUd3N1PiYgetdePjrP0BjFrp0A6XZhRFINY7x9Mci4P+UOpZPU5pCjE1CuIFZ+cfT8FwFnZlE4HfNhPM5eUa3fEpBaym7e1y8PJCsJy1N7KDAekdPm6Jmbd7bz90l1AAmL0lL5H1NtGYjpeo7whNzQfUhsEJc+nSY7q8xI+wOqc8K1QxHb4RbaFoEyEjfZd8FXSECnkLxz4reRsJCkYfVupAddY8n3ab7Beih2v7/V713GfnS/AidwWe+tJqqXZyhuvb615I1uARSsEHmV1k1oKD3w+r/jPIY3m3e2t7fpm3wDdfZ/5oUXXnj5Lh41m3fh+Pd/Eo/snAJi02co9jrPjfQO+kf90dEZELsfxK77/noYG6hUuB/f81aW6ENDtWvpw676kUDN5qffpI+X/gGFvdL6SvNd97/mlWbr2yiUvkDre5977rmfpnNA7haiYvtq1MUQjTiA/+tLNLCBhzfM4OXRKh4u1IfgPkc3v3LZsPhWPUXEOGr9Cfz9zuOjVvMLrU83j15pvuf27dZ/H5PiSez/bP08fgg35HYmKvYWB6CM8I/F7ucwucLghHz44G9Z0Wa2iJaxdOQmkFG6ixS5MbPJks95wsjbvl/3MbeK2EtL3pBfrUIu9v0DjFP310ndFTg98KpL4wt8pyIUlo5M35uIkZeI/b4MYq5vhWJ3DMuqHxv5W+TIR0yBOaRydOeYjWPxven9ovktYHtDRHLB1VfNmUznpuCOkXAu7gx45y9ekHu6irTSDRe4akKY1ZOLWFgeXcUy0PgWfPFCtIjpHtJnFSligmnesU1llnw7YdWOrqG06pIt9EqdrYEJQUM+tjVj+ACBvdW5U+q7BfomjIn+KW4qiXW2yORaM8aDnDrZRNYgN8spMTXmGl9TNH3nxqbGMvgtzgp9U1LIBqye3luckbGol5HpYvd/p6jlFWI4m5KPxXRNaaQ6u3pOXH+aRWZHf28wuy2DLjVkwhw3coaqCeL9JA6dhYFeKp8Vq6ipOr4Loi+MdXpD6TRUxRdIKcYCwc9ADg+lzjBgOBBczk+NoE6erXNZdXcWN7alLQKpM79nEv9U9a2UF792TRTV8pDTU0Dl63y2WJlLOe098vx8Ha/hbySnvUbK8/zlnvxKp2O/pdDOPj4lRPR9GuWlGJH2anVS2MtZL+EHt1vgccGDd5+buLa8urGxutwTV4bMsZGz/PDtkVHFe12enMNPcdRCRuY3N9fc65XpaFUZm66MgWa4mRu1BeH4o7ThAVq9MULX2m+cvJwEmMslyHDhsowAs8dWchIxdKf95h7gY49Qw3n8+thXc/Rw6F883NuJtp670QzilOVEER1Xt2mveCAxGUzimmG7pwzpC/dCsaIsZccu+KAjcYkp56hILc8XrXBOVU6EjOPOIebk5v7+WsJCEFrukZCCoDQtM5I29DJK/KiesMUsAYXgGgXW1lDAeCNJT0DkvAhcCaaswRKH3B1FSuEi5abkrCJBxMhN7FwQ1d7L03JKhMtlq/IgUuRH7ndAjymuyOQ3XU4UIkQbSAIO6DmFVcu52iYnCpGhDSLLIofQg4rK3s60RIZ2kBQcSCuomNYbJWXXdZzrFoVsJgxNT1C31MflrDMoJbvgDRbLE0z1Q5koRy4kCRf0rE5Ky4lrhuc94g8WERSm+pN/jITJCdKakLOc9Bm9xoTdBJGyHcTD35wFXUNhoQhfLEGjp9aYHoGcMjg9uN+YL0GhuhnUvZLG7nKdsJ3qt+51DzDNthTtWFg39tfWvOsgds0rXwf5y43aPq1D502vQePHK11vjGC1qzQZTmvhRNzw4+QkO8aE0RCzma0eTwqsXS9Pgthl1DnIWd7HaUL0H5SMUfGX2MSr6oWQVJxwRTZn+9KpacQQW5kJaL7MNxZnd6dHQDRo2YxA1oCcO4sy4kysEVycj8Wel6tyWwL8PDnJhvEWrl7iSt8E5jddbK32t+jVoEW5iDOzwjl8IzyJDP7B18Ejr1EL5pMBya1lfricZEFTtXMdDAW+eYQ3C7mZpimjRsEqeqDVxfIutSHKHs7qQ2nRcvBVJnkeC+fS7CV82HeeMhRCng7sU+belR//+jzmHjjBqW98JJCJmVemRJKJg0TIXKEKMkhqU1SeHscmajmBtIX6WAo5SUNJnWHQiTw+jvmUecKSSiwsiZykQFGhWM3SNySPb5OECe9MzJhyF6LrbM5reX57pM/JYcsgJ4mImyXjqCQRoC2SbTahvJx7yynuWCkZszptAwOYn3RdAywNYy76YCBfL7OruS1nA5FtMhGLExBnC/lqxhyCiBB5SfeCMyyPhrNCyFkkV0tI5MhMbXcxx2Q+ksfEoVO+ICfZyDpZksg9NY7GAc5dM0e8ybUAvpqz/yfHghkdzZkM3Zq23BSWvzmR1Zx0PNMz8CQbJaHTC5KJ+bCqFEst46zlREhCQK8sUUAHjjen1hc9XAa75l6ROT+q1z6Um0Oy1EQG1PS4m+bgfpFUp+NpyxFISi1TcM6RkwTOGxMRdcEdC5HIlSIhMUNB6SR9qIUxgRm4KuFIJIsXlDVMSFBVunAe4eMEotNwtuUKYsndFamV3NxYczqBI9i6RvQ5TXq7IEMVrz10hxVl7bRyXU2fNJGLzKT4IDLV8NqEVUwelPAoAZHTwpww3gtIWFI3HaQ07vWV0HUu3ti+Y06R7DLcvYPS0gEHOjj/TIb5109J5B5A0qIXmQ44LILrRXTRs+nistAOHKjPKO730EnvVhYgcSGX0KeEGWScd8jIPd2HxIVGGn1KmE4OXQMJ6q7UfX/LmIXcCcqFIh8RRJ6syF02Q1WaBwwEy/F3Bhc5sWLHrdkeh9xmMIpzlw/WZwyxK7JZwVJ9qL96YM4TJypqWfyKcwqxyEsfUbst0mTHYb9BZvkMxF7CqesoKq4vUN/qV6v/h1TXK+u4okDFx1UQcC2EYMMAguTt449Is1itXp+HyKRVWuOAPpXYl4ONoqsLLL4TvMCLCUSjkLy4WwUQ6QYUSZpfxSUc/rd5bxvA86PjL8Pfl1/ANRzwvNm8j8dXfwMP5d6AqNi+/P5Do9WlUVzGAbelwLnwntdf94P1GuBU8lSM2GMxLUmSqNn8EkoNvJ3+/miz+eQHWs3mP8Hx8V/fpV0s/u3jP3H79hebz1N0uVkREbuipKhXDlYqFb9SAblGOdCfqVR5bYxx/zKc9i+tQwaKFdu5suJ5kkKWaWh+d+vJ10DR7201b/75vZfuvU67VzRJ7Put5wDVWLNK+YjYwboGvldF0eiozouB0OIfeLSCUnsQv98fwlutDTpJXFXeWP5hVXd6i/7eAbGPj49b/9d89u7dbzn+Cu0rymK/0XrxxRd/ls4RuV2I1/aSJjaH+X69XleX4RMP+U0YN3YFYXGh5Uuflrpvihjf9K/w5+i9HwRt/2Hr1eY3/v2d27d/4EdaH8Rrd5/Dv63vx78KuV1w5G02LZUhXWwyJsESIAhkcrymsg/9VShpudwxa9wiRbP5XU9/5NaVO80fhkzyufc3fxCDjt75Gmb0i/c/cevWrV+8j8dvo7iA3C5Exd7y0ZqhOKHYnHOW9GVIQMtL8PJuBXYnJKhLOdStsnZu5H7Bp1yqi43LpAAgUii2V/Vx2ZK6D58YUF2pY1xc96Pf25oZrxuZO/Qz0IHp2xYpciO3C+PyQBKVxYYMshBXP+GSp7IiES6jPYQbzWVsSFbyd0sfKoUK8Xu9JCO3hxyA0nixIyV2Z7CfgQt1OjSMSdw2SSnovhNFhYT214upA+q+KGnI6xWT/KuTIHKzjbl4TiewpMo5LJ5YOSNEkFx0fwky7s8L9EtnRs2kjWyids3uHjIuU86Ct7ITue/0YNUSllLr9pBeEqMmKPKkAe2xixd6skSddFTLGcEhptzaXl33rKblBXXeuza7Uq3piecw87tAcwErezdJlywmQ5bu/FO9WwYQkI5qe1AAhyb4A0Oj2FNxBbF2kQZNILelcA2qGB710HcWoga7yKmOXGlv7GBXCUbSO7uYtEkwOTtXu0o48CymY0zrco1Z5KD3yKuIxHfnSYSA1ble7O4Sg7kBWvRt1NAVfqZImwF1JgXPMvLszAl+mHWSXHT89umRsq2AxbD2Dp8eq1kVrdFHw2hOiYmxXFo+NfqGp+Y2dvZUOc4c7u1s9GZq+SPB8KUNU7/xHK7mHPr/mIAxc15PZh6rPB/Dbeo5ZOexxrMwZg4A7YDHCk+kLy1HH26sXrt2aWpsbHhsYmpqbm55dUPa6zHstFFfeRRwTGRU7FxLXY90Yi6yiIxw+DiDW8Ro+nBjKl/F9JLbCD3Wd8gll/XYaLsBMOEwLTun5xE5S/Q53v/EaZiZuBRV+Bnxn50i0YWAD2WKbucEDlhFMYsnPKics/PfYebpatmwi4KdB8M30QWGLVV3xVHeZxWZj2butlW90bUiTJuTj7SzlOWDjV0s5l04NR9qwpbwiNUErT6IbizvZ3LOqF1mmqD/kKCtbY50X9WIuSx/wQXx2cXM1ss9y2XGPjGFLRF3tjGqB72tixmPfgQ6eE73bQ6WukdWvb6xudiOINyV6gE37cP6dzuNJkacczCe1bkH1K9imM0s1b0yLeAUspa6j34akUZ8Jg7NJYcfBHRdJ6w0I5RNPYdEl1oplWcXd2v7+/u7a/NpqyJZbZw8PEi+LEPXKSYEVzNMINR3ycr7xG7SCyBD5tujew3dYtHbcXvJulZLtidAa6iVFuMjJiw1pNfzD1fnpsaGNXHODU9Mza3GlZtId5u7haDXQ5J1PZhhvRigtpYSL37RIdT23pyuYjfmVpUaZ92gaJ7rZBuSsr5eHmKtSaqaNcacGj/T3lq9FpBYNl4XRRXDbMmu0ECNpo31W1wjSs9ss0g32IlNmTaXns/LWuya77HYTmHgjLpYtJZy4oKl9irX3STran0akTbRWXTX6rW+xMpTB4tKtkHudfui1fTMA8R7h5axEytOuZY4LIJathU0DazsfdZ62vTs0KuaSFbs7ZeyYHVsni3TrVWekrsKelQ8mrSRuS11n6nMrZXjyfWlXpaPIe14t8zupsOz04rXrEjihLROVi/uiLZ8iYYL8+yYEk2stIEE5u52EXYXE6orNVyotr0itr0lbo3hXKdWCewbnrh07dryxs7O3iEi8gBpTpyUrA1tv1ht10re9Vo2t0qU9hYFNRryvdb2mDGH1UWaRM7qSG1tdnKaGt1OZe9uQthmGa6lvBcJ0D4Z+eGFfISeaTvrfKNE01Yy/CKbI6A+VL4skIqZnpVdm6SMSD/MWqk8DdWJMq9pXJ6cDlqGqHm+daTW2C15EHEawjapoV62frN2V0Q2ejV7UEr2zUWdBrEkVEZKvHWJAEZhcX+2PBJsgjSN9UJSNmgQLfM+LRA8XVJ+JkiCIo/QrwBXIdK8bKsDt3BC0IjBq7THjkF+Xwlj9IhIWJfom8qWoQPilW3V+kDZQUbf5JpwWZQNh6WR8iAEYgTKvKBA0B8VjtAEp1wLl/dB2VxggirpE2OX4SeEi6ayE3Y9S0G3JJn3qcnPcHJXNW4ku7q6bM4xilW2ozlDagSzMEJLXO+iHUFlwxuv72ML7E+CTiE22RW4TJkY9FsDZXPUsrLnkNWdPtw2bTaiTy3vktl2zRhADlcnnA3yvrGJubnljThlR3Rdo0oeZVPQ8OzuGumLcjYoBvNrDSPskupqg7OoXLbD1/GVwGogXFLKJo9TabA0iNFQ7ZbJ7mh7Ay03dcOQOCfRHc617wDjl92AOm0HSZeLaFBLZVDSYolyLxeBJczweK1U3kUXR2CIFkfAznBOXlMWndKYBB3v4oH967bjIAnQffWF95c5vOidzoJxvtp5qA3m2VzEpsMdMDRDUnDWHrMz9V4Bv6b9VueDdDXbbnsGbEpnujYGRxTp3ran0RU0jqJ9RRVAG10IFlpTrrhxDlZFb6cw78tpKruN3jEbrTu4KG+rNbmryEHsXJqdBpsdmhBCa0funDtXwMtu1vUKnhLuqI30hEJUbRrtkMPVdlf5Mby36aMi83IaWbvWlhvbSVI7Ov8IWGMFrm60kzqu/OVkM3UP0DykOTvzrH5izHru0oQjR3u9O9Q259nXUiCpykaWM+Vww7PVtXESpc4q24nU1qbRYds1MikbSF8dQtd1vvX/cqJ2Cy+YWgGVu9xMXIoZdpxcEdcHfXR9aHLxppt6Jk+Nc47FOBKq4rque9LxMxn0FxTAbuHmuQ0iQ2D3YmxxV11aSZTL5ZGRcj7Nm2aoRp6+s0FkYSZn5Vl7Cwq0IQMXrtzcvnPn3tG9mzeuJm8xYHUUxKM3ULpZGLaLtZCNY0aANoa9IF0PuDc7tHap1cg4cOc0SsG8mPMC7U40zYgUsi78xcRdJeP2SrCmDrjYPYt52YFule1Ba9r4wc7dKwNq/6l49L11NdJcJ9L78kBglJZ6Kaj1HHdsRDKoGolRdym+oKzNPiC5WqHbbs2UhI6+jrt7su87GrsriKsvZvNB0zSi25LAOmuew04dItmyNZO8ncnk5PTsPDA78gDZDhutjqe0rZmXDvtk8uj6dHa86TFa54AM7A1D2l14ZuD8+YEBb0BtbNkGN09l257uozVyuDgMM3vecVXnr+bd+DeJnm6O3ivsil7otsqzGF5Mq6Ujer+PftfRCkSqfcgxkL18vFC8pomHz45rnmusbsshkLWW/ZSopgvENudT6K8sLFyWHaXPFmF9G7O2HALZzMj59vYVzcZNeUgOxpfqvKsqUV+qRLZIP1XMrB3a7EyOEW2ryG6Qp1rSP1PV9azItQHvkNphv2uE+oUKiFZgyuUksrcR22Q7myXBDeeB+vrCKGlrnc8RQ9njVYhUPfCXVH4fgt+nvj7kLUHMqufN+NW0NwFjGsmOQpq+b+5WHk84ZAHsiDZ+IX2giLXtaZd4Rp6WAGmAd8gn3Mpe8eu8wzdo6IA3vK7yxtfjvrHZeAbWcVdwYKhenVFvw4p/sEXgZucxaB7XPt2opFe0c9vro+dfl6NcHKXlb1I27/BOuJQ9Wjey3wz9NlXeYN1Wdv/CVrWq9tLuH3XsUN3v0x7n43Xt2koGm6X5+YaNgT5pIxisesibX8Ld7hVfbQ68413MO94u5ubKR1ut/6KjL/6eRGv90st3Wy9QGPLqZ1+R8Ff+4MrxJyQ0tajMoOz+uh4BWJoZkigKvA8z+mW/vjA6NFTBDNpPRgJsjWlexg/qlJ8P9Ey8wj9AIpqywXJo+Twta5sZ+19ab/3Pn/7dXyC/++OfbLU++2Try/eJnwEdvwExLnz8by4+2/q5ZvP+X7aO3//8514GIPhu6zYlAPxz6wPPyKHFkTzTTQZlg1k33+5+NARWziZls8aZGf+AjUTVV9qewWJY7NFlv1LFMsAnNa/446NcZsSj+Z4gL+sDBpN71s+LHoSPvCUHyNHTrZeebD1/Ebjwtrcft1pfbh597Sufhyz6ZOtDzTdbn9SK1lDZr0uuBp62fSt35KlOMih7xme9BoxCgehS9iiWlIoD9QuNGz9VpVKl+5b8LVbuAT5ntALMrOiFRwTNP4Itdn2IX2JXjWVFbrz0H3IEXPnA8Y892Xqt+RlW3Vdfa955d+vXnuSzT73Ran2dRARCZd9vtd4ph1GSNhvPYkbg2LC9VIw5lD2uKRtuWllizF8KsjE+ruKP8xkkECa+UpcDB6HvibsLNMdrYv+BXTxufwco8q2/Aj767NPffnSEygYF/k6r9eFm8+qzZEmQpz7Z+i3U+fEryNcffQEMNPO3fxyGv9vO2klmO0sBCVlby51DdYruMiMHWkoH1usQsn6Afw+kzK34gZnBJ8XWH7U+BG406oYkwWw7fajbupvk9fty4OTzt4Ff+BU5C3mDwn894m9JckxlUTaXdSuYFUcX6hLuUjbEq2Oscfhp+g/8Kprj/ooofYGr6KPr/MP1+1WI2g8FQljTGa1rdshC82lLd4E+gTV+3FS+zoHOSc7ZdaPt51Q2UNniwLrynCxskR0YEisxTpqFgm/r4GBLWj6X8Teqr/MNaIyIJfU4fGGgjg9xg2vGIw20jB0YDX0oT2wfwoAooVekNN0r0KRYX1kYJw3FKbvLLFTD2rkTrX0e+vn0zuDYhT276O5zkFgbUYyTPTHopbLT0KrVeh42JtPEtdt7qe2jAXloBi6TsaguzSRlslNAHz5i6NQYNRXnAOyyz0/jTg5dn1X0otDqLNCHw8f3tHfQrZuDo+RxmA8GevaNVPLMTTjipnqc71KXmEZGN+sZR18V0FWhNqaLxc+sKbwOeHSk2ktHN596COwHoJuQmMaLmbnj1f3EDVFOTo6iVujoysOhXQNznnRsT7rxiwDxExEu2Ao/2n4C9ZbQmcM15ytK4w9NNrYxZyAkefdMWwI1k+RxxANPPPHEedPIutV9lKED5mHAWn4oZZsN64cBss2k1LH1/VAaCxf2Si0ZpijZuRvMdxuTyC4+dfXqjatPkXF5JIjMYMq4XaCxQZiwk+FnemTpmzIKRSTHZiD2NsTCTmHbeD889I05plrnnSc97EhDOFy+NPagb+9XAH0TMSvTXmtHNwn6Ntl7lNDXVHbQyaJakZnCj0mggEW1His8E6sd5GmTYcfqA49RHHZjt9SJS+5qyiPMRgeLpmajb8pslz5yHO6szk3k0LLn/T8hXBTwntY+iQAAAABJRU5ErkJggg==" parent="8le9z9f76cK8EGYcwLgO-1" vertex="1">
          <mxGeometry x="780" y="560.81" width="205.61" height="119.19" as="geometry" />
        </mxCell>
        <mxCell id="8le9z9f76cK8EGYcwLgO-32" value="" style="shape=image;verticalLabelPosition=bottom;verticalAlign=top;imageAspect=0;aspect=fixed;image=data:image/png,iVBORw0KGgoAAAANSUhEUgAAAPwAAAD8CAMAAAETcgnDAAAAAXNSR0IArs4c6QAAAARnQU1BAACxjwv8YQUAAACTUExURQAAACAQECAYGCUVFSQYFCMWFiMYFSIXFCIYFCQXFSMYFSMXFCMYFSIXFSMYFSMXFQQAABQQECMYFSMgIDEmJDMwMD41MkNAQExDQVJQUFpSUGJgYGhgXnJwcHZvbYGAgIN9e5GLipGPj5+amaGfn62op7Gvr7q3tsC/v8jFxdDPz9bU0+Df3+Pi4u/v7/Hx8P///4t5IxcAAAAQdFJOUwAQIDBAUGBwgI+fr7/P3+8jGoKKAAAACXBIWXMAAA7DAAAOwwHHb6hkAAAaaElEQVR4XtWdh3rkrA6GN9vSM8n2elK2pG3K/V/dQdJnW4CEwfZM8r/Ps1kPCDSYJuq8iHm1f7SNx5zX7wbgpDmEVwece8T19pGQ55fwEcjlG/sKLAI/gj7CqyOSCM8f4D4QHI9K/iwh/vT94UYcB+Spk+j9T8iL/I+Pf9JnCLx59+4H+9+Ln8AuItFHAC9ALpEA3HvILUi8JYFL+P/7F/7c0P9/IUFRhCyCf/B4DF/ykf4nBwjsDwLBrUsF/ycC4S10Ao+P7ykY/5PPJLCtYxDw6UQEwpcMAr/FTYBAcIYAScRxEOSoBcAJe4AP5J8ISEjAEXQSPxmK+0oeHx+vB4Fr/R3whfsIUiU9wRlFKrwKQyI4IgKOIpPQ/iIRidD3U/6Q6EVC+gPw6mA3RVfkFfAR4JbwtujLbB/t4SkHoQm4aODTsQVnsBJXTuEveYYPww7sKfBn+AUSX0ILGN5aYMvyVgKxN9VtrvQkQN5HfbNCpYfLEMqjCPTB4SWQw5g/C8CbmhzN39ifnLglOLlA00Ax9P6fxf/x8fRn+IrUMnQC4k8fCXqiD6Y/q5F/V6Y//w1QgxRQ/uyV+L9/fPzR+/d+PRcc/B3lzgMJAEk4IP8uAnD8HQ+BUJN2On+p/fS9f8vjPYJDQJSehn940/+4psFfa+iBtyfQe5sCVMtX8DYEyKEPHuDPZ/AU37ifZicN3AfgLsAtAZ6v8LGEtgUYuFeQ2gmK1xBxobo6AiQtIEHgTSrgQUA8AZ6mEQEgYcUAD7MkaSCWxID2UZtHLiIaRQAnCIwCcQTugsMTnJ5ITZPawvBnhvuwPgL5AC8GATJu4N99hcbgAUgggoMQPFhlAbgKkLWAxOPjGQdL1EeGnY0IBiQcwosTRDqh7kE7EPLhnAOyjYHw8O4IDuI2hOsfCA5I3VOAHeAbOAl8D5/p3/FV+EMOPx+53yBYnAO+2OP/2AGeAfV4+pH+PqLNByzOAVFj2WEIpcILcXgWfuCAeH+/2OnxKwTKiCyH68LjCxBX37/6UK8DOBiNUPhBRaAJ2lSHo5FQVH7RZsE9xg0vYSj4ixc78oHdOYGAeivia2Rrh14+Dt5VAY4AQkwXvjN9hRD+VuQRmhAH5yWkQBhBBbhVxADBXQTsgfvQC1qIdRxAoAh4BSAdg0YrMHTMCa8gIJwj4EOwYxSQ9YCUA4RGkEqdEGydRt7uHq72d97gUxNpJ96kHL1ZQpbjNiUTACIlIOkBKQ/7m2vCIN0HMkw21dEB2Rxpihm0h4r/wScA8ZThuyNICnydCOAXm+MxaDdMO67TXrCeAhBKh4dDib+DoAcGj2kSuooLqRKQREAAR4iUgSxCMnCCwBgiTLYLEBugNvjjnYgjcEA+Ow0n998BfCREvo8AWQdP4f7jex6J8dwKYA9GAiA41MNLkAA3ybAWngEJIsGlqZGZNQD5Y62dgHccXp7hwUA65wQCUQT8FFnekDaAgA4vT3AWIGxwCglYP7b5UbJCIaK+AP9Ps4bEqAELuSG8sj9LX7xDpkYCkfmG8JA5/kdIuTtlw++GHN6zAw/8CQ4Xhf8uAv2X7PILNk8X/2f5wOH2Jbw0OuIdYP0yrxg+hXivxEF8ET0H5PkJNLfpuws2K4cYwnV2VBb+mhyQvp4QjEPKbEygT2AWnh3gGSBrPSSdBMOnkI7eQbgncUwU8l9usoe6Rp9Emv4P6ZL3x37Eb/rEAfX3H0x0JfqVjcg+CQJJR+HFUoJvFF4YC5+8gInhe6GR8CLM4Xb1+CkLZgNZDteZK3DLyoABJKUj6+rv/+Aa+I2hiokxgJYHuKYM+lIkWAgvrT9cU9zwMnrlbpyfnAjc8BKIgk8KL12g2PGY1mZ3mfsDPItJMeCzwHIShINHXwAhhK5CxK4kBmMM4XflU0N4CYDg3RegCCAjuOEhj9AB+cy1uAIMohCWEIeC5af5IsLR/KQ4OZkY0w2mEBLAcTwJ3QgQ4To6A7BsfvavLg3e22DlNEinF0AgDUrBu3dfIJwDAcP8JYbBZ2QL9fRjX0s7A28CYXqGwa8fPIogpKPLjMtBc8AdPBPxANoCgi4Qc/BXpwbMwTPjL33HvIR8DDwriUeSytifzZuDOO6Oo/YJgiYwTTXGgVm457BVWFFwiHceTGfLftU1FCcKauiWaydziIgm0DdmFh9+/Lq8vXt4fLi7/HP+DY42iK4Jpw358AfNkU03MZBQOenUYzUe3+r6xQACRCDiGvLCVrUgFBG11UzNcl8A0gP5HFQdaqZKqPgCacq7qddpwELpgRKPfYiBMROigt5OAFBkAhHgGw9tIDrgTgHHSV9KOYEoAdQlwFNY4LVr4iyw+iR4CWPzjgk3nzHafs9jaYto0SDrDKJZ7pak36c7RQL2d0DkTLJhKNLut6vdAOr4+KM4GLqFK/GPQPRM1BVF2r22NZ2NueonMk2MV6DboX2oJuDEQDSDN9Q0gYCKP9BBDJYnHBgIZtQtg8ZgikwhK9wClEc2HMRyEGMbCKvQ7x/q8YlwW/jRKUwbhFZAESHZr/p2o8ZduIW7Bp6Si4EqgtXjmYBER7FkV6HWtTvU66chm2rpo2a+3xMwk/eIrwfKCD/xCDwAdwZO/buVT7qgiwtAGwWUDcD7anvgTyCgAh6gd/l7yt+BPsf1jFx6dCao7melLXk10YdQNjRNdcra0QifpDWDJOL1EZktF6CO0OuK3TrBaBsT0hvawCCHz9TC4wkEiWhfwfHxV4mZgDpCLyUPvSyCeIQelv+q1StyGKC04rGHI2agjtCmJXwDCBEBL0beDj19D7pCUll7lPcsoRn6wE/QF3hxgIeAbI0nrO4lOH8nOsuCQK+GbA7qb1jEbC+GLwd1hB7IqX4eQTS2qyYoGJYIMiRiAuqIbmcKoYYyRpsTXPHkUVSvdo1CHeHV+7yLCY548iipV9aP6vSDzYMnAv5Cu3lRAHEyquS9jkbxSYc3WHbz0E1OAMqIpMfLzbx+tW8q/Vpqhxr6coevJzEgskbyGVZ8INpGVpI+Z+OZAxQRmPPQ8yhDu1/BBPVQw4j2eCplaPrGaVcPJQyUB+DANAzvmtXrGRc90IYTo6xdid9AlsoHTtP+VWE29skmLTgyQ/VHBDmp+vcV6qNBdjr9DGcBAerVD6vtOVAfjbDzyW94CKMTafdYYe2Asw8iFqwprnhupaUGjBPP8kFhQrKRDiEXIN4OaZxFAslcauMUi0Myt1dabEhewOQJzYFkcnVsgj07RFE9kWyQTqsW1+GAsvzBtEzIpnSL712h7L8ONQKq4Taf0K5JeUdaBpgvdW9B9jgk+MXdIZld7vnhrnU/nOdpFqYtayFwCWU3etQunlrk5bCNyiWMEoipmQUXVRvfwmr2CqLBm5q11P3Fl3Az3mbV4nB3gVyuZ+vN9u7eweHq6GB/b+ft6MG05djadbJgf9JG/Ra2xpbw99f3Hl5VLuLPaWY8ttQkzDgLv4PMCBilZpNLJf2upib0askMKjeMGMzYudDR/to1rdsGEmZsGwFz2sLi5o1KWmysCNPg6vly/uf6NljBd9eXf86KRse0zs8t7x/OTdv7Nh7LKKYUQWfn2VnR7L90dtAgzmrsF1+zd+USsjFtGWBu2qndkGpu3mlpBa3K3jTgNr5AfQEwCl3zaD//ArUDjdyqnDTOTffMVBbALO1Tt3GkW2aqWqBsi1zTPGdM+/g6K/NzhvfD4TowtmU03aTavlUsAfF0jBgBkOoob86rIimBRWs46V9nZPtAUgCgySIZuywzsZVON0BXTlLsZhU6jV7AKDQ/8AeLaU+bQCf744xfdFI1zn/oi4n7mUVK3UBU/s3WB35C8Zz8FBCvYNifUalvbeYvujVrf2IdMQvQORCbNwhSR38PgoDzgyk4VStkjV9U7loq/AW0KrKtMkxkiUJrR5T4UsZffX5//HVYGLU2CwbMN4DYmaTyR4mHuMGwLUEWxOMdG4pk1ZiJ+n/oFaLEuzU+es+0FcjVHpAgEbr2RaafNuo/QTgj3U0zsosNoTTQwEAzAycGohlZGRvZyma8f71ZURV+XeftU0kBxFpPvFOLgQ4GugNwYCCYMWHzHEIqdN/bz/9oC2u5xJuvH1qIvuXXE2YQy/B3xBQYFo87dNcH7frdVxf7KsrJx/yfXjhy63zFaVsDBFbo5RZRrycMIZSD+BrJ3762/EU9PhBuwZuo3uh/oYmQso8PRG7f3U+ocArEolDTQFz29aAOIj3phRDNIB6F7nhIvWrvk107C2yaQkwa6CJIPR6J2L6cvV8qcJLv04cugqoeHgkICNOqWk66T1+1PNTt4JGAAJO2M3yfBHGlbbvPV//+9jvrIBBLBBAjiDNfNTo667PuVVfhbpdKt2EI6vCJiIN3m5kFaCOimRxt4yHgQNSCSKEc9j+K2YMPTFxs4ShAGxEVfFXy8q2KcQNGBYPP1N+ccuHirKKHnrjowJGBNsLLeoRS8F0eRC8Q/oqhS4WL/oeASMSWmDZ9o82SeCDgHTCMdwVJSIM6OOAJiISGXMAZ1AW2bfUI40BWFOd8Z+mGjjVuH9VXA6rvVbO+O1PUh6QE6yO8476CZe8rj0MiJtRsAy5xEeAdQBCHkJLQIoYi15tAaTMh7ydiaP7UaO/AVD9yLiLEFP7SSE4+025UPIGbfAgy9L2q3Tky1Vt9Dd8CQ3wMcbNAEJRXHt4Gl3MInHymsp+NAjhmBuoCK6V+GNRbqdf1XioVVSZ6ooMPrIz9QN5fwSMAfUR13iv13csZBrqS8/hAGEYKfAJQF7BfvqM+23yPcUw3yg6PLKF38A+IbEAVvcMW9Zat//1iqPF2QDDMOShr0y75lqXhqNeEgHgy6K+N0s3Onq3eGDrPVS8RE2qS0Wn1jGiWU68med5q9crMzpM/U70yuaCNeKnHl3rFKCu8M9VLrAy0EdHuAPPut4556rW5BW1EPLiHv4CAi6AvM4/VO2UvgKALMFS6gCr4NLuHRwICHQg8myjt2taihV08EulBUKvna+Z9bGbHBT9eM4XEwFhpG+VjojwbYuoZTYhE/Pt7il3orfy8CtUlRU9ukXr99hdYtxsDmghZ08cHom0ZAWMtfKpDv3vZPjv5WBC6WnyqQ8/qs/Yo85tW6qeohx6im1fERwZSVUxQr1cUu1lV/fZblu8mqIcWBtonJ79dvZ7VGxYU4MA0LCO1q9dzmsO28Wg/PiQraFYfLaZBNwEXRu0OwtV8Bml3VJTtgQYGE8pMtF8EsgHEbZCrx4MBIksWsqFZgBsz7NdAeINJ6hE/E+9ejzZkQnpp9dEqNvR2wFWA/LLqo0006db9aF9k9/oR3iD1uhlXj7gFaB2Au4DSj/AGqRf9jIOHxBWdGsm37zWuoP+ESQFSmyYjWr+2ti/EuyMRainiPYzm+QX4CVO3qdnEe7fsnVPxXjV3SW0C2sQJQF9K/Ppn7xbrSbS7R0fgD5bSn2j3T+vEpX+h9x91c4U9U4Fko+QS5S8udW7GC+nxC8QxnXTH6siZIUj1zNy6le4dHz20AbmeOQUwKXQjexUFSA4grnbUuoFQdVgBsgON5zBBlvTafdqQVkwoAfkm5eqDGpDXNO7bzN5702El60RIwxcwlNeUugHz+FXdNYsP+WsPNJ5FdQ4DjR4RsBIe7IvmE4pJ+z/gv4NrM92BSbf5xv1vxI90Fub23FMdmHhMsOIo2Cfv3PFA+4vvKbyAWiYmXbBvda5n9h3OFTngMuO9D0z9Aqtp585zpnyBRVLeYdxHUGT5y6zrX8FqTeeha44HHq3j7HnPS+9OBGK14In7Am920h5xtb+9eG4vytarN9u7h5YhoTja39t5vVR9fXq23njH5cc42F34IPcGeb0zls2V7O/8l4rC1vbEvC6xv9ambBFe7y6T2w6Hz7UQbL1eQ35b7D+zF7C1s4Ax3MLBLMt5ObbWW9J9Djd6uYzB1hK3Mszg6VrBTVXyMjNv9JjE20UK+/igvIbDjTaBtbf9xHz6cfbrujwpdvnn/EdhbsRnU/m/1XrX2Zez6/ZD1Ne/yr+7k7OB+r/dUNw/fLuce3T87lfxApmY9Rb/rdKANuLD+cyFj4hL9/qalLUNql9VWjLfqi+DaSJdhXJY8vfXeuqa929LZnhOVSU4XHpio+Zqry8L34/gkN7bYrDoTFqFHbfmLI+pqAFLTYSMz13+b8H7QCq5HasAi+T+q7G6/q1xNXExxvJ/9l16Y0n/sJl67jFS/2e1/GO/PGlfKrdRRor/dLO3XNmfONMHinbwxKpfzvZPT1XTLezlcTByhZdJMdu/PH15j9HXlqQ0Z34x259d0on4yq6YtswvZfuzKvCaQtPfkvkFi+7ZNHMWhaavdrRfKvIbOBo0B3tXElO3Je2lb9fU/+LvVO5v/l5c/Pz5/fT04nd+KUcF9qWtRM3FoYV9EOss8VenzuUxX0+Nc2sF/Mwf36vij13Xlu33P80j4RHGTzi6+Jk/MtTz076mbL+qvi3oo/ETrjYPrslbbPbctH+Yku33V9/jPP15Ax9w33g51sfaGuDO+RXW+Ny0+9dLuXhZOpy/uhkv7TmV5d+1+NzUu6ZN3e5XxT3OwdlwMz4p6YR/L6Ym3fLf45g72QXJHc3VvZh04mbabXCgqg/MN58DM/VuH9c6Ez05T6uhXxgdx2v2jB7P/QGC1rTPPgxfQ03L7zX6xkkzbzGmNe3+D9AtSvY7lgZeyc8sXa+hb027c3Ps8tT80KKX+qS7N3+DINDc1i1x1V4dc1IfVfstZxmuuY9b7Ka/CmosHqe/j6q9U+jbfnSVwRfbBCdQWcSZ4VDnjpxzLR/a52yMe5fWR5W15zT5w2Kms9eissLfX/29+Pn988f3BL7XRqjKeqfa9wv5znGW8Wvh771B+IZIxkk25m8vDlnvdPHlQn//e6O5bFI3yLW3fKGzd7q5YsZfbKo7LxJdSOXitPjS3Tlztf4IvnUYvlZOxt+A3eZJrbf7eDfjZ97UvA7o5soCdtZzX++Uei/jk1t/c2zb4yY3/U4u1OAsqUdmJKUpr6K9Z9d6GtvaUxjOEfZ/43XdNbyioe5J3ljpy9m8SAo/vGBc/N9hL2SSoWO39fbqRM3lcQWrcxjx2e30MBr2IyncGez88og3n3vodvJmP1c1VC8kvkt9PxnRFeTvcOgNxKo3mOMEcwydLWfyyrTqSz/2UeRrn9Fc87u0R7NdcpOh/3q/9lcd5pdlDzg9v72It+1UebOtn9PD4atztuEbJs2XNFmllGHurtjk2va+3d7vOAM6q8rPmp+CHc5xSOHMii+Xh1LKEEep3Dt5b1f6PWdQY41pSpkyDqdYkia9cjbFy4WjOBki1aV8Tbo52rEnsvejH94YsPZTIvZpyGy7DAekaKajX+mqSgMGzNiPjCms2T27xTt07DvDxJnc3AVOJL1dtkq5j+/7lgtMC6W+swzGFgXMrEeyYlbmBSnmLTm1Vd7tpe6HegOZoQDDQO3TXhOJh2Xr2jZefeJrJ2mc7x2PhoY1p39/r9DzPd4PBboqEof4+l/BTPzKvprGtOwrx+/G974ffhmkJ1tyu9HxW5FcVba4RuLtOn/kWLdWgze6AifI966pJJ/7bunmNHmz9ZHkdAVJYbf2B85o3urqKsv9nO/dMyMSa4Bjb9Lbc4wc80rgsnXR8dSJt6q8beHtOra9vRuhyr594sSbEzv27P2289v0zpWANYtRT5v49LJ1wZ7IemPfhOYuUFak/kkTbw/pnW0aL7z5S2+Vbnw64ykT72xZsQ+k0HZke0eGfxXmWOb/viKK485xJkVi/JCaYJd6Wqh2Fur8hflnOH3LuHPYTqnniXt7XFfcfTYzX9eAMSHaY+/Kk9NHzk6k8p4MYyr6CeEflPJwMh6r1PaodvwC3GewWheIpv8t7Izv9ic4G/Dq9tb/rdg2vC4+n1as0zr7kPt9OVOz/j+B3dQPxy2dWj/t3t1nhr1ao/fgOvuR1nioJBof12ysmohT6PU5W2/r6foOUm0o8XfOZTTR5mtnjX591X5DiXfOnCRHbJ2CP2EzWh2bSbxz6CA9XO7dsrzczw3EbCTx3oGLbN+1t9t+wiGLGjaReO+IpXGfjHfx0Xo6vA0k3ku7ebLWqfaL5v1997NwkWX8Ho4V9lo9Tgf/7si+ScZLvf0zG/jiLZyOTE/QolbdLGmMMax58M7VOml3917b/T0UtzCWeCr+yyTe698Lt3C7F+tb8/hQ3MJY4mkGbpHEu4cqSzeQ+6nPt2pAcQtjiacF1iUS72y3DWk3DhcN+KnPzlRCcQtjiaeVpvmJn36U2K/36SoOFLcwmvjQ3M9OvH93kNfWKfw77+LMx6/ztfB3LPG/Hx9vINuCSnzh+oCqmzPcE7WNv+r5FBSujKq8J9BewRJaj5ptlFuvgwsUzk/H+M1eKPubvPutiTvnOA3RdFeOX/HXOMydxYN7Zj7QeEtSqeivbZw7nYfCJTnvVtVFvqeU+c/skqRirrdmu1DM/GdU90duhWvPdqGY+c+k5b8utPCBGb/o4x6qB+u/NahMsaoHjkbs2RG849U9T2j3/Cpn+pSGLsW9TqLjaWr/dbmmB9Rh4RmMX2v+acMXhrk/zzew3KXvNbe6t5+1n8bDWGkndqe3cwaF0c7A2fqWt8DdWUXKa8cwDZS7/Z4fa3sB11UJf7eqvfevjdo73t/9WNwCuC7acIoFWniP+tv9wxtYphF8uP5SleHMwbx+fZTq7Gc+nU0vBA/XpR8+zVljpiuKV+La/DhveAm3v77VZzZYbfC3ChuKf8KnH2fnfy6vr+/uYBo/3N3eXl/++XX2raF8J6y7uKc0/6LL2th0ysGE8r8wmyztOW+a2r9lWS1jvc/iSX66bLX7NIXdZHuDJWC185Rl3WETL+BpK/kY2/YO9gU42H5GJb3A62WbgdX+q+ec3yZbb+f+fuVq/23LUstz5PX23kHTW1gd7O389/J6nJdv3m7v7OztHRwcHlH7uFodHR7s7+/t7mxvv95sgl+8+D/soODcL6rJngAAAABJRU5ErkJggg==;rounded=1;shadow=1;glass=1;sketch=0;gradientColor=none;" parent="8le9z9f76cK8EGYcwLgO-1" vertex="1">
          <mxGeometry x="460" y="629.63" width="25.37" height="25.37" as="geometry" />
        </mxCell>
        <mxCell id="U9nG9JyEE-MKVYN0Ibzq-5" style="rounded=0;orthogonalLoop=1;jettySize=auto;html=1;strokeColor=#000000;endArrow=none;endFill=0;strokeWidth=2;edgeStyle=orthogonalEdgeStyle;curved=1;" parent="8le9z9f76cK8EGYcwLgO-1" source="8le9z9f76cK8EGYcwLgO-34" edge="1">
          <mxGeometry relative="1" as="geometry">
            <mxPoint x="780" y="642" as="targetPoint" />
          </mxGeometry>
        </mxCell>
        <mxCell id="e8gKcgxvItoSALIgjx3L-2" style="edgeStyle=orthogonalEdgeStyle;rounded=0;orthogonalLoop=1;jettySize=auto;html=1;entryX=0;entryY=0.5;entryDx=0;entryDy=0;curved=1;endArrow=none;endFill=0;" edge="1" parent="8le9z9f76cK8EGYcwLgO-1" source="8le9z9f76cK8EGYcwLgO-34" target="e8gKcgxvItoSALIgjx3L-0">
          <mxGeometry relative="1" as="geometry" />
        </mxCell>
        <mxCell id="e8gKcgxvItoSALIgjx3L-3" style="edgeStyle=orthogonalEdgeStyle;rounded=0;orthogonalLoop=1;jettySize=auto;html=1;entryX=0;entryY=0.5;entryDx=0;entryDy=0;curved=1;endArrow=none;endFill=0;" edge="1" parent="8le9z9f76cK8EGYcwLgO-1" source="8le9z9f76cK8EGYcwLgO-34" target="e8gKcgxvItoSALIgjx3L-1">
          <mxGeometry relative="1" as="geometry" />
        </mxCell>
        <mxCell id="8le9z9f76cK8EGYcwLgO-34" value="" style="shape=image;verticalLabelPosition=bottom;verticalAlign=top;imageAspect=0;aspect=fixed;image=data:image/png,iVBORw0KGgoAAAANSUhEUgAAAPwAAAD8CAMAAAETcgnDAAAAAXNSR0IArs4c6QAAAARnQU1BAACxjwv8YQUAAACTUExURQAAACAQECAYGCUVFSQYFCMWFiMYFSIXFCIYFCQXFSMYFSMXFCMYFSIXFSMYFSMXFQQAABQQECMYFSMgIDEmJDMwMD41MkNAQExDQVJQUFpSUGJgYGhgXnJwcHZvbYGAgIN9e5GLipGPj5+amaGfn62op7Gvr7q3tsC/v8jFxdDPz9bU0+Df3+Pi4u/v7/Hx8P///4t5IxcAAAAQdFJOUwAQIDBAUGBwgI+fr7/P3+8jGoKKAAAACXBIWXMAAA7DAAAOwwHHb6hkAAAaaElEQVR4XtWdh3rkrA6GN9vSM8n2elK2pG3K/V/dQdJnW4CEwfZM8r/Ps1kPCDSYJuq8iHm1f7SNx5zX7wbgpDmEVwece8T19pGQ55fwEcjlG/sKLAI/gj7CqyOSCM8f4D4QHI9K/iwh/vT94UYcB+Spk+j9T8iL/I+Pf9JnCLx59+4H+9+Ln8AuItFHAC9ALpEA3HvILUi8JYFL+P/7F/7c0P9/IUFRhCyCf/B4DF/ykf4nBwjsDwLBrUsF/ycC4S10Ao+P7ykY/5PPJLCtYxDw6UQEwpcMAr/FTYBAcIYAScRxEOSoBcAJe4AP5J8ISEjAEXQSPxmK+0oeHx+vB4Fr/R3whfsIUiU9wRlFKrwKQyI4IgKOIpPQ/iIRidD3U/6Q6EVC+gPw6mA3RVfkFfAR4JbwtujLbB/t4SkHoQm4aODTsQVnsBJXTuEveYYPww7sKfBn+AUSX0ILGN5aYMvyVgKxN9VtrvQkQN5HfbNCpYfLEMqjCPTB4SWQw5g/C8CbmhzN39ifnLglOLlA00Ax9P6fxf/x8fRn+IrUMnQC4k8fCXqiD6Y/q5F/V6Y//w1QgxRQ/uyV+L9/fPzR+/d+PRcc/B3lzgMJAEk4IP8uAnD8HQ+BUJN2On+p/fS9f8vjPYJDQJSehn940/+4psFfa+iBtyfQe5sCVMtX8DYEyKEPHuDPZ/AU37ifZicN3AfgLsAtAZ6v8LGEtgUYuFeQ2gmK1xBxobo6AiQtIEHgTSrgQUA8AZ6mEQEgYcUAD7MkaSCWxID2UZtHLiIaRQAnCIwCcQTugsMTnJ5ITZPawvBnhvuwPgL5AC8GATJu4N99hcbgAUgggoMQPFhlAbgKkLWAxOPjGQdL1EeGnY0IBiQcwosTRDqh7kE7EPLhnAOyjYHw8O4IDuI2hOsfCA5I3VOAHeAbOAl8D5/p3/FV+EMOPx+53yBYnAO+2OP/2AGeAfV4+pH+PqLNByzOAVFj2WEIpcILcXgWfuCAeH+/2OnxKwTKiCyH68LjCxBX37/6UK8DOBiNUPhBRaAJ2lSHo5FQVH7RZsE9xg0vYSj4ixc78oHdOYGAeivia2Rrh14+Dt5VAY4AQkwXvjN9hRD+VuQRmhAH5yWkQBhBBbhVxADBXQTsgfvQC1qIdRxAoAh4BSAdg0YrMHTMCa8gIJwj4EOwYxSQ9YCUA4RGkEqdEGydRt7uHq72d97gUxNpJ96kHL1ZQpbjNiUTACIlIOkBKQ/7m2vCIN0HMkw21dEB2Rxpihm0h4r/wScA8ZThuyNICnydCOAXm+MxaDdMO67TXrCeAhBKh4dDib+DoAcGj2kSuooLqRKQREAAR4iUgSxCMnCCwBgiTLYLEBugNvjjnYgjcEA+Ow0n998BfCREvo8AWQdP4f7jex6J8dwKYA9GAiA41MNLkAA3ybAWngEJIsGlqZGZNQD5Y62dgHccXp7hwUA65wQCUQT8FFnekDaAgA4vT3AWIGxwCglYP7b5UbJCIaK+AP9Ps4bEqAELuSG8sj9LX7xDpkYCkfmG8JA5/kdIuTtlw++GHN6zAw/8CQ4Xhf8uAv2X7PILNk8X/2f5wOH2Jbw0OuIdYP0yrxg+hXivxEF8ET0H5PkJNLfpuws2K4cYwnV2VBb+mhyQvp4QjEPKbEygT2AWnh3gGSBrPSSdBMOnkI7eQbgncUwU8l9usoe6Rp9Emv4P6ZL3x37Eb/rEAfX3H0x0JfqVjcg+CQJJR+HFUoJvFF4YC5+8gInhe6GR8CLM4Xb1+CkLZgNZDteZK3DLyoABJKUj6+rv/+Aa+I2hiokxgJYHuKYM+lIkWAgvrT9cU9zwMnrlbpyfnAjc8BKIgk8KL12g2PGY1mZ3mfsDPItJMeCzwHIShINHXwAhhK5CxK4kBmMM4XflU0N4CYDg3RegCCAjuOEhj9AB+cy1uAIMohCWEIeC5af5IsLR/KQ4OZkY0w2mEBLAcTwJ3QgQ4To6A7BsfvavLg3e22DlNEinF0AgDUrBu3dfIJwDAcP8JYbBZ2QL9fRjX0s7A28CYXqGwa8fPIogpKPLjMtBc8AdPBPxANoCgi4Qc/BXpwbMwTPjL33HvIR8DDwriUeSytifzZuDOO6Oo/YJgiYwTTXGgVm457BVWFFwiHceTGfLftU1FCcKauiWaydziIgm0DdmFh9+/Lq8vXt4fLi7/HP+DY42iK4Jpw358AfNkU03MZBQOenUYzUe3+r6xQACRCDiGvLCVrUgFBG11UzNcl8A0gP5HFQdaqZKqPgCacq7qddpwELpgRKPfYiBMROigt5OAFBkAhHgGw9tIDrgTgHHSV9KOYEoAdQlwFNY4LVr4iyw+iR4CWPzjgk3nzHafs9jaYto0SDrDKJZ7pak36c7RQL2d0DkTLJhKNLut6vdAOr4+KM4GLqFK/GPQPRM1BVF2r22NZ2NueonMk2MV6DboX2oJuDEQDSDN9Q0gYCKP9BBDJYnHBgIZtQtg8ZgikwhK9wClEc2HMRyEGMbCKvQ7x/q8YlwW/jRKUwbhFZAESHZr/p2o8ZduIW7Bp6Si4EqgtXjmYBER7FkV6HWtTvU66chm2rpo2a+3xMwk/eIrwfKCD/xCDwAdwZO/buVT7qgiwtAGwWUDcD7anvgTyCgAh6gd/l7yt+BPsf1jFx6dCao7melLXk10YdQNjRNdcra0QifpDWDJOL1EZktF6CO0OuK3TrBaBsT0hvawCCHz9TC4wkEiWhfwfHxV4mZgDpCLyUPvSyCeIQelv+q1StyGKC04rGHI2agjtCmJXwDCBEBL0beDj19D7pCUll7lPcsoRn6wE/QF3hxgIeAbI0nrO4lOH8nOsuCQK+GbA7qb1jEbC+GLwd1hB7IqX4eQTS2qyYoGJYIMiRiAuqIbmcKoYYyRpsTXPHkUVSvdo1CHeHV+7yLCY548iipV9aP6vSDzYMnAv5Cu3lRAHEyquS9jkbxSYc3WHbz0E1OAMqIpMfLzbx+tW8q/Vpqhxr6coevJzEgskbyGVZ8INpGVpI+Z+OZAxQRmPPQ8yhDu1/BBPVQw4j2eCplaPrGaVcPJQyUB+DANAzvmtXrGRc90IYTo6xdid9AlsoHTtP+VWE29skmLTgyQ/VHBDmp+vcV6qNBdjr9DGcBAerVD6vtOVAfjbDzyW94CKMTafdYYe2Asw8iFqwprnhupaUGjBPP8kFhQrKRDiEXIN4OaZxFAslcauMUi0Myt1dabEhewOQJzYFkcnVsgj07RFE9kWyQTqsW1+GAsvzBtEzIpnSL712h7L8ONQKq4Taf0K5JeUdaBpgvdW9B9jgk+MXdIZld7vnhrnU/nOdpFqYtayFwCWU3etQunlrk5bCNyiWMEoipmQUXVRvfwmr2CqLBm5q11P3Fl3Az3mbV4nB3gVyuZ+vN9u7eweHq6GB/b+ft6MG05djadbJgf9JG/Ra2xpbw99f3Hl5VLuLPaWY8ttQkzDgLv4PMCBilZpNLJf2upib0askMKjeMGMzYudDR/to1rdsGEmZsGwFz2sLi5o1KWmysCNPg6vly/uf6NljBd9eXf86KRse0zs8t7x/OTdv7Nh7LKKYUQWfn2VnR7L90dtAgzmrsF1+zd+USsjFtGWBu2qndkGpu3mlpBa3K3jTgNr5AfQEwCl3zaD//ArUDjdyqnDTOTffMVBbALO1Tt3GkW2aqWqBsi1zTPGdM+/g6K/NzhvfD4TowtmU03aTavlUsAfF0jBgBkOoob86rIimBRWs46V9nZPtAUgCgySIZuywzsZVON0BXTlLsZhU6jV7AKDQ/8AeLaU+bQCf744xfdFI1zn/oi4n7mUVK3UBU/s3WB35C8Zz8FBCvYNifUalvbeYvujVrf2IdMQvQORCbNwhSR38PgoDzgyk4VStkjV9U7loq/AW0KrKtMkxkiUJrR5T4UsZffX5//HVYGLU2CwbMN4DYmaTyR4mHuMGwLUEWxOMdG4pk1ZiJ+n/oFaLEuzU+es+0FcjVHpAgEbr2RaafNuo/QTgj3U0zsosNoTTQwEAzAycGohlZGRvZyma8f71ZURV+XeftU0kBxFpPvFOLgQ4GugNwYCCYMWHzHEIqdN/bz/9oC2u5xJuvH1qIvuXXE2YQy/B3xBQYFo87dNcH7frdVxf7KsrJx/yfXjhy63zFaVsDBFbo5RZRrycMIZSD+BrJ3762/EU9PhBuwZuo3uh/oYmQso8PRG7f3U+ocArEolDTQFz29aAOIj3phRDNIB6F7nhIvWrvk107C2yaQkwa6CJIPR6J2L6cvV8qcJLv04cugqoeHgkICNOqWk66T1+1PNTt4JGAAJO2M3yfBHGlbbvPV//+9jvrIBBLBBAjiDNfNTo667PuVVfhbpdKt2EI6vCJiIN3m5kFaCOimRxt4yHgQNSCSKEc9j+K2YMPTFxs4ShAGxEVfFXy8q2KcQNGBYPP1N+ccuHirKKHnrjowJGBNsLLeoRS8F0eRC8Q/oqhS4WL/oeASMSWmDZ9o82SeCDgHTCMdwVJSIM6OOAJiISGXMAZ1AW2bfUI40BWFOd8Z+mGjjVuH9VXA6rvVbO+O1PUh6QE6yO8476CZe8rj0MiJtRsAy5xEeAdQBCHkJLQIoYi15tAaTMh7ydiaP7UaO/AVD9yLiLEFP7SSE4+025UPIGbfAgy9L2q3Tky1Vt9Dd8CQ3wMcbNAEJRXHt4Gl3MInHymsp+NAjhmBuoCK6V+GNRbqdf1XioVVSZ6ooMPrIz9QN5fwSMAfUR13iv13csZBrqS8/hAGEYKfAJQF7BfvqM+23yPcUw3yg6PLKF38A+IbEAVvcMW9Zat//1iqPF2QDDMOShr0y75lqXhqNeEgHgy6K+N0s3Onq3eGDrPVS8RE2qS0Wn1jGiWU68med5q9crMzpM/U70yuaCNeKnHl3rFKCu8M9VLrAy0EdHuAPPut4556rW5BW1EPLiHv4CAi6AvM4/VO2UvgKALMFS6gCr4NLuHRwICHQg8myjt2taihV08EulBUKvna+Z9bGbHBT9eM4XEwFhpG+VjojwbYuoZTYhE/Pt7il3orfy8CtUlRU9ukXr99hdYtxsDmghZ08cHom0ZAWMtfKpDv3vZPjv5WBC6WnyqQ8/qs/Yo85tW6qeohx6im1fERwZSVUxQr1cUu1lV/fZblu8mqIcWBtonJ79dvZ7VGxYU4MA0LCO1q9dzmsO28Wg/PiQraFYfLaZBNwEXRu0OwtV8Bml3VJTtgQYGE8pMtF8EsgHEbZCrx4MBIksWsqFZgBsz7NdAeINJ6hE/E+9ejzZkQnpp9dEqNvR2wFWA/LLqo0006db9aF9k9/oR3iD1uhlXj7gFaB2Au4DSj/AGqRf9jIOHxBWdGsm37zWuoP+ESQFSmyYjWr+2ti/EuyMRainiPYzm+QX4CVO3qdnEe7fsnVPxXjV3SW0C2sQJQF9K/Ppn7xbrSbS7R0fgD5bSn2j3T+vEpX+h9x91c4U9U4Fko+QS5S8udW7GC+nxC8QxnXTH6siZIUj1zNy6le4dHz20AbmeOQUwKXQjexUFSA4grnbUuoFQdVgBsgON5zBBlvTafdqQVkwoAfkm5eqDGpDXNO7bzN5702El60RIwxcwlNeUugHz+FXdNYsP+WsPNJ5FdQ4DjR4RsBIe7IvmE4pJ+z/gv4NrM92BSbf5xv1vxI90Fub23FMdmHhMsOIo2Cfv3PFA+4vvKbyAWiYmXbBvda5n9h3OFTngMuO9D0z9Aqtp585zpnyBRVLeYdxHUGT5y6zrX8FqTeeha44HHq3j7HnPS+9OBGK14In7Am920h5xtb+9eG4vytarN9u7h5YhoTja39t5vVR9fXq23njH5cc42F34IPcGeb0zls2V7O/8l4rC1vbEvC6xv9ambBFe7y6T2w6Hz7UQbL1eQ35b7D+zF7C1s4Ax3MLBLMt5ObbWW9J9Djd6uYzB1hK3Mszg6VrBTVXyMjNv9JjE20UK+/igvIbDjTaBtbf9xHz6cfbrujwpdvnn/EdhbsRnU/m/1XrX2Zez6/ZD1Ne/yr+7k7OB+r/dUNw/fLuce3T87lfxApmY9Rb/rdKANuLD+cyFj4hL9/qalLUNql9VWjLfqi+DaSJdhXJY8vfXeuqa929LZnhOVSU4XHpio+Zqry8L34/gkN7bYrDoTFqFHbfmLI+pqAFLTYSMz13+b8H7QCq5HasAi+T+q7G6/q1xNXExxvJ/9l16Y0n/sJl67jFS/2e1/GO/PGlfKrdRRor/dLO3XNmfONMHinbwxKpfzvZPT1XTLezlcTByhZdJMdu/PH15j9HXlqQ0Z34x259d0on4yq6YtswvZfuzKvCaQtPfkvkFi+7ZNHMWhaavdrRfKvIbOBo0B3tXElO3Je2lb9fU/+LvVO5v/l5c/Pz5/fT04nd+KUcF9qWtRM3FoYV9EOss8VenzuUxX0+Nc2sF/Mwf36vij13Xlu33P80j4RHGTzi6+Jk/MtTz076mbL+qvi3oo/ETrjYPrslbbPbctH+Yku33V9/jPP15Ax9w33g51sfaGuDO+RXW+Ny0+9dLuXhZOpy/uhkv7TmV5d+1+NzUu6ZN3e5XxT3OwdlwMz4p6YR/L6Ym3fLf45g72QXJHc3VvZh04mbabXCgqg/MN58DM/VuH9c6Ez05T6uhXxgdx2v2jB7P/QGC1rTPPgxfQ03L7zX6xkkzbzGmNe3+D9AtSvY7lgZeyc8sXa+hb027c3Ps8tT80KKX+qS7N3+DINDc1i1x1V4dc1IfVfstZxmuuY9b7Ka/CmosHqe/j6q9U+jbfnSVwRfbBCdQWcSZ4VDnjpxzLR/a52yMe5fWR5W15zT5w2Kms9eissLfX/29+Pn988f3BL7XRqjKeqfa9wv5znGW8Wvh771B+IZIxkk25m8vDlnvdPHlQn//e6O5bFI3yLW3fKGzd7q5YsZfbKo7LxJdSOXitPjS3Tlztf4IvnUYvlZOxt+A3eZJrbf7eDfjZ97UvA7o5soCdtZzX++Uei/jk1t/c2zb4yY3/U4u1OAsqUdmJKUpr6K9Z9d6GtvaUxjOEfZ/43XdNbyioe5J3ljpy9m8SAo/vGBc/N9hL2SSoWO39fbqRM3lcQWrcxjx2e30MBr2IyncGez88og3n3vodvJmP1c1VC8kvkt9PxnRFeTvcOgNxKo3mOMEcwydLWfyyrTqSz/2UeRrn9Fc87u0R7NdcpOh/3q/9lcd5pdlDzg9v72It+1UebOtn9PD4atztuEbJs2XNFmllGHurtjk2va+3d7vOAM6q8rPmp+CHc5xSOHMii+Xh1LKEEep3Dt5b1f6PWdQY41pSpkyDqdYkia9cjbFy4WjOBki1aV8Tbo52rEnsvejH94YsPZTIvZpyGy7DAekaKajX+mqSgMGzNiPjCms2T27xTt07DvDxJnc3AVOJL1dtkq5j+/7lgtMC6W+swzGFgXMrEeyYlbmBSnmLTm1Vd7tpe6HegOZoQDDQO3TXhOJh2Xr2jZefeJrJ2mc7x2PhoY1p39/r9DzPd4PBboqEof4+l/BTPzKvprGtOwrx+/G974ffhmkJ1tyu9HxW5FcVba4RuLtOn/kWLdWgze6AifI966pJJ/7bunmNHmz9ZHkdAVJYbf2B85o3urqKsv9nO/dMyMSa4Bjb9Lbc4wc80rgsnXR8dSJt6q8beHtOra9vRuhyr594sSbEzv27P2289v0zpWANYtRT5v49LJ1wZ7IemPfhOYuUFak/kkTbw/pnW0aL7z5S2+Vbnw64ykT72xZsQ+k0HZke0eGfxXmWOb/viKK485xJkVi/JCaYJd6Wqh2Fur8hflnOH3LuHPYTqnniXt7XFfcfTYzX9eAMSHaY+/Kk9NHzk6k8p4MYyr6CeEflPJwMh6r1PaodvwC3GewWheIpv8t7Izv9ic4G/Dq9tb/rdg2vC4+n1as0zr7kPt9OVOz/j+B3dQPxy2dWj/t3t1nhr1ao/fgOvuR1nioJBof12ysmohT6PU5W2/r6foOUm0o8XfOZTTR5mtnjX591X5DiXfOnCRHbJ2CP2EzWh2bSbxz6CA9XO7dsrzczw3EbCTx3oGLbN+1t9t+wiGLGjaReO+IpXGfjHfx0Xo6vA0k3ku7ebLWqfaL5v1997NwkWX8Ho4V9lo9Tgf/7si+ScZLvf0zG/jiLZyOTE/QolbdLGmMMax58M7VOml3917b/T0UtzCWeCr+yyTe698Lt3C7F+tb8/hQ3MJY4mkGbpHEu4cqSzeQ+6nPt2pAcQtjiacF1iUS72y3DWk3DhcN+KnPzlRCcQtjiaeVpvmJn36U2K/36SoOFLcwmvjQ3M9OvH93kNfWKfw77+LMx6/ztfB3LPG/Hx9vINuCSnzh+oCqmzPcE7WNv+r5FBSujKq8J9BewRJaj5ptlFuvgwsUzk/H+M1eKPubvPutiTvnOA3RdFeOX/HXOMydxYN7Zj7QeEtSqeivbZw7nYfCJTnvVtVFvqeU+c/skqRirrdmu1DM/GdU90duhWvPdqGY+c+k5b8utPCBGb/o4x6qB+u/NahMsaoHjkbs2RG849U9T2j3/Cpn+pSGLsW9TqLjaWr/dbmmB9Rh4RmMX2v+acMXhrk/zzew3KXvNbe6t5+1n8bDWGkndqe3cwaF0c7A2fqWt8DdWUXKa8cwDZS7/Z4fa3sB11UJf7eqvfevjdo73t/9WNwCuC7acIoFWniP+tv9wxtYphF8uP5SleHMwbx+fZTq7Gc+nU0vBA/XpR8+zVljpiuKV+La/DhveAm3v77VZzZYbfC3ChuKf8KnH2fnfy6vr+/uYBo/3N3eXl/++XX2raF8J6y7uKc0/6LL2th0ysGE8r8wmyztOW+a2r9lWS1jvc/iSX66bLX7NIXdZHuDJWC185Rl3WETL+BpK/kY2/YO9gU42H5GJb3A62WbgdX+q+ec3yZbb+f+fuVq/23LUstz5PX23kHTW1gd7O389/J6nJdv3m7v7OztHRwcHlH7uFodHR7s7+/t7mxvv95sgl+8+D/soODcL6rJngAAAABJRU5ErkJggg==;rounded=1;shadow=1;glass=1;sketch=0;gradientColor=none;" parent="8le9z9f76cK8EGYcwLgO-1" vertex="1">
          <mxGeometry x="626.88" y="629.63" width="25.37" height="25.37" as="geometry" />
        </mxCell>
        <mxCell id="U9nG9JyEE-MKVYN0Ibzq-3" value="" style="shape=image;verticalLabelPosition=bottom;verticalAlign=top;imageAspect=0;aspect=fixed;image=data:image/png,iVBORw0KGgoAAAANSUhEUgAAAZwAAAG5CAYAAAC6IIK8AAAAAXNSR0IArs4c6QAAAARnQU1BAACxjwv8YQUAAAAJcEhZcwAAFxEAABcRAcom8z8AAGVXSURBVHhe7b0JuFxVlfZfufNNCNiMKokG6UQG6YCKEhFQJummmRpUEPBrhUYwQBs/1KAQkUEUaLEFBUHABqPipzI1fwYhMhpmiDGAiUCEIIZAgECSO+e/33P2W3fVzql7q25Np6re3/OsZ6/aVbmpOmfv9Z691z77ZIQQQgghhBBCCCGEEEIIIYQQQgghhBBCCCGEEEIIIYQQQgghhBBCCCGEEEIIIYQQQgghhBBCCCGEEEIIIYQQQgghhBBCCCGEEEIIIYQQQgghhBBCCCGEEEIIIYQQQgghhBBCCCGEEEIIIYQQQgghhBBCCCGEEEIIIYQQQgghhBBCCCGEEEIIIYQQQghRj4zzpRAiJm19Yp0vhah7JDiiWSm07VerjxQiLBIfUddIcESzkdTmR+oHaRCcsb4nRKqQ4IhGJV/bZn3S+7Yun18prHAU65OkOiFSQzU6khCVotD2myQeYQlCf7TPlEqSgBRbAuvno5DPCFFRytl5hKgUSe202Dpb0kBYD0byifWLIQz8VkBoYDTfvralJakOFPNZIcrGWDuNEJUiX5sM6/MF/yQfJQ20OLOvk/x8Zglfj0YY1PkaZT4DYd2QM2DrSCk+SaoTomSK7TBClJN87c/W0x+pLOQ9KzLFWPjviPULJQzkeF2sQWyS6mFgpLKQzxDrW/LVCzEqY+k0QpRCUptLCuRJZT4Do9VTOMJyJAs/C1gC6xdCGKzx2lqSmIR1eD2S6MBAIXXWQL6ShK9BUp0QiRTbYYQYC2E7C4N3UhkaCEVitNfWrHjYz8EHfM26pBJGrF8MNkDDt2aFZCTxKUR0aCP9nfA1sPUgXwny+UIkMtZOI0QhJAVolKE/muUTAJQ0W5/0WfpJ9TCQVB++hpUDBGgG6ZHEI5842PrRPjNSGdYVaiAsgfWFyKFcnUcIkNSeWMdgnWQ2qIeCgDL0R7N8fycqzzjjjPeuW7duHGxoaGjc29/+9g1cfYav7Xsf/ehHp8Pn+yjLxbhx47LB+emnn/4LXre0tER1K1eufBNla2srhCDz8ssvv4n3Ye77/9lV4XOhSFjxCH1r+epp4d8L/SQDLC1JdaJJafWlEKWAQMxgTB9GAQgN7a7NlLB2bx3GOr1Z31pXQt1o1rHzzjtv0dfX1w4bGBho6+zsHA+/v7+/Da9h9CdNmvQOJzwtsMHBwVb65TD79/7+97+v8v93K+rffPPNIf89ou/42muvrcN3gv3hD394y/2O8FjBWGePJf18xuMfGs5NaDx/9hyDpDLJF00OGpEQYyVfYEFpBYZmg5cNbgh8YdCERQLhy9Cs2Fg/3+ez9v73v39zBnKUXV1d3T7YZwM8DIF/8uTJbw/FoRL20ksvvYn/A4b/e9WqVevoo3z99dcz/F4PPfTQavc7eIxo4TEs1Hj8eS7sueG5sueQ55bn257z0Ur6oklBYxKiWGzwQGkDEY3BygYxBjkbKBNFwRlEJGkEk/Rv7N+kb0sYg2jbjjvuuKkL8hCQSES6u7u7vKBkRWXdunUoW6dMmbK5f52daiuzRf/X8uXLV6Hk/7969epB/P8wfDc34hmg/+ijj2K6jcfUWliX87v96ySznw1La/j79hwnGdsGDeQrRZOhEy+KwbYXGzxoDDhhEIIhWIXGIGYDGsvWD33oQxsiyPqgPO6II474RwRj917GBd6W3Xbb7Z9Qj9eTJk16D0qAus0333yKfxmxwQYbbOrdhuOtt956xbsRbnT0snczf/nLX/7E3A9eP/XUU8/wNfJFF1988RPOH4I98sgjb7iPDDpDvgYlbSDw+ZolP4+SuR6b87E+YAmsLxqcqPMKkQcrJtZCEYFI8IqYIw2OPjBK6Q5sfCHW19fX3d/f3+Wtu6enp7O3t7cDpXuvA1f7AwMDre69NggRDWLk/n0WilKjEv4+HAPUwXh8YDheOH4wHD+U/th2uc/hPOG4T/CltaQ6nkeUHI1yRMo2YEdJbCtsO7Y90USDk9MxhfCEAcAGBQYMGMWGghOKTZLIMHiFZWgQm/HOkF+BdSFIwlwdEvxRkh9B1AtNtKoMxmBLc3+r4Ql/M0WHxwcljpc7jlGeyh3HyFw9xAbH2p4re75o9jzBTzp/oeiE03JWcGC2XQH7mnWigdBJFRbbHuiz81uzQQPGq1crQAwwOf6ZZ565jQt02RHJwQcfvJsPjNHr7bff/sN47T6b2WSTTd6NUlSHV1999a8oOf22dOnSaDqupaUFU27r7rjjjvuwTLutrW3wxBNPfMR9JJxeC32+pnHqDX/fTrNZAyxJ+FrUKQgWorkJxQSWT1AgHLhqtaMZO50SXh3zSjhrb731VvfatWu7aLjqxpU2rrydIV/TVCOTNMHjbkZHLTgnHBlxStOdN4xgEs+vM557GNpCOOpByTZkL0ZobHNsi8D6oo7BiRXNS9ihYezwMIoMLUlsEEAoNjbYhBYFIxe0ulzQQuCKzAezKBeDaR8GPZj7vKgi9tjDcD5oOD+YzoTo4ELBfdye1yTBYXuwogNj24GFomPbHsy2S2B9UYfgpIrmw3Zkmr3KpLgwMFBUYKGwJAUba/g8g06U7Ie5AIb8gc3BRCahSQc4Dzwf9N05y96n5D5i2wTbhW0bbA/52kdOu3AWipBtj1aAANusqDN00poLe77ZaWns1DTb2RkAbAmLgsOxxx47GcKB0QrK2bNnH8Zg5V63bLvtth+ikDTy8uRmwl00rPFuxB//+MffI7/DnM/cuXNvRa4HduaZZz7pPhLmdcLXrGOeByUNORyb8wFhKeoABBPR+FBUQCguFBCOaEYazcBwpYq9x2DRVeuaNWu6Yb29vVhJ1okrYGfRNIxGLY0JRz7+ZbQUm+fcWRumS/30G9qTHeWw3VgLRzx21BNOu/EiCMZ2rfZVJ+CkicbFdkbbOZPEJhQcBgArNLD1AgaExhqCDkY6nC5jcJLwNB48rzjPPOc4/15wumDuY7b9JBnbGIyikzTNBssnNmpbdYAEpzEJOyI7KK8QYVZkYLyyTBKZMDhQjKJ/40c1yMvgZsx2BB8KDUr3GdHg2PMNc+0gWtmGfJ17O99FTNjO+JqfYxuzox0Y2zDFh+3btnuRQnRyGg97Tm0ntJ0TximKcIRDnxZdWV555ZW7uyCS3cTyoIMOOsDVR1e4W2655bbwhUjilVdeeZ739qC87bbb/hd5HuR3UP7bv/3bLe6tfmfI4diSZuthzPnYXA/zOzano/xOykDgEY0BhQWEAsMrQoqLHdXYq0mYvfLMXnH2+i1RsDAAxqtZlO59IfKCNkJDm8HIB6vd2KbcR/K1OxjeYztNGu3wwgntnO3e9gO1zxSBkyPqH9vBKDKwJJEJpzfY2e2Uhu3okfUN35wZmQ0i7n0hRsS2Fdd+ojyPz/egfbKdsS2yhIXTuGyXVniiUbgzCU/K0Umob+z5Y6eCJYkOSl4VWqMQtd9www3/itELgsG//uu/HuHqokCBUsuZRaXgbteYbnvsscfmYZoNS6xRnnTSSde2tbX1u9cD7e3t/fPmzXvVfbTPGabYWCZNs4VTbGEpagACkqg/rLhYgaG4wCgmuBKE2SvExKtHjGJ4L41GL6LaoL3hYgejHk7dOsPKx/HOsFu4bbu2PdvRjh31oD9w1AOzfUbUAAlOfWE7C30rNrRQcMIpiySj4ES7CLvXOXPveC1EJbDtzE+z2Z2to0dUuDaJPGJOe/XGtj3SFFuS2FhfVAkJTv1gO4oVGXaufAKTJDK2s+LzUWdFZ3emLWZEzUDbo0F4XHvEcnssu8e+e2in+do0zbZr9AdYPgECKNXWq4QOdH0Qdg52Gpod2VB8aOx07XPnzt3TXzlG0xZHHXXUsa5eeRqRWtzIJmcLneuuu+4n3DLn4IMP/l9XhTxOUk4nXEaNErkd+MjjhFvlAOV3KgyClUgvFBgrMlZcwlFNvqu/qA5LUDFd5ixa3sxpDPdeVnSESBO2jQLXbqMpX9eW0fbD9p50A6kd7eDfhCMdGP+++kCFwcEW6cR2AhoFp1Cxyel8EByYH+Xgb6zXoYVII2yjrt1Go3PfftHubVtPEhyKDsyKDswKDvuA9UWZkeCkj6TGb4UGNpLYJHW4qNPhypCdlSvRXL0QdQHaK3M7XnDQ/mG2/Sf1AQpOONKxokOzfU+UGR3UdGEbO40dIRQcik6OnXrqqdtxBANRmT179n+4+qizagsa0Ujw/h2Ae3guvPDCH7S2tg62t7fjnp2BL33pS3gMNvI6vUGJ/I7N8TC3M9L9O6IMIJCJdFCI2Iw0sokMW8L39vZGDzpDyatCjWZEo4E2zXaNEm0ehj4Ac9W2f9APRzow9C8Y+xv7H7C+KBEJTu1hg7aWT2RCoVmvM0FkkFh1Ixzs2qxHNouGh20bI3rX7qPRPaaPXRWn0vL2F2dJ4pNPeESJ6CDWlrAxs5FTcJJEJ0d8HnzwwWNcB8s+e2aPPfb4pKsXoi55YtkfvBez46SPeK94Fi1adDe3yTn88MN/1N7e3tvR0dHryr7f//73mI7D9BotXEaN6TVNsZUZBDZRGyAsFJckgYHlG9HwKq2L+RqIDszVCSEcuADjIgPcQOr6Ch4IZ7fIsf0K/QwXcxztoB+iP/EikBeF1hdFIsGpPmyw1pIEJ2ck48x2jmwn8dMI0egG5uqEEA5MtRnRiXYrcBZtk+Pezrlw84a+liQ4NPZXYH1RIApQ1SVsrDj+Vmh4hUWRCYXGdoyoc1ixUZ5GiGGYu/SGVZvRNjlupBNexNnRDvsXhYfikyQ6QH2uCHSwqgePNRssGzDFhsZGnhWfM888c/uenp5olwAsCJgzZ84sdqRNN930Xe4zQjQE8xbf6L2YPacd6L3S6O3tXcunjoILLrjgHGyP09HR0Q+bOXPmA64ay6a5dJpm8zphbgcot1MECHii8lixCYXGCgxHMDlXXmvWrMHqs2jJJwSHYuPeE0IUiO0z6Eu4gEO/Wrt2LUY0OX3OGfuiHe2gv3JGAn0Yf8/2bTEKEpzKwgYJo9CEYmOFBsa55ewwH/cUmOXO0R5orj6nAwkhRod9hkuoKTquyoqN7X/5RId9mf0bqD+OAg6YqCy2MeYTHHuFRcsKDkc2roO0u46Ss+mmEKI40HcgNuhT7FuuGsIS9kGYFZwk0UE/pAH1yxHQwakMtvHR2EDRWGFswGjM1jquv/767KOesRjgsMMO+5yrz16ddXZ2oiMIUZcsX7XMezFbbDjJe5nM1Y9c7L2Yz37wRO9Vlrvvvvv/+Xt2Bnfdddf/cVV2O5wwt8OtcZDT4dY49p4doJxOAhrhVA4rNiONbMIrK2xPE80v4yoMpUY0QlQWXOD5izz0z3yjnexFoTP0YfRnmh3tAPXXBCQ45YUNjjaSyLBR06d1Yn7Z3l/j6oQQFQQXdP5+HfTXpH5Ki/qoMTvFZoUHMA4Ijw5G+bCNjI0uSXDCxhz5f/7zn7/mRCa6n2b77bffw9UJ0ZDc/OQvvRez/3aHey+TuXT+ed6LOX7GV71XPV588cWnsIQa1tLSsu5f/uVf5mBbHGyJg61x5s2bt8J9zE65YVqNU2xcOq3ptQR09VweIC4UGFrSyAYWXi1FosPRjEY0QtQWTmH7UQ8WGGCKGzsUYBd29mE70kH/zjfSoQmHgltp2AZFyyc2FBeYFRtYB4f0KN1rIUSNsIIDGxwcxDR3di8295GwD3PmAn0ehhhAY39Wv3ZIcMaObUg0Xt0kjWzYSGk5jZViA3OvhRA1hH3RzzpwW5wOlO5t9l32Y45yYHakQ8EJrWlp6h8/RuwxYwPi1QwFB40uR3D22GOPzdwVEobm0dXSnXfeeT4bNUxb1IhGJXzkQIh9BMFJN0cPqM1y0f6Xe692vPLKK88zp4PX55xzzgXYDqezs7PvW9/61kJX1eMsXDrNLXGQz0Fehzmdps7raIQzdpLEJt80Gm7exG4B3e4qCTsGdNkRDcx9RgiRQmw/hbm+jKfpRubetjMWI410YIwZoCn7vASncNhYaKHQwKzQsCFGOwa4Rtrth+WdTmzQGLMNGb4QIr1YwXF9GPfHUXCyF5XG8JrCw9gg0XFIcMYGGw0bERpUOLKxDbDbjWo4skG+RjdzClFnsL86wYl2bYfouJfs67aMptGdISaMNtJpKhTwRofHiCUbDBoQRzdoeGhYFJuo0R111FFT0CjRQC+//PLTrMgoZyOahfDemn//4Enei+lqR5yOSWMOJ8SNbLKPOpg1axbu0cEjDvqQ0zn77LP/hI84Y17H3qsDa+p7dRA8ReFALGA4bhQbXsVYsYF1u4aJUQ2WU0bLnq2594UQdQr7sLuYjDYBRV/Hru6uiqOc6KLTGafWNNJxSHBGho0BJRsJhYZiw2H1egahwehmcHBQU2hCNBjoz65vR/uvwcwUG81OsVnRgYWiQ2toFADzw2PDhsAGEopNdmRz5pln7oCHObmGF83v4qmCrj7CDbmxeECIpuCvKxd7L5P57aKfey9m1m5neG99wim103b7pvdi7M7SacBOr4GvfOUrX8cUG6bXuru7e08//fSkZdN2t+lwp+mGnlpDABX5CcXGTqPliA0MYoOVKxAbDLNdnVaiCdHg2P6Nfu+n2PgkUcYH+E0/0pHgJGNPPBtE3pENDSMbNDYMr4eGhiBOQogmgKIzODjYakXHVdkYYUUHxpjCvA5jDmDZUEhw1ocnHUaxQYOAWbGhZRsTRzaY10XD08hGiOYB/d33/ezTRF21FZwoTnjDe4gnjC2MNYw9DYkCYi482TA2AF6BsIGw0XSdddZZUc6G02g2Z4PGpydzimblNwuu9F4m8w/dm3ovZs9pB3pvfcIczikzvuK9mHdvPM176WSknE5XV1ffnDlzmNOxy6ZHyumAhsnrIKCKGAoNoODYkQ0sZ1SzZs2aLuVshBAW2/850knI6fDClRey+abWGgoJTgxPLkorNGgEnEKzDSUy15CUsxFCrAdFB9NriA9eeDhDYi1JdGCMRShpdY8EZxieVAoOTj4aAQWHopO9sQuNCKacjRAiBPEAccEJDkc5NoYk3aMDQ+xBDKLYNBQKkMNCA+PVBUc2MDaKrl133XUz13DwdE5Yx/z58/+bIoNy4sSJm8AXotl4Y+2r3os5bd5s741+L429Z+eC+ed7L2bmB2d6L2abLXb0Xn0Q5nROOeWUbzCnc+6552IbnLXOkM9BaXM63AbH5nRAXedzmn2EQ8Gl4OQb3URXJa7xdHmxiZ5pY8UGpRBChNj4YHM67mU0U+IMMcaOdDi1Zkc6/Bt1HWuaWXDsCYRRbGBJU2mRyBixQaOQ2AghRgVxAuZiRzan46rtDEpTiE6zBkt74mCh0PDKo/ujH/3o5u6KBPmaLj2lU4hk7DJo8OSrT3svkzl9z9zdokNGmlI7ZOoB3osZaUl1PeBiyRrvZo444oiT29vbsQVOT1dXV++ll176rKvm1Bqn1+yTQ+1y6bqcWmvGEU4oNryCgOBwKi07wnFCgyXPGNVkN+CkufeFEKJgbNzwsSWaXvNTbOEoB9ZQo5xmExx7smA8kRAaik3OiXfD3w6ITSg47j0hhCgaxg/cSuHiC1a6dvhHG4SWJDyMXaDu4lAzCY49STCKTTidRotOOvI1eEKnntIphCgXiCPI58AoOq4aMWekRQThaAfUVTxqluBpTw6MJ40jG4pMlLextnTp0m85sWmBbb311h9wdaKJeGrhE96LWbVqlfdi/vbiC96L+fvfXvRecWwwcUPvxUzbZjvvrc+Hd93de7VjpGXQYL+t9vJeJrP/dod7L5lmyuFYXnnlledRYtk0bO+99z6lra2tt7OzEzmdnjvuuGOFe9tugQOzTwytu+XSCLrNQig2uFrIN5WWvcKg2DijaAkhRMnY2RL4bqQTrYLFvX49PT0jjXQQvxjP6iouNYPg8ITw5FixwUnkSeXKtJyTjIYAsdFUmhCi3CCuMLa4OBPlirFIyU+xMR7Bt6LDi2Ybk+oiPjWD4ACcDFgoNjiJodigzJ5gCY0QopJQdJzgIKcTLVKC6Li3bGxiTELsCkWnbmJUowdTngwYhCYUG55MWLS30fz5849xJxuJvFZMpe21117/5upFnbHqjde9F/PQ/Hu9l8k89vDD3otZ8OST3otZ+tJy79UHU96xhfditn738O1hO70/N+248y67ei9m0rumeK84wvtu7lo233sxdjub0R4L/fTy4TzZDx/5ofdiGjmHE7JkyZLHWltbh1paWoaQ05kyZcpprprb3tD4aIOk7W9AqnM5jTzCoZhScMLRDa8geBUR+RQamqsTQoiq4EY3UdzxMyuISbgwZpyKZl28IY4hntXVKKfRA6oVGys4HJ5asUGJ4SzWxkeio+k0IUS1YLzx02uIV6HY0ELBgTHWpTpmNWpAtQefQpM0jTZ+7ty5+/b19UXPH4fQzJw586uuXtQB1/1qrvcymXvuvcd7MQ8tzJ0mE8nY6bjDDjnEezF7fWJ/78W8Nviy99Zfvrx59z94L2a07Wws8xbf6D13Tpfc5L2YnbeY7r2Yz37wRO81PjfddNP/tLe3D7S1tQ3ss88+aOyYUsPWODAul+bUGgzTaameWkMwbmQoODBcEXA6LXvlgHwNDaMbVyeEEDUHoxxcBPu4ZEc4sJFGOYBlqmhEweFBp+E34qRQbKzgYC+jaPdWnFwJjhAiLSAm+biEGBYKDmw00UkdjSY49kCHYgNb76RBbHgV4edNhRCi5jCX4y+EeaFsjYJD0QnFJnXCk7ovVCI84DCcABhPDrerGT9jxozNe3t7xzuh6Xz44YevcHXZhF1nZyc+I2qEXc4896rLvBdz2113ey9mxeu528yI8jKhC5MAw+x24vAS65fHrfRejN3KBoy2nY1lpBzO9htP9V7M8TOaM8U6c+bMUzo6OvrwGIMJEyasPf300//oqpnLYT4n36MMUkMjXdFbscHv4ugGhiuA7BVCf38/tqxBzgZ1QgiRajDKwWwMUgDuYtmOduBzpINYh7hnYyEsNTSK4NiDCt+KDU9I1iA0MDeqwUnKjm6EECKNuBgVTa1BdLCq1lVBbLhcmrGNomOFB6QmvjWK4AAKDQ0HHScAxquByDC6geEkSmyEEGkHYmNGORQcmL1Hh6LDGIjYlirRaYRgy4MKs0KDg4+TgfttkJeZ4Gw8/Oeee+5Mn4xrmTp16vtdnagRl3w/936N62693XuZzOoeTEuLWvGO6Zt5L+Yd+27ivfU5e8/veC9mo+78nw25+pGLvZfJPLx8gfdilMOJWbFixQt8jAFsk002Od5Vc7sb5HK47Q3vzYGFjzGoeT4HAbqeoWDmExyKTs7QE6MajWyEEHWMHeFY4yjHTqtZqyn1LDg8eDyQ+C1WcHhCQtMjB4QQdQcvlH3c4sU0YhrFJhvjnIWiQ2oa8+pZcAAOHoxiY0c29kTwZEQnQkIjhKhHjOAw1oVxDsYYiM8wNjJW1pR6Dbz83jyQ+fI2kf30pz/dxy8njG70/M///M8vu3pRJR68f3ifs3PP/673YnQvTXpo7UR3GmaXE3fwXszaluGcWjlzK5fOH87jLVq5xHsxyuEkc+edd/62ra1tsLW1dRD7re2yyy6Xu2qbz4HhhOGx1MjnII+DnE5Nczm5Lay+oGLjN0BwYFR2Di0jxef2NVjlgcUCrk4IIeoWjHKw6AnxzMU2xD7EOsa87GyOM8ZGxktaTajH4BseOAoODi4sR2zg++WE2efcuDohhKhbGMsQ1xDfXJUVGwoODO8h5sEYMwHLqlKT/7REeNAoNDzYsGgK7eMf//jmPT093dq+pjacd9Yc78XccOfvvSfSzPYH/KP3Yjq3wfVbMsdM/5z3Ynac9BHvFc/s207yXiazegAre4fRlFphHHLIIV/o6Ojo6erq6rn66qufcVV8jAGn1vgYg5ouk663q32KTSg6zN9E02nYugbmrgCiGzxdnRBCNCwY5TizN4UyHiL+8cKccbNm1JvgECs2oeC046C7gx8ZBUcr04QQjQrEBjYwMJATC72hDvESRtGhVZV6Ehx7kHjwIDY8qJxWw0o0bV8jhGgaEOec4ESjHPcyFBsa4qUVHVDV2FhPgZgHCQeMBxACg0QZl0Bj65rxCxYs+BKU3lm0UGCXXXb5hKsXZWTZ80u9l8l87WuneC9m6UvLvVefbPa2Db2XyWw1eZL3YqZtvbX3YqZus633YiZO3Mh7pfHYww94L+alv//de5nMM3993nsxpRzvrk1xB0HMdp+b4r1kJrQNf/Y7n7jIe6Vz0s3/4b31UQ6nMJYtW/Z0S0vLELa9eec73/l/XRVyN6u92WXSSbkcUJV8Tr2McCg2FBwaRCcc4WAqDUofjWw0uhFCNAMm3vGCnHHRjnbCUU5V42O9CA7hAcL3Zu4GlhUblDzw5gQIIUTDEsQ7ik1ojJe8YLexsSpxsh4EhwcCJQ+UFRt7QCE6SJ5pdCOEaFaS4iL9JNGpWpysh4DMA2KFhjd1Rjkb2Gc+85mt+/r6OmE33HDDJa5OlJGnFj7hvZj//Mpw3qYeHiOw/dbD+Yl//sR+3ovZeZddvRcz6V0j5zLShn0sN7jztpu9l8k8/tij3ou584GHvRfzkZOney+T6ekc+Tzax0gX8wjpkL+uXOy9mAvmn++99VEOp3jOOOOMb7W1tQ3gcdTd3d29J5544h9ctX2EAYyPMGAuBwYqmstBEE8zFJtQdNYb4QzEiwSwMg3vCSFEU+Jz2K3Y0gvmqmzKgXETcZIjHMCyoqRdcAjFhoKTIzYwd4AjsZHgCCGaGazMhVF0XFU2Tnqj4FB0rA5UVHiqompjhN/NCg0Oll0Gjad4wrqfeuqp2TjAONA77LDDbq5OlMBIU2ggbdNoe+2ys/dijvviyd6Lqbdpskpx68L/572Ym58ffsLqaNinehbzRM+QJ5ZhhmeYKxZc5b312ah3A+/FfGDgg97LZA751JHeExYskeaTQVtbW4fe/va3z3LVmE7jdjcwdGBMrWGJNMzuJF2xaTWrbGkEokOjIsM4wskahEYLBYQQzY6Ngy4uogxHODDGTl7Qwxg7KxZD0yo49gfD5wGxYpNz8CQ2QggxjImJYczka17AU2xoFSOtggP445PEJrRWHlyJjhCi2QliIWKkvUAvRHQqEkcr8kdLhN+JQsMDg1UWfJLn+GOPPXbrNWvWdOMxBP39/R033njjj1y9KAGbt0ljzmakPI1yNMkUswQ55GOTZngv5tDpn/deacxbfKP3Yq5bcpP31ifM4fz+B494L5M55YvHey9GOZ1ksEy6o6Ojr7Ozs2/ChAk9J5xwwv2u2i6TRufGEmnkcZDPqVguBwE9jViVtaObrEIPmGXQTsnT+juEEKKmcMUarK+vLyeOOuMFPWIs4y0v+lmWjbQFaooMf3ii2MDcgYuWQvuVafiMEEKIAEytQXTcBTqXSdv7cmCcUqPY0MpO2gSHWNGh4FB0ooOF0Q3FBgfT1QkhhAjg6IbmqrIX7s4YWyk6FRMbULE/PAb4Q2H44TwQuO8mm7uh/fnPfz4Vio0DCAX/p3/6p4+6elEEadyuxj4a4NSvfM17MR/edXfviZHo6cfUfMz5937TezEvr33Ne6NzyoyveC/m3RtP815pXDr/PO/FLFq5xHvrM1IOJ0Q5nWQS7svB4wvsPTkw5nL6nCGXU5H7ctI4MrCiY4UnO7qB74Qme98NzNUJIYQIsHFyKPm+HI5wKj7KSYvg8Mfxh1JseBDsgYnMH7y0fH8hhEg1FB3n8gI+J6Y6o+DAGIsBy5Ip2x8qEf44KzQczURTaLvvvvvbe3t7u/v6+rAMunvhwoXXuHpRBOGuwp/9P7lTDiteX+W96hEudT7l1Dney2Q23Oht3hPFcPUjF3svk3l4+QLvjU61dmaefdtJ3otZPYDZnGSKmVIL+clFw08l3XaHHb0nZs6ceUpnZyd2ku759re//UdX9ZYzu0za7iRd1mm1NI0QrOhAcKzyRsufB+NVaRjdpOl7CyFE3YC8Nww5cPcyJ846C0c5xPpjJg2Bm0IDKDgwezCi+2682GCRAN4TQghRJLhgRzoCouNe2jgbio2NzWUhDYJD+OMoNjwQ0TwjxQYjHY1whBBibEBsjOBYsaFZ0QFlE52yqtcY4P/PH0iBQe6GjyBADmfCvHnzjsTNnv6Gz9aDDz74KFcviuC4Y472XsyiZ5Z6r3ocf3Ru3ujoY3KXsorieeC5O7wXM/fJa71XHJVaBv3G2le9F3PavNneG51ScjgTunBHRcyvr/2192KaOT+4cOHCe1taWoZaW1sHt912WzxzYrU35HFQ8tEF3OqGuRxQUi4nDSMFiA4N38eqbnYlhRMZKLIeQSCEECXAGOrjaDjKYQmzsbksMTcNggPwYzjK4Y/NER2MajAMlOAIIURp5BEcig1jMc3G25JiL/5YrcEPoOH7hGIT+RjdcO5RgiOEEGOD8dMITig6MCs2tJIpyx8ZI/aH8Ecid8NtbPj46Og+nLfeeutKe6AmTpw49mfcNhHXXHGp9zKZS6+Z673qYrcc0XYjpVPKIwdC7L03lbrvpphHSoeUksOxbL917uMrLruieW/j6+3tXYttbuB/4AMf+EJ7e/taZz3d3d2r77777uWumvfkYJsbGPM49r6cMZGmEQ4VNXGE4yxCoxshhCgNxtEhf38jS1dFC6fWyhJ38YdqAb88ShrFxg7x6GsaTQghyg9iKxZkIW3BuBuKjo3TtDEx5n9YIvx/+YMwksF0GtYxRsugYV/96len9/T0dPX19XVccskluVvMikSWPZ+71Pnzxx3rvertAK1de8uPXVp87j1neC9mpK1hRsMuhS7XMuiQm5/8pfdibn3uTu+NTrmm1ELURmOuueaaS9va2gY6Ojr6u7u7e/fff//fumouj7Y7SGNaDcukS5pWq9UIB1B0qJgc4WRHNlBcjGywUMC9FkIIUUYQX2ku3iLOMv7aEQ6McZpxe0zUOpBbsYFFQuMN84q8G7akHymEEGJ9XIyNLughNgNV2FutFoJDkaElig1KHAiNcIQQojJwdIMY6+NsKDYUnDBuj4kx/8MSsF+aP4xP9czmb+A/9thjJ0N1McrZZZddPuHqxCjMOukL3ot5aOGT3qscB+31ce/FfPX0M70nxop9aie45IHvei+TeXbVi94rnmo9gsBy4b25Oadivn/HS0jvDvPAzxZ6rzTstjfAbn3TTNveLFmy5LGWlpZ12OoGNmXKlNNcNXM4KGHI48DwyILwaaBFUe2RgxU4ig6+A8yOcCKj+jpfCCFEmfGjm2wex1XZEQ6MI5ykUQ6sKKotOCT80qHgRD8U84oSHSGEqCwmxubEYFOGojMmaiE4/MIw/gj+IPsDYdk5RvhCCCEqg4+ziL/WGItDsQnLgijqw2WAX5g/APfeYJI2+xgCZ1h4j7LrzTff/IkrowOhrWySefD+e7wX8+VvfMN7lcVuFdLM24RUikvn5952tmjlEu+VRqUeQRBic1Bfuf1k7xXPuqdzQ9TjNz3lvfJy1MEHeC+TOeFLlc9rpZX3ve99n+3o6Fhjtrr5u6vGyYQxjzPmrW4Q9KsFxYYtiD4V1BpHO0IIIaqEu7jHarXoQZeDw1vd2LjMkY4lfJ2XagqOhV/ciov9USzt3KIQQojKkhUcZ2FsZlzmYIFWMNUK5vx/+GWpnFibmN3O5swzz5z+1ltvdWs7m8Kp1lM8tYy0svxmwZXei7lr2XzvlcbOW0z3XsxnP3ii9yrL08uf8F4m88NHfui94ml/FrPuwzz4mz96r7zo6aAxP/jBD/4L29x0dnb2YaubI4444jZXjSXSnFazO0jb5dEFTatFo4gqQdFBSctR0AF/zw2U1aurEEKIKoG4i1kls/MALGnxAMuiqHZQt0JDy/4QLoOW2AghRG1AHEYMRulejpbHKUp0qhHY7Rezhv+bPyIyjm4gOkheuTohhBBVgvEXpb/wz4nRzlAHYxwn1s9LQR8qEf4f/KL40piYhWE5NJdEj583b95RfX197TCIz8EHH3yUqxcBdil0tZZBH3907vbtRx+Tu727KB6btylXzibk7D2/472Yjbqrc3dBuX7b3m/f3Xsx5/3fy7xXOewSadBMy6T/+Mc/3sdtbtrb2wemTZt2jqvmFjcw5nKwPBpW1PJoCEA1oOighFF8KEAwPAAoO60Gc3VCCCGqCOOvj8EjTakVHaPxD6sFvyC/rBWbyIIfKoQQoorY2Ds0NATfxmiKDQ0UFav5j6oFvhyMX5g/JFJQk7+R6AghRA0IYrAVHBjiNuN40TG6GkGdX4xfGFvZ4FEEsOgxBCyXLl36LeRuMK3mXmemTp36fpQilzmzv+y9TObOBx72XnmZ8o4tvBcz9xe59yaI4pm3+EbvxVy35CbvlZdDpg7nIPacdqD3qstZ84bzHi+vfc17xRNuxfP/XX299zKZn11fmeMX3nN2+613eK/xefPNN18dN25clItBucEGG3zeucjZ4F4c2FvO7CML+LgC5HHAiHmcao1wKGwUH45wYFn1tKMajXCEEKL6BLGXoxobr1EylpOC4jX+YbXgF4Txi1vTYgEhhEgJPhaHQmPNxvSCqHRwt18IXxjTaVwOjak07gwdLYvu7e39uSuzCtvZ2YnPNT2r3njdezH/fFDuss1K8L1zsBpymA/vmrs8VYzOE8v+4L2YKxZc5b3yMqENs9PDnLHn8I5QXe3V6ULLVy3zXszZ937Le6URTqn9Q+vm3stkDvv0Yd6LWd2DGZ7yc8oXc28BOORTubcINDLve9/7/k97e/uajo6OtQ899BB2jsaUGqbWerxhixvuHj3q0mioVDWwwgOzKpkd4TgTQgiREtzFP2aeeBOoNcZywHJUKhnk7ZehhV86NOVuhBAiPSDNgdicFL8Z10FBcRv/qFrwy8HCL04TQgiREjAA8GbjtI3lMBK+Xo8R3ywR/uf8krjXBvkbrDmM8jbHHnvs1NWrVyN3g8cRdN10000Xu3oRcN2v5nov5oIfXeq98rLZ2zb0XiZz/fU3e08Ug83bVCpnE3LM9M95L2bHSR/xXvWo1JLvkbbmueT7uU8vqdQy6Q/tsJ33Yi686Mfea3zmzJlzVmdnZ29XV1fvKaecgj2KkMOBYak0lkcXtcUNhKAahOITGW/0ZOnqhBBCpIQgPufEb2+M7QWBf1AJ7BfgFwq/aFZsnK/l0EIIkVIYp50xfoc+bUTw4Uphv4Q1fsloRwEnNFRPmBBCiBRhBgOM3TTG7TB2543led8oEftFuNMo8zfc0mbCRRdd9JE1a9Z09fb2duCR0medddZprl4EzDrpC96LeWjhk94rL/Z+g2a616AUbn7yl96LufW5O71XObbfeKr3Yo6fUfvt8y+89wzvxTy76kXvlcZF+1/uvfVZ9nzu49Q//dncx61XiltuGM4VNfrjp++8887ftrW1DTob+OhHP/oTV2W3t4GPx00XvMUNVKrcWBGjb1Uxe8eqfRyBey2EECJFBLEZcRuvbTzH64LjN/5BpeCX4BeC8UtGooMfA9OiASGESCcuPjPHbmM4XydZXkZ8c4zwb/KLYUoNW9pwOg17bUTLoh988MEv4Ome/f39ePha6957732IqxcBu35sN+9VlmaaKhgr9kmWoFJP6gyx29ecunvu9FW1nuJpeWPtq96LOW3ebO+VRrhNz3c+cZH3Rue4Y3Kn1BY9kzvlVi6+NXt4CnPv/Sq/zVQtwRNAW1tbB/EE0O222+67roq7RtPsFjecUsu7NBqCUAmskFH1YBQhWPaBa84XQgiRQkyMtrE8tIKolOAA+0XoW8GR2AghRB1gptQYx+1r2qhUUnAIvwy/ZLbk3KCERwgh0omJz4jdodgURSUCPb8IvhgWB/CRBJicxWMIsjmcxx9//D8HBgZwP070eOkZM2bs6+qbngfvv8d7MV/+xje8V16aecuOQqlVziYkDU/xtDzwXO5TMOc+ea33SqOUJd/XXJG75dOl1+RuCVUujjp4+Fyc8KXaL0mvJC+88MKfkb/B0z+33HLLr7kqm7/hFjfI4WB5NJdGVz2HE0IRohCxDJfdCSGESCeM24zhNFBQHK+G4NgvRou+MMVGoiOEEOnExGfG7yQriEoKTtKXglEdqyF2QgghykMYw2GEvq1bjxHfHCP8Isjf2C1tsrkbln/7298ugHryxs/Jkye/19U3PdWaiz7+6Nzta44+JvdRus1CTz+moYf56SPD934sWrnEe9XlPRtu6b2YWbvl3ntTa86al5u7eHnta94rjY9NmuG9mEOnf957o1OtrW6233qK9zKZy664xnuNSW9v71rkb+B3dnYe5QrkbrCtzZvOuMUNOhByOOG9OOtR6VEGxcdajjpqOk0IIdJLAVNqBVOtaa3wC+L/rdb/LYQQonQYu8N4DiuIgj9YBPwC3CXabmmzgTNOq41/8cUXvwv1pGlKLWbO7C97L+bOBx72Xnn53jnneC/mw7vu7r3GJtyW5UozhQbKtdNxMYRbusyagRWow2yx4STv1Y7lq5Z5L5M5+95vea+82OXfoJQl4Pvut7f3MpnVPdjQuDxM6EJIi7n91tzl4Y3MuHHjDnMFptA4pQbja0yp4cmfNZ9SYxmaRjhCCFE/MHYDG8tDkuoiqhH07ReD4f/ksCyaHzRzhEIIIdJNGK8Ljt/VHGVYoaEvhBCiPkDsHs2I9bMkVpYA/x5K5HBgzN8gd4McDizK4biRzW9cKQKqtc36/Xfd673G568rF3svk7nk4dyczeoB7MxRW47c7tPei9llq+H8Q1qw2/xUaoufmR+c6b2YbbbY0XvFY/uR+lDpjBs37lOusDkcLIvmMmkkycIcznp5nEqMMiA21oAtaRrhCCFE/WDjdz4bkWoEfX4J+6Xw/4765YQQQqQKG8dHMsAyS7VGGQV9GSGEEKnHxnJoCAcQo8b0UT9QJPxPYTaHw+1sJjrL3ouzbt268uxp3mAcfPD+3otZ8foq75XGZm/b0Hsx119/s/caj0ptn19Odt5iuvcymc9+8ETvpZfZt53kvcrlvU7b7Zveiynl/qNLvn+e9zKZn10//Pj0ctJM97J94QtfmN3V1dXT2dnZO3HixDVz5sx53FXbHA7vxUEOB7kckJPHqdWUmhBCiDqDt7Dg4ZmuyGeAZQ7VnFKz2C8mhBCiTjD3TsLC6TTrr0feN8YI/zMYp9SwJDrflNovXSkCdv3Ybt4rL3aXW1DvO93aXZ5/teAK78U8vHyB99JDuH3NGXsOT/l0taObpIsnlv3BezFXLLjKe5Xjov0v917paEqtvMyZM+esjo6Ovq6urt7x48f3zJw5E2vCMZ2GaTVMqdml0TBOp2Wn1ao1whFCCNEAcFrNka8E8O3rCAmOEEKIUTFTaRSd0ADLRCQ4Qgghykle0ZHgiLoB2+NbO//eb2YNORtraeSEnU/KMeRtaGnk98/dnmOVAk83pZWTt79zy6yJ8mGm1EA+PxEJjhBCiFKA0IwqNkCCI4QQYiwUJDIWCY4QQoiqIMERqQXb01jDY42tvbz2taylETwu2dq7N56WY2kjzJHhUdvWKsW7NnxX1srJO7ecnDWRDiQ4QgghqoIERwghRFWQ4Iia8sbaV3Ps0vnnZQ07PFurB7ADNG3PaQfmWNq577nbc6xabLnhu7JWTt58842siXQgwRFCCDEW7F5pOY8hyIcERwghRFWQ4AghhCiYcePG2dFMPj+Rom/cGQXecQrT4wnGSCM/niB8Euf1i2/wXkylniRZKcLtWE7Y5WveS+cjB0KQNyOnzZvtvepyyoyveC9T1uXiejxBeeHjCTo7O/vweIITTzwx3+MJBpzhqZ+cassKUbVGOKHyjaqEQggh0gdGOH6Uk88AyxyqOaVmvwxI/EJCCCHSCcWmpaWF8ZwjGTuiIdaPqIbghP9p+KWEEEKkHJu7GWGEA1gC61clh4Pn6jKHg/wN8jh4jRzOr1wpAvbdb2/vxazuwdRo6VQrh2PzAuAXTww//nnRyiXeq0/Cx0TPmjGcswFbbDjJe/XBvMU3ei+TuW5JZfIco1HOx0pblMMpL05kDncFnuuOvM1b3mwOp88Z8zdJI56q5nD4H9PP+SJCCCFSjY3dtHBxgLX1qOaUWvhlWC+EEKI+sPE7SWxGpJJTaq3OOKXGpdGYUssui37llVe+h6fH8Qlym222mbZ1dRx3zNHei1n0zFLvlZf778KqxtKx0zLg9ud+572YelvqPBJ2CS9I467PI9HTjxmRYc6Y91XvVe88hUvJZ+12hvfKy5zZX/ZeJnPnAw97r7xce3XutPSkd+VOWzcS48aN+5QrOKX2pjf4sHxLonMo9wgn6T9hnTV+ISGEEPWDjePAvmZdXio1pRb+x/YLUWxQCiGEqC8Y321cJ/a99ah0Dsd+GfrWhBBC1Ac2bocxPHydSLlzOIA5HORvkMfpdGaXRkf5G5Qvvvjid5jDgU2ePPm9rr7pmXXSF7wX89DCJ71XXoqZf/7rysXei7n6iZ94L5PaJ26Wg2Omf857MTtO+oj36pMw31aLpdD7bbWX92L23w6rbcvPkUcc5r1MZulLy71XXsqVB60Hxo0b90lXcBk0lkQjhwMfdVgSjRzOoDMIT+IMViVHOFQ7Kl+SCSGEqA9s3B5TDK/GsmjCL5jN4dg7V4UQQqQaxvDQAEtg/RyqlcOhUWxoQggh6gMbu238LjiWVzKHg/wNrMMZ8jj2MQXR1jZPPfXUVwcHB1uHhoZaYNOnT9/V1Tc9dksOUKltOU754vHei9nzgP28l8ncsOgX3ot5ePkC7zU+NsdQqfxCtRjpvhtQi3ukZn5wpvdittliR++Vxqo3XvdezD8fdID3ysuUd2zhvUxm7i9+7b3G5IUXXvgzZqJgkyZN+rqrCnM4aGCwMIeTKELVHOHY5dCsy6LpNSGESCc+PofxO7RRqfaiAXxZa0IIIVKMGQxQbBi/GdcLppJTahAzTKm1O8O0GpdG0ybcf//9nx8YGGhz1oqptX322edgV9/03HFr7hTaN7+TO8U2Vlo7c68v9v333BnM5Ruu8F5z8bFJM7wXc+j0z3uv/knDMuiQ8/f9gfdiyvVk1Er1m5C9dtnZe5nMmd/5nvcak8WLFz/e2to61NLSMvSe97znTFfFZdDcLRrTaZiX5bY2qZlSg1EZaUIIIVJKkOqwcZw+sP6IVFpwAL9MKDZQTT6qNPxhQgghUoLJ4dBC0QHWT6RSgsMvwi9gX2cFR2IjhBDpxsTnbOx2xnhubVQqlcMBEDMYtrhhHgeTtbBoafRPf/rTvXt6ejr7+vrakcuZNWvWl1x901PK8s4wT/OeXYefQLnJBzb0XkxfNOXafDRyzgbYpdBpWAZdi8cRgEo9kuD4o4/0XiZz9DG5txY0Gnfcccd1ra2tg21tbYO77777Va4KORxraFAw5m+sGK1HpafUrPrBrEJGIxxrrk4IIUTK8PE5J357KypuV0Jw+AVsaS37ZW0ORwghRPowcdrGcPs6tLxUY4TDMis0NI5sJDpCCJE+gtjM2M14jrKo2F2JHA7gvTgwPmoaeRw+qiDK4Zx22mnT16xZ093T09M1MDDQ/uMf//hcVy8C7Dbr4IWVw/fL2BwNUJ4mGZtHOGGXr3kvplz3gaSFm5/8pfcymVufu9N7taNajyPYd7+9vRezugdPPS4/9rEejfxIafD973//wvb29v7Ozs6+//iP/0BjYu6GW9xgSxsYHy1NIUqkUiMcKl9o/EKRcajmVRQmhBAiRQRTajaGs46xm2VeKj2lRvhFWUarGSg27gehTgghRIrwQhOJjisoNNZQTxuVSk2pAU6pQdQ4rcado7lr9Aa+xOuudevWXevKpifc4fdHN5zvvZgXu1/ynqbM8hEuxbXTaI02hfbG2le9F3PavNneSweV2h36ul/N9V7MBT+61HvlZbO35U5TX3/9zd5rfPbff/+TOzo6ejs7O9dee+21z7oqbGfDKTXuEl3QkmhQjUUDtFAZQ8v7JYUQQlQfPwsV7aXmXobxmiVtVKo5pUYLv7g1IYQQKYFpD/8yjOF8Hb6fl0oKTvglYFZcMATjMIxfXgghRHqweXZrjOmkoPhdyRwOgahxeTS3uEHOBhPpyOHAotcvvvjit/Hkz3Xr1kXfa/Lkye9F2YiE8+53LL7Be5nMXcvme08Uykg5G9BoeRvL1Y9c7L2YtD2dtVKPIzjumKO9F7PomaXeKy9HHZy7tdQJX8rdLqiR6O3tzSaQITSdnZ2fdS7quByaORzUcUsbLokORWg9qjGlFqogjCrJUQ5HOuEQTgghRO2w8doaYzmtIGqRw4HZL54VHQmNEELUHhOLbay2ZuM5KCh2V0twCL6U/dJ2hAOzP1QIIURtsfGaxjgexupRY3c1cjj4P2AQN9yLA8P2Nrgfh/fgRHbfffdlHzmNXE69P3L66eVPeC+TuevZ270Xs2jlEu+JsdJM29VY/rpysfdiLpife59WGth+46ney2SOn1G+nMeD99/jvUzmy9/4hvcqi93KBjTydjZ4pDQu+nGjJx5LsNVWW+Gx0tzGhobX2DcIxsECxGZUwanFCAdGpbSjm2hKzZqrE0IIUWVM/M2J0c7sKKfoGF1NweEXhFmx4V2qg1BVCY0QQtQGxF/GYR+LuQotG6edUXBAUfG6WlNqAOIGw/JoLI22TwDFlNqECy64YEZvb29HX19fB6bWzj777OqMmQskXMr86Av3ey/m/mX3eS/m5bWveU+Ug2barmYkLrw394mZz6560Xvp4cjtPu29TGaXrXJ3cS6Fgw/e33uZzIrXV3mvvGy/de6U2WVX5E6pNTJXXnnlT9rb2wcwnYYdog877LCbXDWn0bidDZZDY0ubfmdFjXiqMcIJlRAlvyQVEzaAx5i6H5rd1NPVCSGEqBKMvbjR09/syZFN0giHVjC1yuHAskLjLSs2/ocKIYSoIlZsEI9dVTY+e0OdFRzAclRqJTj80jD+EORwoh8q0RFCiOrj4i5HOFillhOfvdnYDQoWG1CNHA6weRz4WBqNXA6fAIoJeCyRpiGn09Xb23sVt7np7OysyCR9+CiAp5c/7r2Y3z83vJw5jXPljczOW0z3Xsynph/jvZhmyts88Nwd3stk5j6Z/qd4nL3nd7yXyWzUvYn3iueS75/nvZifXY+UQmX53jnneC/mw7vu7r3Gh48jaG9v7+3u7l579dVXP+Oqbf4GS6GRu+Goh4OIgoSnWiMcfhl+Magjy9EUVAghRBXA6MYZptOiFIerQkymuNjYXJDAhNRiSo0lvzh/CAXH/jAhhBBVAmLDtAZEx1WFhtgdWsFUU3D4xfglKSoUG5a0SHDww1EKIYSoLIi3EByIDVYNuyqMbmyMhtlYXhTVyuEQm8uB4V4cPLKA9+LA+Njp7j/96U//F1vcwKZPn76rqysLNz/5S+9lMrc+d6f3RBr42KQZ3stkDp3+ee81H+E9X+feM3zvzeoB3AaRLsJ7pGbtlnuvUKE8tXB4Oyhw7Eknea+y2Htvmum+mxUrVryAEkID23TTTb/kXjJnw61skLth/oar1ig+oGDhqfaUmsWOcuzIhhYN61ypUY4QQlSIIM4mxWIYYzUMn2NMLio21zKHwxKWT3QkNkIIUWFMnOUIhsZYbIWGny06Nld7Sg3g/6Rx92gsj8a0GoxTauMvvfTSj/f19bVjm5tZs2ZhqFcW6m2JaSNjp9BAM0+jWdL+FM8Qu5UNKGY7m1VvvO69TOaE44/1XszSl5Z7r7LYpdDNtAz6t7/97c+Zs+no6Ojfb7/9fuWqOZ3GqTVuZQOjAFnhKZhaTqkBfmk7wskqK1SX5l4LIYQoI4yvEB2Yq8o3urEjnDFTK8HhF6fxB/EHRuaVF/VCCCEqAOOsj7VWcELRsTF7TNR6hAP4Q/ijsoKDA0D1da+FEEKUEcRWjnJgrgoiY3cSYFxmnC6JWuRwAHM4EDwYlkZjiTS2uVlveTTMbnMDStnqxm5n85XbT/aeqAbHTP+c92J2nPQR7zU39umw4IeP/NB79YHdygYUs53NrJO+4L1M5qGFT3qvsnxoh+28F3PhRT/2XnOBrWza2tr6XTzt6erqWnvNNdc866qZw0HuBkuhkbuhAFF4xiQ+tRzh8EvDqKDZ0U2CCSGEKCN+BgnpC3ujpx3dwEoSGUutp9RGEp1wSKcl0kIIUUYgNFihhqk1lK6KgsP4a8WGNmZqJTj2S/NHhGJjfzRKIYQQZcSPcIbc6GYAT/p0VYzBMA4CKDpkzKJTqxwOYR4Hjyrgo6fDxxVEOZ1HH330hIGBgVZudfORj3xkH1dfMr9ZcKX3Yu5aNt97Yqx0RCm5YQ6bdqj3MpkZU/fynrC5xDPmfdV7MWncvsZSylY2c2Z/2Xsxdz7wsPcqx4Qu3Oo3zK+v/bX3Yjbc6G3ea3wWL178OIQGi7K23nrrs10VGqLdygY+6rB4gPfeUHjAmAWn1lNqgCMcGH4QRzQw/ODIcIA4paapNSGEGDtuVMN4auMtzQoMY3NZYm4aBAfwB/FH4gdnxcbZAIZ9OEAsXZ0QQogiQfykuZeItaHosM4KDikp9qZhSg1A+GDY5gbTajBudRNNqR1++OFb9fb2dvX393cMDAx03HLLLRe6+pL568rF3ou5YP753hOF0r4Op22YBT/9i/diJg7gdMace1bu0xS33WFH7zUfdvuatG9dE1LMVja1mEIL+dbs3CnLvfc7wHvNx4UXXvh95Gywlc3xxx//e1cVTqdxOTQFCCJD8SmJNI5wrOJmRzk4QFxNAXN1QgghioQzRX5VGmNtOLKhMTaXhVoLjv0hoejwIESGFRTuAGFqLVoz7uqEEEIUiRebkbaysWIDGkZwAIWGRsGBZUc4XnCiNeNOofEZIYQQRcL8jZ8pCsWGZmMyYFkStc7hEHwPLpHOl8vJLpF21vXMM8+cNjg42MLtbqZNm7YTylK5dP553otZtHKJ94SlY83w0ueHf7LIezGDvfmvB8LlqWedPsd7MY28NXy9b19jCbeyGdeHuxqGsY8ZqNYjBkIO2uvj3stkvnr6md5rPt58883o8bF+kUBm4sSJx7sCy55h4VJoLoeGAKEjw6zwlERacjiEPww/Eipr1ZcHARY9usApdHaptBBCiILgKMbG1yiuOqPAlFVoSJoEhz+OP5aiYw9MdoqNw0Ln674cIYQYgSBW5hMbCg4MlD2upkVw7A+DD+MP5wHJig1eU3AwynGvhRBCFEZOLPVmBYcxmJQtxqYlhwP4XZjLwaQwczl8BDVzON3nnXfeLr29vR39/f3RI6jPOeecr7v6ktF9Ocn0PYu2OMyfflOZ3NZRBw/fH3HCl3Lvnag33lgbTZ1nOfee3O1f0r59Tcj2G0/1Xiaz09Au3os5/azcHMnqHtzGUV2mvGML78XM/UXu9jXNypVXXvkTLrrCvTef/OQnb3bVvPfG5m74GGmIDjo8haZsgpO2KTUCH5Y0ysEBiVatwbDSwq+2EEIIEYD46GeDeO8NhcWOcio+ugFpWzQAQrHBgYDx4ERml0lLcIQQIhkXIyOhwfNu/DNvEEMpOnZKzQpOWYWGpGlKjeA70SCIWH+LqTVMq4VTa7TOZcuWnYkl0rDJkye/19WVBbtMutGXSHe3Di9ZfvaWv3kv5qUFK7xXPcIpkpNPzH06a9qXUDfaEvsN/4KH8Mbcdd0j3qsdYfu45NKfeC+mmXaAtnAZNMDIZuLEiV90LuY4MYfLKTSUMG5jkzTSAWUVnjSOcID9sRzhUIlzRjq+DiaEEMLjV6QBxk/GTDulhnrGWCs0oKxiA9I6pcaSxqk1iosVG5TRfTk091oIIZoeHw+LERtrZSetIxzAH40DQcHJJzrRMmlXCiFE0xPEQys2OXHTWyg2FSONORzC7wZRhCGPg3xOuN0NrPvss8/+EJZIw8q1RBrYZdKNtkQ6fGrjZ6YPb0fyw29/z3sxtdhSfjT22mVn72Uyx30xN78z6V1TvFdd5i2+0XuZzHVLbvJefdIRdblhHv7Bk95zV34jbF9USWzeRjmbZLAM2i8QGIB9+tOf5jJoa+EjCHAxbwWnIsKT5hEO4UEIRzlU6kitcYC1RFoI0ewwDsLMqrSceOkM9YiVSaMblmUn7VNqBD4PDgWHFh1ALZEWQohIcKJ7bgLBsXkbCo4VHVIxsQH1NMKxogOj8ESqjftycHAhOu61EEI0JRAa5HAQD73g2NwNRYdiQ4GpqNCQNOdwiM3l2O1umMvhvThRLsdZ9OgC3I+Dxxe412V7dIF9JDCot8cC77fVXt6L2WvqQd6L6WrH4UsmDY8JLobtt87N4fzzJ/bznvvdn9jfezGlzP039FZIL+SGh8d++ZT3qsdI99ooZzOMfQTBxIkTT3Au8jP2fhsYXo+Uu6m46NTDCMeCA8LRDQwHjOqNMvKp8Fq5JoRoFky848wPYyJjJIyxkzNFoGpxsl6m1FjC7HRaeGCjg0qxwVymREcI0Sz4eMe4GBpjJgWHMRVUJU7Ww5QawPek2ak1u90Np9e6P/nJT07p7+/vdNYxODjYdsstt1zo6kumpx8j0mHOmJe7m3Eadv+d0NblvZh/3/EY72Uy22yxo/dK57pfzfVeJnPBjy71Xn3yoR22817MtK239l4m8/6dc3dFfs8207wX81+PnOO9mHrbAXoknrxqqfdiel6p/G8Lz8W3zv6u92I0jZbM17/+9XPb29v729raBubMmfOQq+J0GnaEhg/jFjYwjnCqKjj1MqVGJabxYIUjHBzQPhz41tZW7CSNVWtQcyGEaFi4SheC417auEiBYX04sgHWryj1mMOhcS4yFJ0+PPPBHfis6Lg6IYRoWJC3hvlVaaHYwFDPC3UrOrCqUU+CwwODkgeNgpMjOhAcjHL8SEeCI4RoaCA2uDUE5l4miY0VnKoLDamXHA7h97W5HBiXSSOBYZdKR8uk77rrrs9iibSzViyX3nfffXPXA4+RJ5b9wXsxVyy4ynvVY+ctpnsv5lPTh3M2YKSlzuXiwfvv8V5MGp7+WCk+cnLu8e7pbJzf1tU7/HgK8IcfVGfZfyM95bVaLF68+HG7MGrrrbdGMpG5GuRtknI3nFKrmejU45Qagc+Dx5EOFT07vYbXUH830omGnFq1JoRoFLzoIAba2EcfMTE1oxtQb4JDeNBgVnA4nMwRHEyr4cTQXJ0QQtQtXmhsTKPI5BOdUGxqEgfrUXDsAYNRua3o8KBHhkQaRAejHAmOEKIRoNj4mJaNd86s0MAYK63VhHrL4Vjw3WnI40A8+fiC9e7N8YYcT8eKFSvORy7H+ZnNNttsMspyUKmtb6p1b025WPXG696L+eZpX/NeJvPQwuEt7uuB9x061XsxHe9BU2tMXro9+2TiiHI9Vjzcnua0r5/mvZhtd0hfG04bvb29yMVk2WmnnU5yIxzM3vS2t7f3PProo6+46qQtbCg+vDCvqeDU65QasGo90ignujfHW6T65qpACCHqCh+/cI8hBAe3gIRxLt9UWs1jXj0LDrEHk6KTM6XmDXU8EUIIUXfwQtmJDR7JEgkObv9wVYhxFB1edFNwKDqAZU1oBMEBFBsKDkc6FBqKTvSaIxyePCGESDs2XnF009HRgSk1xDVOn9FCsUlFrKvnHA7hb0AJAbX35iCnY3M5kZ188snb9fX1RfusXXbZZd92dWUh3Gvt/Hu/6b1M5uW1r3lvdD42aYb3Yvbf7gjvxVTj3ppKEd6zc+75uXtlrXh9lfdqxzumb+Y95++7ifcaE/sY6QfO/5P3imdCV+49PIfst6/3dG9NOfje9773305ksJNAdHPn8ccff5er5n02SXkbKzoUnJqLTqNMqbGEUdU5rMSBz45uUOKkuasD5HLwOSGESDUQG8QsiA12UnFVHNWEuZt8QgOrOY0ypUas4NipNZ6I6ORw6xsIj3sthBCpxo9uos05ITquiqMZCg7iG+oZ96zgpIZGmFKz4PckTa3lXSZ94403Hjo0NJTd9ubQQw/Nnb8qgeWrlnkvk7lwfu7U0Rbjc6dq/m37z3gvk3n3xrlb4DcT9rEH//Pzn3svplLTbRO2xMNih3nvZ8q2Uj71vPkoZmNilsx73nvJ2GkzO2UGjvzccd6L0WMESmfBggX3I28Dsdlhhx3+21VBWDiNZo3CwwtrXnRTcFIjOo02wgE8wHakwxPBYSiHoHiUAXaU1rY3QohUgXhEcy8ZvxjDaHiN9zi6SaXQkEacUmMJo+BwWi08YX2YF4VRdFydEELUHI5ufFxKvGB2hnorOIx7NhamhkYc4QArOBQdnhgrOL1+XjQrOq5OCCFqDkc3LjZZwWH8otiEIxsbw1IlNqDRcjiEuRwY8jgQVrvtDfaK4aMMsvkcZx1/+ctfTh0aGhrHrW+mTZu2E8pSsfkcsMWGk7wnCsXmd8Att93qvUxm0TO5j0Meia5Nc7cK2vFz/+i9mL6oDzcHC36w2HuZzMbdG3gv5tADhh8bAA467HDvKUdTCVasWPECSj+Fltljjz2+6cQGF8V9jz/++MuuisufUYZb11B0Ui04jTrCATjYVHwYRzk5Ixxj0RWDH8LqplAhRM3w02ncTYAjG5oVGSs0NmalMn418pQaSxgFB4YTFQ5Ps6LjBUeiI4SoOog5NBeDuHWNFRtY0qiGsQ6kNm41+giHJYyiYwUnR2xgwQlP7YkTQjQWNvbAIDaYTvOCwxiF2BUKDmMcSHXMatQcDuHvQwlxhSGng/08mM/hPTpRTucDH/jApgMDA52woaGh9nvuueeblXiUgSgvy57PzeH8/nfD+R3w+KInvOdO/seHt3MBa1vQl5uDqa1TvBezz5b7e0+PCag29pEDEJhDDjnkVC8y0ajmV7/61V/dW/Z+G5gVHs7a1I3gNPIIB9iTwKEnT1LSKCdK0Pl5U2zyqUcZCCEqCuNLS5yzGYDgdHR0hLGJIoORDYzxDP/WWqppdMEB9iTwpFB01pte87uv9nrRiabYXH22UQghRLmwcQWjGlhnZ2dvV1cX4hFWonE1mh3VWLGpKxp9Ss2C30qzU2swTKthii07tUb/xBNP3La/v78dO0tffPHFOY8qdA0DnxEpJNy5+5IHhrcWenbVi95rPs7e8zvei9mou7F3w04zxxxzzOnuohb3AGJ/tP6LLrroaVdNkbFGwYHZ3I0VnboQn2YY4VhwUmA8WYmjHGO44og2+XTD3Wh6zdUJIUTJQGwQVxBjYK4KMSef0Iw0uqmbuNRMgsOTghJGwYHhZCaKDgUH5l5rak0IURYgNogriDGdnZ2IPaHY0BCb7MiGMYxWNzTjCIclrxTCUU6O6CQ9ykCiI4QoFYxwEFsQYwLBySc2oeDUHc2Uw7Hwd0Nw4fNRBuH2N8zlwDpPPvnkbD4HjzP44Q9/+A1Xn0U5nfRw6fzzvBezaOUS7zUX4dNjD53+ee+JWnDVVVdd7i5eo70bjzzySKzdh6iMtPQZYgPjBbIVm7oTnWYb4RCeKJ5E2EgjHVx1RPkcGIbCaDAa6QghigExw8WP6Omd7iVjDWMMhYZiY0c3dS82oFkFB9gTZoWHVxS2IUSGYS9FxzUYfEbTa0KIguHoBqV7yQtaKzQwxqBQaBhr6jbmNLPgEJ5InFic4PDKg9bT1dWV+HhqiY4QohAoNi6G2ItaGl5zZEOxCQWnrmNNs+ZwLDwGKCHAMN6fg5wOt79BTsda59lnn/2BgYGBNhhyOt/+9rdPdfWiBvxmwZXei7lr2XzvNTe676a2XHnllT/BFBpHNp/5zGeQt+GsCfI1LGEUHI5uYFZk6lpsgEY4uScTxpEOh7W8CslOrXmLVrBhpAPzc7JCCJEFQkOx8aMaO6KhWaGh2NiRDWBZ10hwckkSHTu9liM6EJykKTYhhAB+Cm2AscJV2RhiBccKTUOKDdCU2jB2ai3f9JrdYTqcYuuYO3fuvphac9aC8hiHqxcVwk6jaQptGLsUWsugqwum0JDT5ajmyCOP/J2r5gWrvWjlawoO8zbh6KZhxAZohDOMvZqA8UoDDQCNwY50bMOhYZfpqJE5ix7i5uqEEE2EzdfAXJWNFczZwKzYcHQTik3DIcHJJUl02BDC6bX1RAdDZjY0NDpXJ4RoInCx6ft/NI3mqhgfuDAAPuMH3rdiw7hj41BDIcFZH3uyYRzpUHBg64kNzDWwqJFRdFydEKKJYN/HAgHEA1eF2GBHNjDED06jUXAYZxpWbIByOPkpNKcDYx7H5nY6TzjhhGmD2ganbGjpc2HYpdBaBl1ZrnB4kYlGNkceeeRtrpojGIoLSxgvWiE0MApNw4sN0AgnP/bkw9AgcCXCkU44tRYOl6Odpl0jjJZM6+ZQIRoPv01NJDYwV8W4gFjAuJA0lQbD5zm6sfGmYZHgjIxtBDQKT5L45DQwCA5Fx73WjgRCNBhcIJCQs6EhLoTTZ1ZkaKDh44MEZ3RsY4ChocCSxIZlZHhMLEXHvY6Q6AjROFBsXB8f6OzsDAUH8YCCE4oO44iNLw2PcjiFky+nw0dVJ+V0snbyySdvw21whoaGWvW46tFRzqYw9AiCytLb24sZiyy/+MUvrnFCky9nE4oNL0o5I2KFpqnEBmiEUzi2ccDYcJKm1sLGhxVsely1EHWOvakTfdlVJfV31tlRTdOLDZDgFIdtJLCRRMc2wLWYXoPoUHhcXdR4JTxCpB/bVyE2yNf4KbTRxAYWTqGxzzdd39eU2tgYaXoNhmk1u9M0l0ujxHudhxxyyJYDAwPR00MxxXb11Vd/2dVHbLbZZpO923Rou5ri0Y7Q5SWcQps5c+Y5EBnMTGBUc/HFF//ZVSfNZlBoYLwAldgYNMIZG7bRwDjK4UiHjc42xuzqNZgb5fS5xhutYNMUmxDpBP0SYoN+ipkJPzvBfp3Tp51RgDSyyYMEZ+zYxkOzwoMGZ0WHjTMyNxzHFFtkEB4O2SU8QqQD9kX0TwgNpsMxNe6qrNCwtCMbmMQmAQlOadhGxMYFS8rnoGGu8bZ2/PjxeGQ1lk0jp9MnsREiPdi+iGk0ig36ratiX6bYwOzIxgoO/o6NE02NcjjlIczpMK/DnA4MOR3mdaI8jjPmdbqmT5++8eDgYPvQ0FDHtdde+++ujC4G1q1bN869tyv8RkRLn4tnv6328l7M/tsd7j0xVl544QXkZSKh2Wefff6rpaUFU93YJaRvwYIFr7m3eOGIkhaOamAQGYgNhUZiY9AIpzzYRkWzI51wtEPLXiG5qyhMrfW5Rp4z2tGoR4jqwH7nxQa3MKBPos+in7KvhqMa9Gv2cU6n2zgA1Ic9EpzyYRsXjNNrvOKh+CQJD+7Toej0+iQlVsUMSXCEqDwUGxhGNe3t7VF/RL90b8Os6MAoNBzZhFNo7LfqvwYJTnmxjY1GwQlFxwrPWiweMKITiQ3NvS+EqCC8uHNigweoRRd+nZ2dWNyD/mnzNRzVWMGh2NBs/xcG5XAqx2h5HeZ0mM+xOR3WRe//7Gc/2xs5ncHBwRaURzpcfYTrEKnfEqenH3015qePXOS9mEUrl3hPjMSENjSNmDP2PM97MV3t2hWpWH73u99dzxENxGbPPff8uau2MxC8GKQfigyMF5OhwEho8qARTuWwjY/GBpp3pBNYVIclme6KawAjHxg6iasXQowRiAymrdGfXP9CfxypD1J4rOBw1sL2b6C+OQISnMpiG6Mdcoeik6+xRw0eHQIG0UEncXVaTCBECXjBwfRZdCHnqkYTGxj6KwUH/dj2b6A+OQqaUqsedooNQk/D9Bp3m7bTbPms/cADD9wS2+FgW5zLLrvseFcXLZ9GOXny5PeirCV2Cg1c8sB3vZfJPLvqRe+JYjhk6gHey2T2nHag98RIrFix4gXvZk499dQf42LNXahFI5sf/ehHmMulgHCmgRd/HM3ArMhAmCg0KIHEpgg0wqketmFylGNHOmzovNLiTaJMWGavutxoJ7stDkc6GvEIkQz6BvoKDNPTuInTVXP0wn5l+xrfg1F0rOCEoxv1vQKR4FQXNkw2UjZeig+vtvKJT9Q5sKLNdZzI0Jm4wkaiI8Qw7BMwTJ1BbLC7h9+eBv1ptS+zfcsZ+hzeRz+EyIQjG5oYAxKc6sPGyoZLweFIBw096QoMFnWM7u7u7LY47qotKzYw974QwmH7BUY1FBu/PQ2FxooO+xwEJ2kajQasLwpEOZzaYXM61mxuJ8zvIIdjl03Th0Wfu+aaa/biEmrkdWqxhPqvKxd7L+aWP1/vPS2DLpTNu//BezGnB0uhhVOF4DECd9999+0c7fulzte6ak6J2ZkDXtTxPRoFhsYZiFBcJDRjRCOc2sFGi5ING8bGzk5gO0riiMdb9BmuZMPKG3Q6VydEU4D2TvMrz9hvbJ+xZkc0VnySRjbA+mIMSHBqS1JjtqLDaTYYOw87SWIHajfLp9HpOKXg3hOiIWEbh9BgihntHu3fvcV+ktRf2I+s2FihobFfqg+VAQlOOrCN2hobPToCjKMd24E4/xxZV1cXHmONlTjRzaKuLkKiIxqN8GKKF1soYa7K9hH6FBlYOKKxYqP+UgGYRxDpgufF5nVQhnkdlMzhhBZtjbPDDju8bWhoCI89aLv44ov/Bfkd5HZg++6770HuM1XljbWvei/mvud+572Yx/7+mPcymZfXYlf45uSUGV/xXsy7N57mveZmwYIF91NoZs+e/Ws3qonurXFC03/dddf9zX0EAoILMxrFxdbxAg7CQpHhRZ4VGolOmdEIJ52wobMD8KqLV2G2U6Ez2Ss5Xs1FpbvSwzTbWtchsTFoNNVAc+8LUVcEeRrs6oxNNrFqEyMXtn9rdlSD/pI0omE/C/udKDMSnPRiG78VHF6doeOgE6Ez2Sk2KzxrOjo6IDbR7rfOuEWOFhSIuoRigwsm15YxfRwJDm4VcG/bts++wP4RCg5Fh32LIiOhqSCaUqsPkqbYaHaazS6h5jJqmK2DRZ898MAD34kpNmetsO9+97uHuvrUPGV0+apl3otZZKbbwILlw6/rfcuc7Tee6r2Y42d81XvNBabMUHLa7Gtf+9pvMGXmRCYald9www0vubftRZc1Coo1fpYCA+NFnBUYCU0V0AinPrCdAsaOw05np9fsaAdXerixzd7clr36w9UhrhLdiAcLDPpx5ciO7t4Xouqw/dGcyPSjjdLcR2zbtu2bbZzvJ41qkkY0QO29Skhw6gd2EBo7DgwdiVd0FB8rPOygtnNGD5eCQXic4ODx1tF0hQRH1Aq0PU6ZwdA2OW3W1dWV1I4pPGznodBIbFKEBKf+sB0FZkXHjnjQ6WDspKGt3mCDDdb4bXIiY24HHd29L0TVYftDifZIoRk/fvxatFf3ESsyNIoN23w4qpHYpATlcOqbMLdDs/kdlMjZFJLnyeZ7DjrooGx+Z926dS2zZs36mKuP8juwPfbYY1+8Bi4opO6Rk+H2Os+88rT3MpnX1r7ivZgVa3JfL12V3dU+s3oAF8yVwT7F89Tdz/BezEbdm3iv/gm3oHn66aej5Bunzezy5ptuugnJOF440exoBcb3UdLyCUsoMkBCUyM0wqlv2HHYodjZ2PnYGdFhOeoJczyw9a4aOzo6oqk2zJtjHp1XnTT3GSHGBKfNaGhfmNLFaMa9bdtlkrHthlNnVnjYD2DsG8T6ospIcOofdigaOxoFh1eFFJxQdGg5Hbqrq4uCE82huzK7nBrGq1P3WSEKgm3Gig0M7YvmPpZ0QcTXNIqNFRwYL7Ss6LCNsn+IGiLBaRxsh6LPTkcBsiLEUU/YwaNkLObLMW8+YcKENbjy9IJjtw2JkOiI0QgvTiAyGDHjAgZtCe0LbQ3m3k5aCABDO2WbHU1gaMD6osYwByAaD3tubX4Hli+/g/yNzfGE+R77GVrr1VdfvSfyOkNDQ1F+Z5999tkNpXsvIg2Pva4UYa6oGLraxnsvk9liw0neq0/s45zBfffddw9KiMupp556lxMcjIoxQh5cuHDhG+4tToFRPCgkVlBg/FwoLKG4WFGRwKQUjXAal7ADWkNnRecNOzyuIjni4RUmrzbDPE/26rOjowP3SOB+iWj0g6tZBJrwylY0LjzXPPd+BBONip1hBSS2WYrMfdy2I9ueWLId2hFNkujYNg2sL1KIBKexCTsjOyoFh6LDjh3meMKgAFtPeJzgRLtTQ3QQYGzgQek+IxocnnMa2gHbhfORA0ROEPd+2baTdBFDsWFbzDfKYXu27VuknOy0h2h47Lmmj5KGiw8aptis2Sk0mJ1Wg28/w3+T/TsHHHDAFuvWrcMS65bjjjtuZ0y30XbYYYdt7PTbtGnTdvKuqDHhNNm9DgrK5Zdf/rCr4kUFljMvd68pBhQGGMXCioZ9bQWFxn/LiyOISWjE+iLlaITTPNiOSh/GTm0DBKfYOOrhiIejnmhhgbe3gtc0fp5b6HCJdc6O1S5g5VwZu8+LlMFzE5w7jF6yqxjdx2z7oCW1C9te7KgGf4PTZ7BQdGhhGxZ1hASn+bAdlT4sFJ18whOKT1JgYV30PlYhwVxgila7wTDl4gUH8/1YHourZX4vkQLshQAFB+cN549iw3PrPs62kNQeaHiP7YZtCe3Kik3SCEdC0yBIcJoX23Hp06z4wHjVSeGBWdFhycDCq9io5BY6zjCHn30iKQyCY819XqSEUHC80PTjHGK7GSyZx1LmiRMn8lzT2A5gaBdsIzS2IRhFhiahaWCyc+ei6bFtgT7KJMOFCi0nX5NgNrcT+vYz9LN/c86cOdsj7+P8aEudj33sY9vRR7nNNttsixJsvvnm7/JuhAuKqdtup1rYrWRefvnl570b8fTTTz+FEgKC8k9/+tNSvv7xj3+8yNdDYIYWLVq0yvm8+LCikGT2AiWfWSGhmOQzYn1R50SdWQiH7ej0YQwOYfBgoEmadrNXs7zCpfGq114Bh1fDsGi5Nc1dXUfb69AwGkJwpLnPiwTsMeIokseQU5s4thi5OJ/Ll9fA3D+nheeGdUn1PO/5pstCcUoSIKLz2mBIcESI7fT0bVAYTWxoSaLDAGUDVehn/01XV1cvDMEQQdEHyOgOdZhEZ2R4TOwxsscPooNj66c58VykaPkyzL22543nxpqtp89zZ9sB2wfaSig6tl2xnbHN6Xw2IBIckY+kjm/rYDZg8Io1nxjRKEYMUgxatGweYMKECdjyJHp8MEoIjhedyBBAKTru8zmBFa+bFXsMeHxY8tjhOEJsvKj3uWOMBQCrnU/jeWFOhucqFBWe1yRhYZuw7QTG84PS+qLBiebChSgC22aSfJQwXMywDI25Guszh1OshX8v+j+32267DeAz33PYYYdNoT916tTNUGIrHpSTJk2KXofg81OmTMnJDbnAPJ5/pxQQ/NeuXYsAHrF06dLnKRIhqH/hhReiZyg44Vi3ZMmSFdEbDrz32GOPvUzfFev+93//F/fEwGeAt0GfIsA6+zqpLukztp4l/7/oOxgDYWlJqhMNCjqoEMXAQBIagw1KBiGYHfHQwhFP0qhnrBb9HXcFv8Zdya/1himinHwQrvJxhQ/jyIm5jcCyS7ZhCOoYLZRq/u9Ehv8j+D+zhu/lvms09QXz3zv6HW5EgulG/B6U0bJzV5d0LPMdWztySarjv0M50miG55nnnG3AtgsYoG/rRJOAK0MhykF41W+DiQ0wDEYwBicGKpoNXnxdjPVPnjzZxetWiEhkO+2004YI3LBNN910PEpXH90DtNFGG433QsDgn/Xf5oDvBCIaQbh/1+79ks2NsKLHejt/3VtvvbXS/v/W8Bk3GloFH997lYMiCXv55ZdfdyXzXP0LFy5c6Y4BRYFGoQhFw/rW7AUCzB5fnhd7Lnl+AUtLUp1oMkqeGhAiAduu4PO1LcP67HSYsXDKzJb0bT0s/Fso89WFBpLqYSD0x0IYlFEmGUjyaTbIh6+tENCsQCT5YWn/Dv9ukoF8pRA5jLXTCFEIScE59O1nYFYYaHxthSW08N+iTKpLeg8G6I9kgOVYsYE5n4GkelooBFYkWNLC16PVw/Ae3wd8DawP8vlC5FBqxxGiEPK1M1sPP8lCgQiFIyytFfJZ+ICvCzFi/UIIA/NIBpLqYaEgJL2HMulzYZmvzhpgCawPwtdCJFJshxGiVPK1OdajDH2aFYpiLBQY+541kFQPA6E/FsIAjjLJQJIPyycMsKT3UAfyvR8aCP0k8tULkchYO40Q5SRsh/Y1fL4OfZYj+bRChQaM9p4tx0IY1Ed6zXI0A0n1NGDLkepA+L4QJVNKpxGi3CS1x6QAX0gdytAPDYxUjvaZsRIG9jC4j1TSQL7XIPTJSHUgny9EyZTacYSoBKO1y/D9kV7D5+vQtyVJqs/32VJJCu6jBf9CS5DPJ0l1IF+9ECVR7g4kRKUotK2Gn0sSi3w+KPZ1KRQrCPk+P9LfCV/no9DPCTFmytl5hKg1+dpzUn0xnyWV6C8jBfp87xVTLyERqaESHUiItFFMO09bnyhGMCQuItVIcEQzU4/tX6IihBBCCCGEEEIIIYQQQgghhBBCCCGEEEIIIYQQQgghhBBCCCGEEEIIIYQQQgghhBBCCCGEEEIIIYQQQgghhBBCCCGEEEJUlkzm/wcqtDgDxl6usAAAAABJRU5ErkJggg==" parent="8le9z9f76cK8EGYcwLgO-1" vertex="1">
          <mxGeometry x="253.32" y="627.13" width="28.35" height="30.37" as="geometry" />
        </mxCell>
        <mxCell id="U9nG9JyEE-MKVYN0Ibzq-4" value="" style="shape=image;verticalLabelPosition=bottom;verticalAlign=top;imageAspect=0;aspect=fixed;image=data:image/png,iVBORw0KGgoAAAANSUhEUgAAAZwAAAG5CAYAAAC6IIK8AAAAAXNSR0IArs4c6QAAAARnQU1BAACxjwv8YQUAAAAJcEhZcwAAFxEAABcRAcom8z8AAGVXSURBVHhe7b0JuFxVlfZfufNNCNiMKokG6UQG6YCKEhFQJummmRpUEPBrhUYwQBs/1KAQkUEUaLEFBUHABqPipzI1fwYhMhpmiDGAiUCEIIZAgECSO+e/33P2W3fVzql7q25Np6re3/OsZ6/aVbmpOmfv9Z691z77ZIQQQgghhBBCCCGEEEIIIYQQQgghhBBCCCGEEEIIIYQQQgghhBBCCCGEEEIIIYQQQgghhBBCCCGEEEIIIYQQQgghhBBCCCGEEEIIIYQQQgghhBBCCCGEEEIIIYQQQgghhBBCCCGEEEIIIYQQQgghhBBCCCGEEEIIIYQQQgghhBBCCCGEEEIIIYQQQghRj4zzpRAiJm19Yp0vhah7JDiiWSm07VerjxQiLBIfUddIcESzkdTmR+oHaRCcsb4nRKqQ4IhGJV/bZn3S+7Yun18prHAU65OkOiFSQzU6khCVotD2myQeYQlCf7TPlEqSgBRbAuvno5DPCFFRytl5hKgUSe202Dpb0kBYD0byifWLIQz8VkBoYDTfvralJakOFPNZIcrGWDuNEJUiX5sM6/MF/yQfJQ20OLOvk/x8Zglfj0YY1PkaZT4DYd2QM2DrSCk+SaoTomSK7TBClJN87c/W0x+pLOQ9KzLFWPjviPULJQzkeF2sQWyS6mFgpLKQzxDrW/LVCzEqY+k0QpRCUptLCuRJZT4Do9VTOMJyJAs/C1gC6xdCGKzx2lqSmIR1eD2S6MBAIXXWQL6ShK9BUp0QiRTbYYQYC2E7C4N3UhkaCEVitNfWrHjYz8EHfM26pBJGrF8MNkDDt2aFZCTxKUR0aCP9nfA1sPUgXwny+UIkMtZOI0QhJAVolKE/muUTAJQ0W5/0WfpJ9TCQVB++hpUDBGgG6ZHEI5842PrRPjNSGdYVaiAsgfWFyKFcnUcIkNSeWMdgnWQ2qIeCgDL0R7N8fycqzzjjjPeuW7duHGxoaGjc29/+9g1cfYav7Xsf/ehHp8Pn+yjLxbhx47LB+emnn/4LXre0tER1K1eufBNla2srhCDz8ssvv4n3Ye77/9lV4XOhSFjxCH1r+epp4d8L/SQDLC1JdaJJafWlEKWAQMxgTB9GAQgN7a7NlLB2bx3GOr1Z31pXQt1o1rHzzjtv0dfX1w4bGBho6+zsHA+/v7+/Da9h9CdNmvQOJzwtsMHBwVb65TD79/7+97+v8v93K+rffPPNIf89ou/42muvrcN3gv3hD394y/2O8FjBWGePJf18xuMfGs5NaDx/9hyDpDLJF00OGpEQYyVfYEFpBYZmg5cNbgh8YdCERQLhy9Cs2Fg/3+ez9v73v39zBnKUXV1d3T7YZwM8DIF/8uTJbw/FoRL20ksvvYn/A4b/e9WqVevoo3z99dcz/F4PPfTQavc7eIxo4TEs1Hj8eS7sueG5sueQ55bn257z0Ur6oklBYxKiWGzwQGkDEY3BygYxBjkbKBNFwRlEJGkEk/Rv7N+kb0sYg2jbjjvuuKkL8hCQSES6u7u7vKBkRWXdunUoW6dMmbK5f52daiuzRf/X8uXLV6Hk/7969epB/P8wfDc34hmg/+ijj2K6jcfUWliX87v96ySznw1La/j79hwnGdsGDeQrRZOhEy+KwbYXGzxoDDhhEIIhWIXGIGYDGsvWD33oQxsiyPqgPO6II474RwRj917GBd6W3Xbb7Z9Qj9eTJk16D0qAus0333yKfxmxwQYbbOrdhuOtt956xbsRbnT0snczf/nLX/7E3A9eP/XUU8/wNfJFF1988RPOH4I98sgjb7iPDDpDvgYlbSDw+ZolP4+SuR6b87E+YAmsLxqcqPMKkQcrJtZCEYFI8IqYIw2OPjBK6Q5sfCHW19fX3d/f3+Wtu6enp7O3t7cDpXuvA1f7AwMDre69NggRDWLk/n0WilKjEv4+HAPUwXh8YDheOH4wHD+U/th2uc/hPOG4T/CltaQ6nkeUHI1yRMo2YEdJbCtsO7Y90USDk9MxhfCEAcAGBQYMGMWGghOKTZLIMHiFZWgQm/HOkF+BdSFIwlwdEvxRkh9B1AtNtKoMxmBLc3+r4Ql/M0WHxwcljpc7jlGeyh3HyFw9xAbH2p4re75o9jzBTzp/oeiE03JWcGC2XQH7mnWigdBJFRbbHuiz81uzQQPGq1crQAwwOf6ZZ565jQt02RHJwQcfvJsPjNHr7bff/sN47T6b2WSTTd6NUlSHV1999a8oOf22dOnSaDqupaUFU27r7rjjjvuwTLutrW3wxBNPfMR9JJxeC32+pnHqDX/fTrNZAyxJ+FrUKQgWorkJxQSWT1AgHLhqtaMZO50SXh3zSjhrb731VvfatWu7aLjqxpU2rrydIV/TVCOTNMHjbkZHLTgnHBlxStOdN4xgEs+vM557GNpCOOpByTZkL0ZobHNsi8D6oo7BiRXNS9ihYezwMIoMLUlsEEAoNjbYhBYFIxe0ulzQQuCKzAezKBeDaR8GPZj7vKgi9tjDcD5oOD+YzoTo4ELBfdye1yTBYXuwogNj24GFomPbHsy2S2B9UYfgpIrmw3Zkmr3KpLgwMFBUYKGwJAUba/g8g06U7Ie5AIb8gc3BRCahSQc4Dzwf9N05y96n5D5i2wTbhW0bbA/52kdOu3AWipBtj1aAANusqDN00poLe77ZaWns1DTb2RkAbAmLgsOxxx47GcKB0QrK2bNnH8Zg5V63bLvtth+ikDTy8uRmwl00rPFuxB//+MffI7/DnM/cuXNvRa4HduaZZz7pPhLmdcLXrGOeByUNORyb8wFhKeoABBPR+FBUQCguFBCOaEYazcBwpYq9x2DRVeuaNWu6Yb29vVhJ1okrYGfRNIxGLY0JRz7+ZbQUm+fcWRumS/30G9qTHeWw3VgLRzx21BNOu/EiCMZ2rfZVJ+CkicbFdkbbOZPEJhQcBgArNLD1AgaExhqCDkY6nC5jcJLwNB48rzjPPOc4/15wumDuY7b9JBnbGIyikzTNBssnNmpbdYAEpzEJOyI7KK8QYVZkYLyyTBKZMDhQjKJ/40c1yMvgZsx2BB8KDUr3GdHg2PMNc+0gWtmGfJ17O99FTNjO+JqfYxuzox0Y2zDFh+3btnuRQnRyGg97Tm0ntJ0TximKcIRDnxZdWV555ZW7uyCS3cTyoIMOOsDVR1e4W2655bbwhUjilVdeeZ739qC87bbb/hd5HuR3UP7bv/3bLe6tfmfI4diSZuthzPnYXA/zOzano/xOykDgEY0BhQWEAsMrQoqLHdXYq0mYvfLMXnH2+i1RsDAAxqtZlO59IfKCNkJDm8HIB6vd2KbcR/K1OxjeYztNGu3wwgntnO3e9gO1zxSBkyPqH9vBKDKwJJEJpzfY2e2Uhu3okfUN35wZmQ0i7n0hRsS2Fdd+ojyPz/egfbKdsS2yhIXTuGyXVniiUbgzCU/K0Umob+z5Y6eCJYkOSl4VWqMQtd9www3/itELgsG//uu/HuHqokCBUsuZRaXgbteYbnvsscfmYZoNS6xRnnTSSde2tbX1u9cD7e3t/fPmzXvVfbTPGabYWCZNs4VTbGEpagACkqg/rLhYgaG4wCgmuBKE2SvExKtHjGJ4L41GL6LaoL3hYgejHk7dOsPKx/HOsFu4bbu2PdvRjh31oD9w1AOzfUbUAAlOfWE7C30rNrRQcMIpiySj4ES7CLvXOXPveC1EJbDtzE+z2Z2to0dUuDaJPGJOe/XGtj3SFFuS2FhfVAkJTv1gO4oVGXaufAKTJDK2s+LzUWdFZ3emLWZEzUDbo0F4XHvEcnssu8e+e2in+do0zbZr9AdYPgECKNXWq4QOdH0Qdg52Gpod2VB8aOx07XPnzt3TXzlG0xZHHXXUsa5eeRqRWtzIJmcLneuuu+4n3DLn4IMP/l9XhTxOUk4nXEaNErkd+MjjhFvlAOV3KgyClUgvFBgrMlZcwlFNvqu/qA5LUDFd5ixa3sxpDPdeVnSESBO2jQLXbqMpX9eW0fbD9p50A6kd7eDfhCMdGP+++kCFwcEW6cR2AhoFp1Cxyel8EByYH+Xgb6zXoYVII2yjrt1Go3PfftHubVtPEhyKDsyKDswKDvuA9UWZkeCkj6TGb4UGNpLYJHW4qNPhypCdlSvRXL0QdQHaK3M7XnDQ/mG2/Sf1AQpOONKxokOzfU+UGR3UdGEbO40dIRQcik6OnXrqqdtxBANRmT179n+4+qizagsa0Ujw/h2Ae3guvPDCH7S2tg62t7fjnp2BL33pS3gMNvI6vUGJ/I7N8TC3M9L9O6IMIJCJdFCI2Iw0sokMW8L39vZGDzpDyatCjWZEo4E2zXaNEm0ehj4Ac9W2f9APRzow9C8Y+xv7H7C+KBEJTu1hg7aWT2RCoVmvM0FkkFh1Ixzs2qxHNouGh20bI3rX7qPRPaaPXRWn0vL2F2dJ4pNPeESJ6CDWlrAxs5FTcJJEJ0d8HnzwwWNcB8s+e2aPPfb4pKsXoi55YtkfvBez46SPeK94Fi1adDe3yTn88MN/1N7e3tvR0dHryr7f//73mI7D9BotXEaN6TVNsZUZBDZRGyAsFJckgYHlG9HwKq2L+RqIDszVCSEcuADjIgPcQOr6Ch4IZ7fIsf0K/QwXcxztoB+iP/EikBeF1hdFIsGpPmyw1pIEJ2ck48x2jmwn8dMI0egG5uqEEA5MtRnRiXYrcBZtk+Pezrlw84a+liQ4NPZXYH1RIApQ1SVsrDj+Vmh4hUWRCYXGdoyoc1ixUZ5GiGGYu/SGVZvRNjlupBNexNnRDvsXhYfikyQ6QH2uCHSwqgePNRssGzDFhsZGnhWfM888c/uenp5olwAsCJgzZ84sdqRNN930Xe4zQjQE8xbf6L2YPacd6L3S6O3tXcunjoILLrjgHGyP09HR0Q+bOXPmA64ay6a5dJpm8zphbgcot1MECHii8lixCYXGCgxHMDlXXmvWrMHqs2jJJwSHYuPeE0IUiO0z6Eu4gEO/Wrt2LUY0OX3OGfuiHe2gv3JGAn0Yf8/2bTEKEpzKwgYJo9CEYmOFBsa55ewwH/cUmOXO0R5orj6nAwkhRod9hkuoKTquyoqN7X/5RId9mf0bqD+OAg6YqCy2MeYTHHuFRcsKDkc2roO0u46Ss+mmEKI40HcgNuhT7FuuGsIS9kGYFZwk0UE/pAH1yxHQwakMtvHR2EDRWGFswGjM1jquv/767KOesRjgsMMO+5yrz16ddXZ2oiMIUZcsX7XMezFbbDjJe5nM1Y9c7L2Yz37wRO9Vlrvvvvv/+Xt2Bnfdddf/cVV2O5wwt8OtcZDT4dY49p4doJxOAhrhVA4rNiONbMIrK2xPE80v4yoMpUY0QlQWXOD5izz0z3yjnexFoTP0YfRnmh3tAPXXBCQ45YUNjjaSyLBR06d1Yn7Z3l/j6oQQFQQXdP5+HfTXpH5Ki/qoMTvFZoUHMA4Ijw5G+bCNjI0uSXDCxhz5f/7zn7/mRCa6n2b77bffw9UJ0ZDc/OQvvRez/3aHey+TuXT+ed6LOX7GV71XPV588cWnsIQa1tLSsu5f/uVf5mBbHGyJg61x5s2bt8J9zE65YVqNU2xcOq3ptQR09VweIC4UGFrSyAYWXi1FosPRjEY0QtQWTmH7UQ8WGGCKGzsUYBd29mE70kH/zjfSoQmHgltp2AZFyyc2FBeYFRtYB4f0KN1rIUSNsIIDGxwcxDR3di8295GwD3PmAn0ehhhAY39Wv3ZIcMaObUg0Xt0kjWzYSGk5jZViA3OvhRA1hH3RzzpwW5wOlO5t9l32Y45yYHakQ8EJrWlp6h8/RuwxYwPi1QwFB40uR3D22GOPzdwVEobm0dXSnXfeeT4bNUxb1IhGJXzkQIh9BMFJN0cPqM1y0f6Xe692vPLKK88zp4PX55xzzgXYDqezs7PvW9/61kJX1eMsXDrNLXGQz0Fehzmdps7raIQzdpLEJt80Gm7exG4B3e4qCTsGdNkRDcx9RgiRQmw/hbm+jKfpRubetjMWI410YIwZoCn7vASncNhYaKHQwKzQsCFGOwa4Rtrth+WdTmzQGLMNGb4QIr1YwXF9GPfHUXCyF5XG8JrCw9gg0XFIcMYGGw0bERpUOLKxDbDbjWo4skG+RjdzClFnsL86wYl2bYfouJfs67aMptGdISaMNtJpKhTwRofHiCUbDBoQRzdoeGhYFJuo0R111FFT0CjRQC+//PLTrMgoZyOahfDemn//4Enei+lqR5yOSWMOJ8SNbLKPOpg1axbu0cEjDvqQ0zn77LP/hI84Y17H3qsDa+p7dRA8ReFALGA4bhQbXsVYsYF1u4aJUQ2WU0bLnq2594UQdQr7sLuYjDYBRV/Hru6uiqOc6KLTGafWNNJxSHBGho0BJRsJhYZiw2H1egahwehmcHBQU2hCNBjoz65vR/uvwcwUG81OsVnRgYWiQ2toFADzw2PDhsAGEopNdmRz5pln7oCHObmGF83v4qmCrj7CDbmxeECIpuCvKxd7L5P57aKfey9m1m5neG99wim103b7pvdi7M7SacBOr4GvfOUrX8cUG6bXuru7e08//fSkZdN2t+lwp+mGnlpDABX5CcXGTqPliA0MYoOVKxAbDLNdnVaiCdHg2P6Nfu+n2PgkUcYH+E0/0pHgJGNPPBtE3pENDSMbNDYMr4eGhiBOQogmgKIzODjYakXHVdkYYUUHxpjCvA5jDmDZUEhw1ocnHUaxQYOAWbGhZRsTRzaY10XD08hGiOYB/d33/ezTRF21FZwoTnjDe4gnjC2MNYw9DYkCYi482TA2AF6BsIGw0XSdddZZUc6G02g2Z4PGpydzimblNwuu9F4m8w/dm3ovZs9pB3pvfcIczikzvuK9mHdvPM176WSknE5XV1ffnDlzmNOxy6ZHyumAhsnrIKCKGAoNoODYkQ0sZ1SzZs2aLuVshBAW2/850knI6fDClRey+abWGgoJTgxPLkorNGgEnEKzDSUy15CUsxFCrAdFB9NriA9eeDhDYi1JdGCMRShpdY8EZxieVAoOTj4aAQWHopO9sQuNCKacjRAiBPEAccEJDkc5NoYk3aMDQ+xBDKLYNBQKkMNCA+PVBUc2MDaKrl133XUz13DwdE5Yx/z58/+bIoNy4sSJm8AXotl4Y+2r3os5bd5s741+L429Z+eC+ed7L2bmB2d6L2abLXb0Xn0Q5nROOeWUbzCnc+6552IbnLXOkM9BaXM63AbH5nRAXedzmn2EQ8Gl4OQb3URXJa7xdHmxiZ5pY8UGpRBChNj4YHM67mU0U+IMMcaOdDi1Zkc6/Bt1HWuaWXDsCYRRbGBJU2mRyBixQaOQ2AghRgVxAuZiRzan46rtDEpTiE6zBkt74mCh0PDKo/ujH/3o5u6KBPmaLj2lU4hk7DJo8OSrT3svkzl9z9zdokNGmlI7ZOoB3osZaUl1PeBiyRrvZo444oiT29vbsQVOT1dXV++ll176rKvm1Bqn1+yTQ+1y6bqcWmvGEU4oNryCgOBwKi07wnFCgyXPGNVkN+CkufeFEKJgbNzwsSWaXvNTbOEoB9ZQo5xmExx7smA8kRAaik3OiXfD3w6ITSg47j0hhCgaxg/cSuHiC1a6dvhHG4SWJDyMXaDu4lAzCY49STCKTTidRotOOvI1eEKnntIphCgXiCPI58AoOq4aMWekRQThaAfUVTxqluBpTw6MJ40jG4pMlLextnTp0m85sWmBbb311h9wdaKJeGrhE96LWbVqlfdi/vbiC96L+fvfXvRecWwwcUPvxUzbZjvvrc+Hd93de7VjpGXQYL+t9vJeJrP/dod7L5lmyuFYXnnlledRYtk0bO+99z6lra2tt7OzEzmdnjvuuGOFe9tugQOzTwytu+XSCLrNQig2uFrIN5WWvcKg2DijaAkhRMnY2RL4bqQTrYLFvX49PT0jjXQQvxjP6iouNYPg8ITw5FixwUnkSeXKtJyTjIYAsdFUmhCi3CCuMLa4OBPlirFIyU+xMR7Bt6LDi2Ybk+oiPjWD4ACcDFgoNjiJodigzJ5gCY0QopJQdJzgIKcTLVKC6Li3bGxiTELsCkWnbmJUowdTngwYhCYUG55MWLS30fz5849xJxuJvFZMpe21117/5upFnbHqjde9F/PQ/Hu9l8k89vDD3otZ8OST3otZ+tJy79UHU96xhfditn738O1hO70/N+248y67ei9m0rumeK84wvtu7lo233sxdjub0R4L/fTy4TzZDx/5ofdiGjmHE7JkyZLHWltbh1paWoaQ05kyZcpprprb3tD4aIOk7W9AqnM5jTzCoZhScMLRDa8geBUR+RQamqsTQoiq4EY3UdzxMyuISbgwZpyKZl28IY4hntXVKKfRA6oVGys4HJ5asUGJ4SzWxkeio+k0IUS1YLzx02uIV6HY0ELBgTHWpTpmNWpAtQefQpM0jTZ+7ty5+/b19UXPH4fQzJw586uuXtQB1/1qrvcymXvuvcd7MQ8tzJ0mE8nY6bjDDjnEezF7fWJ/78W8Nviy99Zfvrx59z94L2a07Wws8xbf6D13Tpfc5L2YnbeY7r2Yz37wRO81PjfddNP/tLe3D7S1tQ3ss88+aOyYUsPWODAul+bUGgzTaameWkMwbmQoODBcEXA6LXvlgHwNDaMbVyeEEDUHoxxcBPu4ZEc4sJFGOYBlqmhEweFBp+E34qRQbKzgYC+jaPdWnFwJjhAiLSAm+biEGBYKDmw00UkdjSY49kCHYgNb76RBbHgV4edNhRCi5jCX4y+EeaFsjYJD0QnFJnXCk7ovVCI84DCcABhPDrerGT9jxozNe3t7xzuh6Xz44YevcHXZhF1nZyc+I2qEXc4896rLvBdz2113ey9mxeu528yI8jKhC5MAw+x24vAS65fHrfRejN3KBoy2nY1lpBzO9htP9V7M8TOaM8U6c+bMUzo6OvrwGIMJEyasPf300//oqpnLYT4n36MMUkMjXdFbscHv4ugGhiuA7BVCf38/tqxBzgZ1QgiRajDKwWwMUgDuYtmOduBzpINYh7hnYyEsNTSK4NiDCt+KDU9I1iA0MDeqwUnKjm6EECKNuBgVTa1BdLCq1lVBbLhcmrGNomOFB6QmvjWK4AAKDQ0HHScAxquByDC6geEkSmyEEGkHYmNGORQcmL1Hh6LDGIjYlirRaYRgy4MKs0KDg4+TgfttkJeZ4Gw8/Oeee+5Mn4xrmTp16vtdnagRl3w/936N62693XuZzOoeTEuLWvGO6Zt5L+Yd+27ivfU5e8/veC9mo+78nw25+pGLvZfJPLx8gfdilMOJWbFixQt8jAFsk002Od5Vc7sb5HK47Q3vzYGFjzGoeT4HAbqeoWDmExyKTs7QE6MajWyEEHWMHeFY4yjHTqtZqyn1LDg8eDyQ+C1WcHhCQtMjB4QQdQcvlH3c4sU0YhrFJhvjnIWiQ2oa8+pZcAAOHoxiY0c29kTwZEQnQkIjhKhHjOAw1oVxDsYYiM8wNjJW1pR6Dbz83jyQ+fI2kf30pz/dxy8njG70/M///M8vu3pRJR68f3ifs3PP/673YnQvTXpo7UR3GmaXE3fwXszaluGcWjlzK5fOH87jLVq5xHsxyuEkc+edd/62ra1tsLW1dRD7re2yyy6Xu2qbz4HhhOGx1MjnII+DnE5Nczm5Lay+oGLjN0BwYFR2Di0jxef2NVjlgcUCrk4IIeoWjHKw6AnxzMU2xD7EOsa87GyOM8ZGxktaTajH4BseOAoODi4sR2zg++WE2efcuDohhKhbGMsQ1xDfXJUVGwoODO8h5sEYMwHLqlKT/7REeNAoNDzYsGgK7eMf//jmPT093dq+pjacd9Yc78XccOfvvSfSzPYH/KP3Yjq3wfVbMsdM/5z3Ynac9BHvFc/s207yXiazegAre4fRlFphHHLIIV/o6Ojo6erq6rn66qufcVV8jAGn1vgYg5ouk663q32KTSg6zN9E02nYugbmrgCiGzxdnRBCNCwY5TizN4UyHiL+8cKccbNm1JvgECs2oeC046C7gx8ZBUcr04QQjQrEBjYwMJATC72hDvESRtGhVZV6Ehx7kHjwIDY8qJxWw0o0bV8jhGgaEOec4ESjHPcyFBsa4qUVHVDV2FhPgZgHCQeMBxACg0QZl0Bj65rxCxYs+BKU3lm0UGCXXXb5hKsXZWTZ80u9l8l87WuneC9m6UvLvVefbPa2Db2XyWw1eZL3YqZtvbX3YqZus633YiZO3Mh7pfHYww94L+alv//de5nMM3993nsxpRzvrk1xB0HMdp+b4r1kJrQNf/Y7n7jIe6Vz0s3/4b31UQ6nMJYtW/Z0S0vLELa9eec73/l/XRVyN6u92WXSSbkcUJV8Tr2McCg2FBwaRCcc4WAqDUofjWw0uhFCNAMm3vGCnHHRjnbCUU5V42O9CA7hAcL3Zu4GlhUblDzw5gQIIUTDEsQ7ik1ojJe8YLexsSpxsh4EhwcCJQ+UFRt7QCE6SJ5pdCOEaFaS4iL9JNGpWpysh4DMA2KFhjd1Rjkb2Gc+85mt+/r6OmE33HDDJa5OlJGnFj7hvZj//Mpw3qYeHiOw/dbD+Yl//sR+3ovZeZddvRcz6V0j5zLShn0sN7jztpu9l8k8/tij3ou584GHvRfzkZOney+T6ekc+Tzax0gX8wjpkL+uXOy9mAvmn++99VEOp3jOOOOMb7W1tQ3gcdTd3d29J5544h9ctX2EAYyPMGAuBwYqmstBEE8zFJtQdNYb4QzEiwSwMg3vCSFEU+Jz2K3Y0gvmqmzKgXETcZIjHMCyoqRdcAjFhoKTIzYwd4AjsZHgCCGaGazMhVF0XFU2Tnqj4FB0rA5UVHiqompjhN/NCg0Oll0Gjad4wrqfeuqp2TjAONA77LDDbq5OlMBIU2ggbdNoe+2ys/dijvviyd6Lqbdpskpx68L/572Ym58ffsLqaNinehbzRM+QJ5ZhhmeYKxZc5b312ah3A+/FfGDgg97LZA751JHeExYskeaTQVtbW4fe/va3z3LVmE7jdjcwdGBMrWGJNMzuJF2xaTWrbGkEokOjIsM4wskahEYLBYQQzY6Ngy4uogxHODDGTl7Qwxg7KxZD0yo49gfD5wGxYpNz8CQ2QggxjImJYczka17AU2xoFSOtggP445PEJrRWHlyJjhCi2QliIWKkvUAvRHQqEkcr8kdLhN+JQsMDg1UWfJLn+GOPPXbrNWvWdOMxBP39/R033njjj1y9KAGbt0ljzmakPI1yNMkUswQ55GOTZngv5tDpn/deacxbfKP3Yq5bcpP31ifM4fz+B494L5M55YvHey9GOZ1ksEy6o6Ojr7Ozs2/ChAk9J5xwwv2u2i6TRufGEmnkcZDPqVguBwE9jViVtaObrEIPmGXQTsnT+juEEKKmcMUarK+vLyeOOuMFPWIs4y0v+lmWjbQFaooMf3ii2MDcgYuWQvuVafiMEEKIAEytQXTcBTqXSdv7cmCcUqPY0MpO2gSHWNGh4FB0ooOF0Q3FBgfT1QkhhAjg6IbmqrIX7s4YWyk6FRMbULE/PAb4Q2H44TwQuO8mm7uh/fnPfz4Vio0DCAX/p3/6p4+6elEEadyuxj4a4NSvfM17MR/edXfviZHo6cfUfMz5937TezEvr33Ne6NzyoyveC/m3RtP815pXDr/PO/FLFq5xHvrM1IOJ0Q5nWQS7svB4wvsPTkw5nL6nCGXU5H7ctI4MrCiY4UnO7qB74Qme98NzNUJIYQIsHFyKPm+HI5wKj7KSYvg8Mfxh1JseBDsgYnMH7y0fH8hhEg1FB3n8gI+J6Y6o+DAGIsBy5Ip2x8qEf44KzQczURTaLvvvvvbe3t7u/v6+rAMunvhwoXXuHpRBOGuwp/9P7lTDiteX+W96hEudT7l1Dney2Q23Oht3hPFcPUjF3svk3l4+QLvjU61dmaefdtJ3otZPYDZnGSKmVIL+clFw08l3XaHHb0nZs6ceUpnZyd2ku759re//UdX9ZYzu0za7iRd1mm1NI0QrOhAcKzyRsufB+NVaRjdpOl7CyFE3YC8Nww5cPcyJ846C0c5xPpjJg2Bm0IDKDgwezCi+2682GCRAN4TQghRJLhgRzoCouNe2jgbio2NzWUhDYJD+OMoNjwQ0TwjxQYjHY1whBBibEBsjOBYsaFZ0QFlE52yqtcY4P/PH0iBQe6GjyBADmfCvHnzjsTNnv6Gz9aDDz74KFcviuC4Y472XsyiZ5Z6r3ocf3Ru3ujoY3KXsorieeC5O7wXM/fJa71XHJVaBv3G2le9F3PavNneG51ScjgTunBHRcyvr/2192KaOT+4cOHCe1taWoZaW1sHt912WzxzYrU35HFQ8tEF3OqGuRxQUi4nDSMFiA4N38eqbnYlhRMZKLIeQSCEECXAGOrjaDjKYQmzsbksMTcNggPwYzjK4Y/NER2MajAMlOAIIURp5BEcig1jMc3G25JiL/5YrcEPoOH7hGIT+RjdcO5RgiOEEGOD8dMITig6MCs2tJIpyx8ZI/aH8Ecid8NtbPj46Og+nLfeeutKe6AmTpw49mfcNhHXXHGp9zKZS6+Z673qYrcc0XYjpVPKIwdC7L03lbrvpphHSoeUksOxbL917uMrLruieW/j6+3tXYttbuB/4AMf+EJ7e/taZz3d3d2r77777uWumvfkYJsbGPM49r6cMZGmEQ4VNXGE4yxCoxshhCgNxtEhf38jS1dFC6fWyhJ38YdqAb88ShrFxg7x6GsaTQghyg9iKxZkIW3BuBuKjo3TtDEx5n9YIvx/+YMwksF0GtYxRsugYV/96len9/T0dPX19XVccskluVvMikSWPZ+71Pnzxx3rvertAK1de8uPXVp87j1neC9mpK1hRsMuhS7XMuiQm5/8pfdibn3uTu+NTrmm1ELURmOuueaaS9va2gY6Ojr6u7u7e/fff//fumouj7Y7SGNaDcukS5pWq9UIB1B0qJgc4WRHNlBcjGywUMC9FkIIUUYQX2ku3iLOMv7aEQ6McZpxe0zUOpBbsYFFQuMN84q8G7akHymEEGJ9XIyNLughNgNV2FutFoJDkaElig1KHAiNcIQQojJwdIMY6+NsKDYUnDBuj4kx/8MSsF+aP4xP9czmb+A/9thjJ0N1McrZZZddPuHqxCjMOukL3ot5aOGT3qscB+31ce/FfPX0M70nxop9aie45IHvei+TeXbVi94rnmo9gsBy4b25Oadivn/HS0jvDvPAzxZ6rzTstjfAbn3TTNveLFmy5LGWlpZ12OoGNmXKlNNcNXM4KGHI48DwyILwaaBFUe2RgxU4ig6+A8yOcCKj+jpfCCFEmfGjm2wex1XZEQ6MI5ykUQ6sKKotOCT80qHgRD8U84oSHSGEqCwmxubEYFOGojMmaiE4/MIw/gj+IPsDYdk5RvhCCCEqg4+ziL/WGItDsQnLgijqw2WAX5g/APfeYJI2+xgCZ1h4j7LrzTff/IkrowOhrWySefD+e7wX8+VvfMN7lcVuFdLM24RUikvn5952tmjlEu+VRqUeQRBic1Bfuf1k7xXPuqdzQ9TjNz3lvfJy1MEHeC+TOeFLlc9rpZX3ve99n+3o6Fhjtrr5u6vGyYQxjzPmrW4Q9KsFxYYtiD4V1BpHO0IIIaqEu7jHarXoQZeDw1vd2LjMkY4lfJ2XagqOhV/ciov9USzt3KIQQojKkhUcZ2FsZlzmYIFWMNUK5vx/+GWpnFibmN3O5swzz5z+1ltvdWs7m8Kp1lM8tYy0svxmwZXei7lr2XzvlcbOW0z3XsxnP3ii9yrL08uf8F4m88NHfui94ml/FrPuwzz4mz96r7zo6aAxP/jBD/4L29x0dnb2YaubI4444jZXjSXSnFazO0jb5dEFTatFo4gqQdFBSctR0AF/zw2U1aurEEKIKoG4i1kls/MALGnxAMuiqHZQt0JDy/4QLoOW2AghRG1AHEYMRulejpbHKUp0qhHY7Rezhv+bPyIyjm4gOkheuTohhBBVgvEXpb/wz4nRzlAHYxwn1s9LQR8qEf4f/KL40piYhWE5NJdEj583b95RfX197TCIz8EHH3yUqxcBdil0tZZBH3907vbtRx+Tu727KB6btylXzibk7D2/472Yjbqrc3dBuX7b3m/f3Xsx5/3fy7xXOewSadBMy6T/+Mc/3sdtbtrb2wemTZt2jqvmFjcw5nKwPBpW1PJoCEA1oOighFF8KEAwPAAoO60Gc3VCCCGqCOOvj8EjTakVHaPxD6sFvyC/rBWbyIIfKoQQoorY2Ds0NATfxmiKDQ0UFav5j6oFvhyMX5g/JFJQk7+R6AghRA0IYrAVHBjiNuN40TG6GkGdX4xfGFvZ4FEEsOgxBCyXLl36LeRuMK3mXmemTp36fpQilzmzv+y9TObOBx72XnmZ8o4tvBcz9xe59yaI4pm3+EbvxVy35CbvlZdDpg7nIPacdqD3qstZ84bzHi+vfc17xRNuxfP/XX299zKZn11fmeMX3nN2+613eK/xefPNN18dN25clItBucEGG3zeucjZ4F4c2FvO7CML+LgC5HHAiHmcao1wKGwUH45wYFn1tKMajXCEEKL6BLGXoxobr1EylpOC4jX+YbXgF4Txi1vTYgEhhEgJPhaHQmPNxvSCqHRwt18IXxjTaVwOjak07gwdLYvu7e39uSuzCtvZ2YnPNT2r3njdezH/fFDuss1K8L1zsBpymA/vmrs8VYzOE8v+4L2YKxZc5b3yMqENs9PDnLHn8I5QXe3V6ULLVy3zXszZ937Le6URTqn9Q+vm3stkDvv0Yd6LWd2DGZ7yc8oXc28BOORTubcINDLve9/7/k97e/uajo6OtQ899BB2jsaUGqbWerxhixvuHj3q0mioVDWwwgOzKpkd4TgTQgiREtzFP2aeeBOoNcZywHJUKhnk7ZehhV86NOVuhBAiPSDNgdicFL8Z10FBcRv/qFrwy8HCL04TQgiREjAA8GbjtI3lMBK+Xo8R3ywR/uf8krjXBvkbrDmM8jbHHnvs1NWrVyN3g8cRdN10000Xu3oRcN2v5nov5oIfXeq98rLZ2zb0XiZz/fU3e08Ug83bVCpnE3LM9M95L2bHSR/xXvWo1JLvkbbmueT7uU8vqdQy6Q/tsJ33Yi686Mfea3zmzJlzVmdnZ29XV1fvKaecgj2KkMOBYak0lkcXtcUNhKAahOITGW/0ZOnqhBBCpIQgPufEb2+M7QWBf1AJ7BfgFwq/aFZsnK/l0EIIkVIYp50xfoc+bUTw4Uphv4Q1fsloRwEnNFRPmBBCiBRhBgOM3TTG7TB2543led8oEftFuNMo8zfc0mbCRRdd9JE1a9Z09fb2duCR0medddZprl4EzDrpC96LeWjhk94rL/Z+g2a616AUbn7yl96LufW5O71XObbfeKr3Yo6fUfvt8y+89wzvxTy76kXvlcZF+1/uvfVZ9nzu49Q//dncx61XiltuGM4VNfrjp++8887ftrW1DTob+OhHP/oTV2W3t4GPx00XvMUNVKrcWBGjb1Uxe8eqfRyBey2EECJFBLEZcRuvbTzH64LjN/5BpeCX4BeC8UtGooMfA9OiASGESCcuPjPHbmM4XydZXkZ8c4zwb/KLYUoNW9pwOg17bUTLoh988MEv4Ome/f39ePha6957732IqxcBu35sN+9VlmaaKhgr9kmWoFJP6gyx29ecunvu9FW1nuJpeWPtq96LOW3ebO+VRrhNz3c+cZH3Rue4Y3Kn1BY9kzvlVi6+NXt4CnPv/Sq/zVQtwRNAW1tbB/EE0O222+67roq7RtPsFjecUsu7NBqCUAmskFH1YBQhWPaBa84XQgiRQkyMtrE8tIKolOAA+0XoW8GR2AghRB1gptQYx+1r2qhUUnAIvwy/ZLbk3KCERwgh0omJz4jdodgURSUCPb8IvhgWB/CRBJicxWMIsjmcxx9//D8HBgZwP070eOkZM2bs6+qbngfvv8d7MV/+xje8V16aecuOQqlVziYkDU/xtDzwXO5TMOc+ea33SqOUJd/XXJG75dOl1+RuCVUujjp4+Fyc8KXaL0mvJC+88MKfkb/B0z+33HLLr7kqm7/hFjfI4WB5NJdGVz2HE0IRohCxDJfdCSGESCeM24zhNFBQHK+G4NgvRou+MMVGoiOEEOnExGfG7yQriEoKTtKXglEdqyF2QgghykMYw2GEvq1bjxHfHCP8Isjf2C1tsrkbln/7298ugHryxs/Jkye/19U3PdWaiz7+6Nzta44+JvdRus1CTz+moYf56SPD934sWrnEe9XlPRtu6b2YWbvl3ntTa86al5u7eHnta94rjY9NmuG9mEOnf957o1OtrW6233qK9zKZy664xnuNSW9v71rkb+B3dnYe5QrkbrCtzZvOuMUNOhByOOG9OOtR6VEGxcdajjpqOk0IIdJLAVNqBVOtaa3wC+L/rdb/LYQQonQYu8N4DiuIgj9YBPwC3CXabmmzgTNOq41/8cUXvwv1pGlKLWbO7C97L+bOBx72Xnn53jnneC/mw7vu7r3GJtyW5UozhQbKtdNxMYRbusyagRWow2yx4STv1Y7lq5Z5L5M5+95vea+82OXfoJQl4Pvut7f3MpnVPdjQuDxM6EJIi7n91tzl4Y3MuHHjDnMFptA4pQbja0yp4cmfNZ9SYxmaRjhCCFE/MHYDG8tDkuoiqhH07ReD4f/ksCyaHzRzhEIIIdJNGK8Ljt/VHGVYoaEvhBCiPkDsHs2I9bMkVpYA/x5K5HBgzN8gd4McDizK4biRzW9cKQKqtc36/Xfd673G568rF3svk7nk4dyczeoB7MxRW47c7tPei9llq+H8Q1qw2/xUaoufmR+c6b2YbbbY0XvFY/uR+lDpjBs37lOusDkcLIvmMmkkycIcznp5nEqMMiA21oAtaRrhCCFE/WDjdz4bkWoEfX4J+6Xw/4765YQQQqQKG8dHMsAyS7VGGQV9GSGEEKnHxnJoCAcQo8b0UT9QJPxPYTaHw+1sJjrL3ouzbt268uxp3mAcfPD+3otZ8foq75XGZm/b0Hsx119/s/caj0ptn19Odt5iuvcymc9+8ETvpZfZt53kvcrlvU7b7Zveiynl/qNLvn+e9zKZn10//Pj0ctJM97J94QtfmN3V1dXT2dnZO3HixDVz5sx53FXbHA7vxUEOB7kckJPHqdWUmhBCiDqDt7Dg4ZmuyGeAZQ7VnFKz2C8mhBCiTjD3TsLC6TTrr0feN8YI/zMYp9SwJDrflNovXSkCdv3Ybt4rL3aXW1DvO93aXZ5/teAK78U8vHyB99JDuH3NGXsOT/l0taObpIsnlv3BezFXLLjKe5Xjov0v917paEqtvMyZM+esjo6Ovq6urt7x48f3zJw5E2vCMZ2GaTVMqdml0TBOp2Wn1ao1whFCCNEAcFrNka8E8O3rCAmOEEKIUTFTaRSd0ADLRCQ4Qgghykle0ZHgiLoB2+NbO//eb2YNORtraeSEnU/KMeRtaGnk98/dnmOVAk83pZWTt79zy6yJ8mGm1EA+PxEJjhBCiFKA0IwqNkCCI4QQYiwUJDIWCY4QQoiqIMERqQXb01jDY42tvbz2taylETwu2dq7N56WY2kjzJHhUdvWKsW7NnxX1srJO7ecnDWRDiQ4QgghqoIERwghRFWQ4Iia8sbaV3Ps0vnnZQ07PFurB7ADNG3PaQfmWNq577nbc6xabLnhu7JWTt58842siXQgwRFCCDEW7F5pOY8hyIcERwghRFWQ4AghhCiYcePG2dFMPj+Rom/cGQXecQrT4wnGSCM/niB8Euf1i2/wXkylniRZKcLtWE7Y5WveS+cjB0KQNyOnzZvtvepyyoyveC9T1uXiejxBeeHjCTo7O/vweIITTzwx3+MJBpzhqZ+cassKUbVGOKHyjaqEQggh0gdGOH6Uk88AyxyqOaVmvwxI/EJCCCHSCcWmpaWF8ZwjGTuiIdaPqIbghP9p+KWEEEKkHJu7GWGEA1gC61clh4Pn6jKHg/wN8jh4jRzOr1wpAvbdb2/vxazuwdRo6VQrh2PzAuAXTww//nnRyiXeq0/Cx0TPmjGcswFbbDjJe/XBvMU3ei+TuW5JZfIco1HOx0pblMMpL05kDncFnuuOvM1b3mwOp88Z8zdJI56q5nD4H9PP+SJCCCFSjY3dtHBxgLX1qOaUWvhlWC+EEKI+sPE7SWxGpJJTaq3OOKXGpdGYUssui37llVe+h6fH8Qlym222mbZ1dRx3zNHei1n0zFLvlZf778KqxtKx0zLg9ud+572YelvqPBJ2CS9I467PI9HTjxmRYc6Y91XvVe88hUvJZ+12hvfKy5zZX/ZeJnPnAw97r7xce3XutPSkd+VOWzcS48aN+5QrOKX2pjf4sHxLonMo9wgn6T9hnTV+ISGEEPWDjePAvmZdXio1pRb+x/YLUWxQCiGEqC8Y321cJ/a99ah0Dsd+GfrWhBBC1Ac2bocxPHydSLlzOIA5HORvkMfpdGaXRkf5G5Qvvvjid5jDgU2ePPm9rr7pmXXSF7wX89DCJ71XXoqZf/7rysXei7n6iZ94L5PaJ26Wg2Omf857MTtO+oj36pMw31aLpdD7bbWX92L23w6rbcvPkUcc5r1MZulLy71XXsqVB60Hxo0b90lXcBk0lkQjhwMfdVgSjRzOoDMIT+IMViVHOFQ7Kl+SCSGEqA9s3B5TDK/GsmjCL5jN4dg7V4UQQqQaxvDQAEtg/RyqlcOhUWxoQggh6gMbu238LjiWVzKHg/wNrMMZ8jj2MQXR1jZPPfXUVwcHB1uHhoZaYNOnT9/V1Tc9dksOUKltOU754vHei9nzgP28l8ncsOgX3ot5ePkC7zU+NsdQqfxCtRjpvhtQi3ukZn5wpvdittliR++Vxqo3XvdezD8fdID3ysuUd2zhvUxm7i9+7b3G5IUXXvgzZqJgkyZN+rqrCnM4aGCwMIeTKELVHOHY5dCsy6LpNSGESCc+PofxO7RRqfaiAXxZa0IIIVKMGQxQbBi/GdcLppJTahAzTKm1O8O0GpdG0ybcf//9nx8YGGhz1oqptX322edgV9/03HFr7hTaN7+TO8U2Vlo7c68v9v333BnM5Ruu8F5z8bFJM7wXc+j0z3uv/knDMuiQ8/f9gfdiyvVk1Er1m5C9dtnZe5nMmd/5nvcak8WLFz/e2to61NLSMvSe97znTFfFZdDcLRrTaZiX5bY2qZlSg1EZaUIIIVJKkOqwcZw+sP6IVFpwAL9MKDZQTT6qNPxhQgghUoLJ4dBC0QHWT6RSgsMvwi9gX2cFR2IjhBDpxsTnbOx2xnhubVQqlcMBEDMYtrhhHgeTtbBoafRPf/rTvXt6ejr7+vrakcuZNWvWl1x901PK8s4wT/OeXYefQLnJBzb0XkxfNOXafDRyzgbYpdBpWAZdi8cRgEo9kuD4o4/0XiZz9DG5txY0Gnfcccd1ra2tg21tbYO77777Va4KORxraFAw5m+sGK1HpafUrPrBrEJGIxxrrk4IIUTK8PE5J357KypuV0Jw+AVsaS37ZW0ORwghRPowcdrGcPs6tLxUY4TDMis0NI5sJDpCCJE+gtjM2M14jrKo2F2JHA7gvTgwPmoaeRw+qiDK4Zx22mnT16xZ093T09M1MDDQ/uMf//hcVy8C7Dbr4IWVw/fL2BwNUJ4mGZtHOGGXr3kvplz3gaSFm5/8pfcymVufu9N7taNajyPYd7+9vRezugdPPS4/9rEejfxIafD973//wvb29v7Ozs6+//iP/0BjYu6GW9xgSxsYHy1NIUqkUiMcKl9o/EKRcajmVRQmhBAiRQRTajaGs46xm2VeKj2lRvhFWUarGSg27gehTgghRIrwQhOJjisoNNZQTxuVSk2pAU6pQdQ4rcado7lr9Aa+xOuudevWXevKpifc4fdHN5zvvZgXu1/ynqbM8hEuxbXTaI02hfbG2le9F3PavNneSweV2h36ul/N9V7MBT+61HvlZbO35U5TX3/9zd5rfPbff/+TOzo6ejs7O9dee+21z7oqbGfDKTXuEl3QkmhQjUUDtFAZQ8v7JYUQQlQfPwsV7aXmXobxmiVtVKo5pUYLv7g1IYQQKYFpD/8yjOF8Hb6fl0oKTvglYFZcMATjMIxfXgghRHqweXZrjOmkoPhdyRwOgahxeTS3uEHOBhPpyOHAotcvvvjit/Hkz3Xr1kXfa/Lkye9F2YiE8+53LL7Be5nMXcvme08Uykg5G9BoeRvL1Y9c7L2YtD2dtVKPIzjumKO9F7PomaXeKy9HHZy7tdQJX8rdLqiR6O3tzSaQITSdnZ2fdS7quByaORzUcUsbLokORWg9qjGlFqogjCrJUQ5HOuEQTgghRO2w8doaYzmtIGqRw4HZL54VHQmNEELUHhOLbay2ZuM5KCh2V0twCL6U/dJ2hAOzP1QIIURtsfGaxjgexupRY3c1cjj4P2AQN9yLA8P2Nrgfh/fgRHbfffdlHzmNXE69P3L66eVPeC+TuevZ270Xs2jlEu+JsdJM29VY/rpysfdiLpife59WGth+46ney2SOn1G+nMeD99/jvUzmy9/4hvcqi93KBjTydjZ4pDQu+nGjJx5LsNVWW+Gx0tzGhobX2DcIxsECxGZUwanFCAdGpbSjm2hKzZqrE0IIUWVM/M2J0c7sKKfoGF1NweEXhFmx4V2qg1BVCY0QQtQGxF/GYR+LuQotG6edUXBAUfG6WlNqAOIGw/JoLI22TwDFlNqECy64YEZvb29HX19fB6bWzj777OqMmQskXMr86Av3ey/m/mX3eS/m5bWveU+Ug2barmYkLrw394mZz6560Xvp4cjtPu29TGaXrXJ3cS6Fgw/e33uZzIrXV3mvvGy/de6U2WVX5E6pNTJXXnnlT9rb2wcwnYYdog877LCbXDWn0bidDZZDY0ubfmdFjXiqMcIJlRAlvyQVEzaAx5i6H5rd1NPVCSGEqBKMvbjR09/syZFN0giHVjC1yuHAskLjLSs2/ocKIYSoIlZsEI9dVTY+e0OdFRzAclRqJTj80jD+EORwoh8q0RFCiOrj4i5HOFillhOfvdnYDQoWG1CNHA6weRz4WBqNXA6fAIoJeCyRpiGn09Xb23sVt7np7OysyCR9+CiAp5c/7r2Y3z83vJw5jXPljczOW0z3Xsynph/jvZhmyts88Nwd3stk5j6Z/qd4nL3nd7yXyWzUvYn3iueS75/nvZifXY+UQmX53jnneC/mw7vu7r3Gh48jaG9v7+3u7l579dVXP+Oqbf4GS6GRu+Goh4OIgoSnWiMcfhl+Magjy9EUVAghRBXA6MYZptOiFIerQkymuNjYXJDAhNRiSo0lvzh/CAXH/jAhhBBVAmLDtAZEx1WFhtgdWsFUU3D4xfglKSoUG5a0SHDww1EKIYSoLIi3EByIDVYNuyqMbmyMhtlYXhTVyuEQm8uB4V4cPLKA9+LA+Njp7j/96U//F1vcwKZPn76rqysLNz/5S+9lMrc+d6f3RBr42KQZ3stkDp3+ee81H+E9X+feM3zvzeoB3AaRLsJ7pGbtlnuvUKE8tXB4Oyhw7Eknea+y2Htvmum+mxUrVryAEkID23TTTb/kXjJnw61skLth/oar1ig+oGDhqfaUmsWOcuzIhhYN61ypUY4QQlSIIM4mxWIYYzUMn2NMLio21zKHwxKWT3QkNkIIUWFMnOUIhsZYbIWGny06Nld7Sg3g/6Rx92gsj8a0GoxTauMvvfTSj/f19bVjm5tZs2ZhqFcW6m2JaSNjp9BAM0+jWdL+FM8Qu5UNKGY7m1VvvO69TOaE44/1XszSl5Z7r7LYpdDNtAz6t7/97c+Zs+no6Ojfb7/9fuWqOZ3GqTVuZQOjAFnhKZhaTqkBfmk7wskqK1SX5l4LIYQoI4yvEB2Yq8o3urEjnDFTK8HhF6fxB/EHRuaVF/VCCCEqAOOsj7VWcELRsTF7TNR6hAP4Q/ijsoKDA0D1da+FEEKUEcRWjnJgrgoiY3cSYFxmnC6JWuRwAHM4EDwYlkZjiTS2uVlveTTMbnMDStnqxm5n85XbT/aeqAbHTP+c92J2nPQR7zU39umw4IeP/NB79YHdygYUs53NrJO+4L1M5qGFT3qvsnxoh+28F3PhRT/2XnOBrWza2tr6XTzt6erqWnvNNdc866qZw0HuBkuhkbuhAFF4xiQ+tRzh8EvDqKDZ0U2CCSGEKCN+BgnpC3ujpx3dwEoSGUutp9RGEp1wSKcl0kIIUUYgNFihhqk1lK6KgsP4a8WGNmZqJTj2S/NHhGJjfzRKIYQQZcSPcIbc6GYAT/p0VYzBMA4CKDpkzKJTqxwOYR4Hjyrgo6fDxxVEOZ1HH330hIGBgVZudfORj3xkH1dfMr9ZcKX3Yu5aNt97Yqx0RCm5YQ6bdqj3MpkZU/fynrC5xDPmfdV7MWncvsZSylY2c2Z/2Xsxdz7wsPcqx4Qu3Oo3zK+v/bX3Yjbc6G3ea3wWL178OIQGi7K23nrrs10VGqLdygY+6rB4gPfeUHjAmAWn1lNqgCMcGH4QRzQw/ODIcIA4paapNSGEGDtuVMN4auMtzQoMY3NZYm4aBAfwB/FH4gdnxcbZAIZ9OEAsXZ0QQogiQfykuZeItaHosM4KDikp9qZhSg1A+GDY5gbTajBudRNNqR1++OFb9fb2dvX393cMDAx03HLLLRe6+pL568rF3ou5YP753hOF0r4Op22YBT/9i/diJg7gdMace1bu0xS33WFH7zUfdvuatG9dE1LMVja1mEIL+dbs3CnLvfc7wHvNx4UXXvh95Gywlc3xxx//e1cVTqdxOTQFCCJD8SmJNI5wrOJmRzk4QFxNAXN1QgghioQzRX5VGmNtOLKhMTaXhVoLjv0hoejwIESGFRTuAGFqLVoz7uqEEEIUiRebkbaysWIDGkZwAIWGRsGBZUc4XnCiNeNOofEZIYQQRcL8jZ8pCsWGZmMyYFkStc7hEHwPLpHOl8vJLpF21vXMM8+cNjg42MLtbqZNm7YTylK5dP553otZtHKJ94SlY83w0ueHf7LIezGDvfmvB8LlqWedPsd7MY28NXy9b19jCbeyGdeHuxqGsY8ZqNYjBkIO2uvj3stkvnr6md5rPt58883o8bF+kUBm4sSJx7sCy55h4VJoLoeGAKEjw6zwlERacjiEPww/Eipr1ZcHARY9usApdHaptBBCiILgKMbG1yiuOqPAlFVoSJoEhz+OP5aiYw9MdoqNw0Ln674cIYQYgSBW5hMbCg4MlD2upkVw7A+DD+MP5wHJig1eU3AwynGvhRBCFEZOLPVmBYcxmJQtxqYlhwP4XZjLwaQwczl8BDVzON3nnXfeLr29vR39/f3RI6jPOeecr7v6ktF9Ocn0PYu2OMyfflOZ3NZRBw/fH3HCl3Lvnag33lgbTZ1nOfee3O1f0r59Tcj2G0/1Xiaz09Au3os5/azcHMnqHtzGUV2mvGML78XM/UXu9jXNypVXXvkTLrrCvTef/OQnb3bVvPfG5m74GGmIDjo8haZsgpO2KTUCH5Y0ysEBiVatwbDSwq+2EEIIEYD46GeDeO8NhcWOcio+ugFpWzQAQrHBgYDx4ERml0lLcIQQIhkXIyOhwfNu/DNvEEMpOnZKzQpOWYWGpGlKjeA70SCIWH+LqTVMq4VTa7TOZcuWnYkl0rDJkye/19WVBbtMutGXSHe3Di9ZfvaWv3kv5qUFK7xXPcIpkpNPzH06a9qXUDfaEvsN/4KH8Mbcdd0j3qsdYfu45NKfeC+mmXaAtnAZNMDIZuLEiV90LuY4MYfLKTSUMG5jkzTSAWUVnjSOcID9sRzhUIlzRjq+DiaEEMLjV6QBxk/GTDulhnrGWCs0oKxiA9I6pcaSxqk1iosVG5TRfTk091oIIZoeHw+LERtrZSetIxzAH40DQcHJJzrRMmlXCiFE0xPEQys2OXHTWyg2FSONORzC7wZRhCGPg3xOuN0NrPvss8/+EJZIw8q1RBrYZdKNtkQ6fGrjZ6YPb0fyw29/z3sxtdhSfjT22mVn72Uyx30xN78z6V1TvFdd5i2+0XuZzHVLbvJefdIRdblhHv7Bk95zV34jbF9USWzeRjmbZLAM2i8QGIB9+tOf5jJoa+EjCHAxbwWnIsKT5hEO4UEIRzlU6kitcYC1RFoI0ewwDsLMqrSceOkM9YiVSaMblmUn7VNqBD4PDgWHFh1ALZEWQohIcKJ7bgLBsXkbCo4VHVIxsQH1NMKxogOj8ESqjftycHAhOu61EEI0JRAa5HAQD73g2NwNRYdiQ4GpqNCQNOdwiM3l2O1umMvhvThRLsdZ9OgC3I+Dxxe412V7dIF9JDCot8cC77fVXt6L2WvqQd6L6WrH4UsmDY8JLobtt87N4fzzJ/bznvvdn9jfezGlzP039FZIL+SGh8d++ZT3qsdI99ooZzOMfQTBxIkTT3Au8jP2fhsYXo+Uu6m46NTDCMeCA8LRDQwHjOqNMvKp8Fq5JoRoFky848wPYyJjJIyxkzNFoGpxsl6m1FjC7HRaeGCjg0qxwVymREcI0Sz4eMe4GBpjJgWHMRVUJU7Ww5QawPek2ak1u90Np9e6P/nJT07p7+/vdNYxODjYdsstt1zo6kumpx8j0mHOmJe7m3Eadv+d0NblvZh/3/EY72Uy22yxo/dK57pfzfVeJnPBjy71Xn3yoR22817MtK239l4m8/6dc3dFfs8207wX81+PnOO9mHrbAXoknrxqqfdiel6p/G8Lz8W3zv6u92I0jZbM17/+9XPb29v729raBubMmfOQq+J0GnaEhg/jFjYwjnCqKjj1MqVGJabxYIUjHBzQPhz41tZW7CSNVWtQcyGEaFi4SheC417auEiBYX04sgHWryj1mMOhcS4yFJ0+PPPBHfis6Lg6IYRoWJC3hvlVaaHYwFDPC3UrOrCqUU+CwwODkgeNgpMjOhAcjHL8SEeCI4RoaCA2uDUE5l4miY0VnKoLDamXHA7h97W5HBiXSSOBYZdKR8uk77rrrs9iibSzViyX3nfffXPXA4+RJ5b9wXsxVyy4ynvVY+ctpnsv5lPTh3M2YKSlzuXiwfvv8V5MGp7+WCk+cnLu8e7pbJzf1tU7/HgK8IcfVGfZfyM95bVaLF68+HG7MGrrrbdGMpG5GuRtknI3nFKrmejU45Qagc+Dx5EOFT07vYbXUH830omGnFq1JoRoFLzoIAba2EcfMTE1oxtQb4JDeNBgVnA4nMwRHEyr4cTQXJ0QQtQtXmhsTKPI5BOdUGxqEgfrUXDsAYNRua3o8KBHhkQaRAejHAmOEKIRoNj4mJaNd86s0MAYK63VhHrL4Vjw3WnI40A8+fiC9e7N8YYcT8eKFSvORy7H+ZnNNttsMspyUKmtb6p1b025WPXG696L+eZpX/NeJvPQwuEt7uuB9x061XsxHe9BU2tMXro9+2TiiHI9Vjzcnua0r5/mvZhtd0hfG04bvb29yMVk2WmnnU5yIxzM3vS2t7f3PProo6+46qQtbCg+vDCvqeDU65QasGo90ignujfHW6T65qpACCHqCh+/cI8hBAe3gIRxLt9UWs1jXj0LDrEHk6KTM6XmDXU8EUIIUXfwQtmJDR7JEgkObv9wVYhxFB1edFNwKDqAZU1oBMEBFBsKDkc6FBqKTvSaIxyePCGESDs2XnF009HRgSk1xDVOn9FCsUlFrKvnHA7hb0AJAbX35iCnY3M5kZ188snb9fX1RfusXXbZZd92dWUh3Gvt/Hu/6b1M5uW1r3lvdD42aYb3Yvbf7gjvxVTj3ppKEd6zc+75uXtlrXh9lfdqxzumb+Y95++7ifcaE/sY6QfO/5P3imdCV+49PIfst6/3dG9NOfje9773305ksJNAdHPn8ccff5er5n02SXkbKzoUnJqLTqNMqbGEUdU5rMSBz45uUOKkuasD5HLwOSGESDUQG8QsiA12UnFVHNWEuZt8QgOrOY0ypUas4NipNZ6I6ORw6xsIj3sthBCpxo9uos05ITquiqMZCg7iG+oZ96zgpIZGmFKz4PckTa3lXSZ94403Hjo0NJTd9ubQQw/Nnb8qgeWrlnkvk7lwfu7U0Rbjc6dq/m37z3gvk3n3xrlb4DcT9rEH//Pzn3svplLTbRO2xMNih3nvZ8q2Uj71vPkoZmNilsx73nvJ2GkzO2UGjvzccd6L0WMESmfBggX3I28Dsdlhhx3+21VBWDiNZo3CwwtrXnRTcFIjOo02wgE8wHakwxPBYSiHoHiUAXaU1rY3QohUgXhEcy8ZvxjDaHiN9zi6SaXQkEacUmMJo+BwWi08YX2YF4VRdFydEELUHI5ufFxKvGB2hnorOIx7NhamhkYc4QArOBQdnhgrOL1+XjQrOq5OCCFqDkc3LjZZwWH8otiEIxsbw1IlNqDRcjiEuRwY8jgQVrvtDfaK4aMMsvkcZx1/+ctfTh0aGhrHrW+mTZu2E8pSsfkcsMWGk7wnCsXmd8Att93qvUxm0TO5j0Meia5Nc7cK2vFz/+i9mL6oDzcHC36w2HuZzMbdG3gv5tADhh8bAA467HDvKUdTCVasWPECSj+Fltljjz2+6cQGF8V9jz/++MuuisufUYZb11B0Ui04jTrCATjYVHwYRzk5Ixxj0RWDH8LqplAhRM3w02ncTYAjG5oVGSs0NmalMn418pQaSxgFB4YTFQ5Ps6LjBUeiI4SoOog5NBeDuHWNFRtY0qiGsQ6kNm41+giHJYyiYwUnR2xgwQlP7YkTQjQWNvbAIDaYTvOCwxiF2BUKDmMcSHXMatQcDuHvQwlxhSGng/08mM/hPTpRTucDH/jApgMDA52woaGh9nvuueeblXiUgSgvy57PzeH8/nfD+R3w+KInvOdO/seHt3MBa1vQl5uDqa1TvBezz5b7e0+PCag29pEDEJhDDjnkVC8y0ajmV7/61V/dW/Z+G5gVHs7a1I3gNPIIB9iTwKEnT1LSKCdK0Pl5U2zyqUcZCCEqCuNLS5yzGYDgdHR0hLGJIoORDYzxDP/WWqppdMEB9iTwpFB01pte87uv9nrRiabYXH22UQghRLmwcQWjGlhnZ2dvV1cX4hFWonE1mh3VWLGpKxp9Ss2C30qzU2swTKthii07tUb/xBNP3La/v78dO0tffPHFOY8qdA0DnxEpJNy5+5IHhrcWenbVi95rPs7e8zvei9mou7F3w04zxxxzzOnuohb3AGJ/tP6LLrroaVdNkbFGwYHZ3I0VnboQn2YY4VhwUmA8WYmjHGO44og2+XTD3Wh6zdUJIUTJQGwQVxBjYK4KMSef0Iw0uqmbuNRMgsOTghJGwYHhZCaKDgUH5l5rak0IURYgNogriDGdnZ2IPaHY0BCb7MiGMYxWNzTjCIclrxTCUU6O6CQ9ykCiI4QoFYxwEFsQYwLBySc2oeDUHc2Uw7Hwd0Nw4fNRBuH2N8zlwDpPPvnkbD4HjzP44Q9/+A1Xn0U5nfRw6fzzvBezaOUS7zUX4dNjD53+ee+JWnDVVVdd7i5eo70bjzzySKzdh6iMtPQZYgPjBbIVm7oTnWYb4RCeKJ5E2EgjHVx1RPkcGIbCaDAa6QghigExw8WP6Omd7iVjDWMMhYZiY0c3dS82oFkFB9gTZoWHVxS2IUSGYS9FxzUYfEbTa0KIguHoBqV7yQtaKzQwxqBQaBhr6jbmNLPgEJ5InFic4PDKg9bT1dWV+HhqiY4QohAoNi6G2ItaGl5zZEOxCQWnrmNNs+ZwLDwGKCHAMN6fg5wOt79BTsda59lnn/2BgYGBNhhyOt/+9rdPdfWiBvxmwZXei7lr2XzvNTe676a2XHnllT/BFBpHNp/5zGeQt+GsCfI1LGEUHI5uYFZk6lpsgEY4uScTxpEOh7W8CslOrXmLVrBhpAPzc7JCCJEFQkOx8aMaO6KhWaGh2NiRDWBZ10hwckkSHTu9liM6EJykKTYhhAB+Cm2AscJV2RhiBccKTUOKDdCU2jB2ai3f9JrdYTqcYuuYO3fuvphac9aC8hiHqxcVwk6jaQptGLsUWsugqwum0JDT5ajmyCOP/J2r5gWrvWjlawoO8zbh6KZhxAZohDOMvZqA8UoDDQCNwY50bMOhYZfpqJE5ix7i5uqEEE2EzdfAXJWNFczZwKzYcHQTik3DIcHJJUl02BDC6bX1RAdDZjY0NDpXJ4RoInCx6ft/NI3mqhgfuDAAPuMH3rdiw7hj41BDIcFZH3uyYRzpUHBg64kNzDWwqJFRdFydEKKJYN/HAgHEA1eF2GBHNjDED06jUXAYZxpWbIByOPkpNKcDYx7H5nY6TzjhhGmD2ganbGjpc2HYpdBaBl1ZrnB4kYlGNkceeeRtrpojGIoLSxgvWiE0MApNw4sN0AgnP/bkw9AgcCXCkU44tRYOl6Odpl0jjJZM6+ZQIRoPv01NJDYwV8W4gFjAuJA0lQbD5zm6sfGmYZHgjIxtBDQKT5L45DQwCA5Fx73WjgRCNBhcIJCQs6EhLoTTZ1ZkaKDh44MEZ3RsY4ChocCSxIZlZHhMLEXHvY6Q6AjROFBsXB8f6OzsDAUH8YCCE4oO44iNLw2PcjiFky+nw0dVJ+V0snbyySdvw21whoaGWvW46tFRzqYw9AiCytLb24sZiyy/+MUvrnFCky9nE4oNL0o5I2KFpqnEBmiEUzi2ccDYcJKm1sLGhxVsely1EHWOvakTfdlVJfV31tlRTdOLDZDgFIdtJLCRRMc2wLWYXoPoUHhcXdR4JTxCpB/bVyE2yNf4KbTRxAYWTqGxzzdd39eU2tgYaXoNhmk1u9M0l0ujxHudhxxyyJYDAwPR00MxxXb11Vd/2dVHbLbZZpO923Rou5ri0Y7Q5SWcQps5c+Y5EBnMTGBUc/HFF//ZVSfNZlBoYLwAldgYNMIZG7bRwDjK4UiHjc42xuzqNZgb5fS5xhutYNMUmxDpBP0SYoN+ipkJPzvBfp3Tp51RgDSyyYMEZ+zYxkOzwoMGZ0WHjTMyNxzHFFtkEB4O2SU8QqQD9kX0TwgNpsMxNe6qrNCwtCMbmMQmAQlOadhGxMYFS8rnoGGu8bZ2/PjxeGQ1lk0jp9MnsREiPdi+iGk0ig36ratiX6bYwOzIxgoO/o6NE02NcjjlIczpMK/DnA4MOR3mdaI8jjPmdbqmT5++8eDgYPvQ0FDHtdde+++ujC4G1q1bN869tyv8RkRLn4tnv6328l7M/tsd7j0xVl544QXkZSKh2Wefff6rpaUFU93YJaRvwYIFr7m3eOGIkhaOamAQGYgNhUZiY9AIpzzYRkWzI51wtEPLXiG5qyhMrfW5Rp4z2tGoR4jqwH7nxQa3MKBPos+in7KvhqMa9Gv2cU6n2zgA1Ic9EpzyYRsXjNNrvOKh+CQJD+7Toej0+iQlVsUMSXCEqDwUGxhGNe3t7VF/RL90b8Os6MAoNBzZhFNo7LfqvwYJTnmxjY1GwQlFxwrPWiweMKITiQ3NvS+EqCC8uHNigweoRRd+nZ2dWNyD/mnzNRzVWMGh2NBs/xcG5XAqx2h5HeZ0mM+xOR3WRe//7Gc/2xs5ncHBwRaURzpcfYTrEKnfEqenH3015qePXOS9mEUrl3hPjMSENjSNmDP2PM97MV3t2hWpWH73u99dzxENxGbPPff8uau2MxC8GKQfigyMF5OhwEho8qARTuWwjY/GBpp3pBNYVIclme6KawAjHxg6iasXQowRiAymrdGfXP9CfxypD1J4rOBw1sL2b6C+OQISnMpiG6Mdcoeik6+xRw0eHQIG0UEncXVaTCBECXjBwfRZdCHnqkYTGxj6KwUH/dj2b6A+OQqaUqsedooNQk/D9Bp3m7bTbPms/cADD9wS2+FgW5zLLrvseFcXLZ9GOXny5PeirCV2Cg1c8sB3vZfJPLvqRe+JYjhk6gHey2T2nHag98RIrFix4gXvZk499dQf42LNXahFI5sf/ehHmMulgHCmgRd/HM3ArMhAmCg0KIHEpgg0wqketmFylGNHOmzovNLiTaJMWGavutxoJ7stDkc6GvEIkQz6BvoKDNPTuInTVXP0wn5l+xrfg1F0rOCEoxv1vQKR4FQXNkw2UjZeig+vtvKJT9Q5sKLNdZzI0Jm4wkaiI8Qw7BMwTJ1BbLC7h9+eBv1ptS+zfcsZ+hzeRz+EyIQjG5oYAxKc6sPGyoZLweFIBw096QoMFnWM7u7u7LY47qotKzYw974QwmH7BUY1FBu/PQ2FxooO+xwEJ2kajQasLwpEOZzaYXM61mxuJ8zvIIdjl03Th0Wfu+aaa/biEmrkdWqxhPqvKxd7L+aWP1/vPS2DLpTNu//BezGnB0uhhVOF4DECd9999+0c7fulzte6ak6J2ZkDXtTxPRoFhsYZiFBcJDRjRCOc2sFGi5ING8bGzk5gO0riiMdb9BmuZMPKG3Q6VydEU4D2TvMrz9hvbJ+xZkc0VnySRjbA+mIMSHBqS1JjtqLDaTYYOw87SWIHajfLp9HpOKXg3hOiIWEbh9BgihntHu3fvcV+ktRf2I+s2FihobFfqg+VAQlOOrCN2hobPToCjKMd24E4/xxZV1cXHmONlTjRzaKuLkKiIxqN8GKKF1soYa7K9hH6FBlYOKKxYqP+UgGYRxDpgufF5nVQhnkdlMzhhBZtjbPDDju8bWhoCI89aLv44ov/Bfkd5HZg++6770HuM1XljbWvei/mvud+572Yx/7+mPcymZfXYlf45uSUGV/xXsy7N57mveZmwYIF91NoZs+e/Ws3qonurXFC03/dddf9zX0EAoILMxrFxdbxAg7CQpHhRZ4VGolOmdEIJ52wobMD8KqLV2G2U6Ez2Ss5Xs1FpbvSwzTbWtchsTFoNNVAc+8LUVcEeRrs6oxNNrFqEyMXtn9rdlSD/pI0omE/C/udKDMSnPRiG78VHF6doeOgE6Ez2Sk2KzxrOjo6IDbR7rfOuEWOFhSIuoRigwsm15YxfRwJDm4VcG/bts++wP4RCg5Fh32LIiOhqSCaUqsPkqbYaHaazS6h5jJqmK2DRZ898MAD34kpNmetsO9+97uHuvrUPGV0+apl3otZZKbbwILlw6/rfcuc7Tee6r2Y42d81XvNBabMUHLa7Gtf+9pvMGXmRCYald9www0vubftRZc1Coo1fpYCA+NFnBUYCU0V0AinPrCdAsaOw05np9fsaAdXerixzd7clr36w9UhrhLdiAcLDPpx5ciO7t4Xouqw/dGcyPSjjdLcR2zbtu2bbZzvJ41qkkY0QO29Skhw6gd2EBo7DgwdiVd0FB8rPOygtnNGD5eCQXic4ODx1tF0hQRH1Aq0PU6ZwdA2OW3W1dWV1I4pPGznodBIbFKEBKf+sB0FZkXHjnjQ6WDspKGt3mCDDdb4bXIiY24HHd29L0TVYftDifZIoRk/fvxatFf3ESsyNIoN23w4qpHYpATlcOqbMLdDs/kdlMjZFJLnyeZ7DjrooGx+Z926dS2zZs36mKuP8juwPfbYY1+8Bi4opO6Rk+H2Os+88rT3MpnX1r7ivZgVa3JfL12V3dU+s3oAF8yVwT7F89Tdz/BezEbdm3iv/gm3oHn66aej5Bunzezy5ptuugnJOF440exoBcb3UdLyCUsoMkBCUyM0wqlv2HHYodjZ2PnYGdFhOeoJczyw9a4aOzo6oqk2zJtjHp1XnTT3GSHGBKfNaGhfmNLFaMa9bdtlkrHthlNnVnjYD2DsG8T6ospIcOofdigaOxoFh1eFFJxQdGg5Hbqrq4uCE82huzK7nBrGq1P3WSEKgm3Gig0M7YvmPpZ0QcTXNIqNFRwYL7Ss6LCNsn+IGiLBaRxsh6LPTkcBsiLEUU/YwaNkLObLMW8+YcKENbjy9IJjtw2JkOiI0QgvTiAyGDHjAgZtCe0LbQ3m3k5aCABDO2WbHU1gaMD6osYwByAaD3tubX4Hli+/g/yNzfGE+R77GVrr1VdfvSfyOkNDQ1F+Z5999tkNpXsvIg2Pva4UYa6oGLraxnsvk9liw0neq0/s45zBfffddw9KiMupp556lxMcjIoxQh5cuHDhG+4tToFRPCgkVlBg/FwoLKG4WFGRwKQUjXAal7ADWkNnRecNOzyuIjni4RUmrzbDPE/26rOjowP3SOB+iWj0g6tZBJrwylY0LjzXPPd+BBONip1hBSS2WYrMfdy2I9ueWLId2hFNkujYNg2sL1KIBKexCTsjOyoFh6LDjh3meMKgAFtPeJzgRLtTQ3QQYGzgQek+IxocnnMa2gHbhfORA0ROEPd+2baTdBFDsWFbzDfKYXu27VuknOy0h2h47Lmmj5KGiw8aptis2Sk0mJ1Wg28/w3+T/TsHHHDAFuvWrcMS65bjjjtuZ0y30XbYYYdt7PTbtGnTdvKuqDHhNNm9DgrK5Zdf/rCr4kUFljMvd68pBhQGGMXCioZ9bQWFxn/LiyOISWjE+iLlaITTPNiOSh/GTm0DBKfYOOrhiIejnmhhgbe3gtc0fp5b6HCJdc6O1S5g5VwZu8+LlMFzE5w7jF6yqxjdx2z7oCW1C9te7KgGf4PTZ7BQdGhhGxZ1hASn+bAdlT4sFJ18whOKT1JgYV30PlYhwVxgila7wTDl4gUH8/1YHourZX4vkQLshQAFB+cN549iw3PrPs62kNQeaHiP7YZtCe3Kik3SCEdC0yBIcJoX23Hp06z4wHjVSeGBWdFhycDCq9io5BY6zjCHn30iKQyCY819XqSEUHC80PTjHGK7GSyZx1LmiRMn8lzT2A5gaBdsIzS2IRhFhiahaWCyc+ei6bFtgT7KJMOFCi0nX5NgNrcT+vYz9LN/c86cOdsj7+P8aEudj33sY9vRR7nNNttsixJsvvnm7/JuhAuKqdtup1rYrWRefvnl570b8fTTTz+FEgKC8k9/+tNSvv7xj3+8yNdDYIYWLVq0yvm8+LCikGT2AiWfWSGhmOQzYn1R50SdWQiH7ej0YQwOYfBgoEmadrNXs7zCpfGq114Bh1fDsGi5Nc1dXUfb69AwGkJwpLnPiwTsMeIokseQU5s4thi5OJ/Ll9fA3D+nheeGdUn1PO/5pstCcUoSIKLz2mBIcESI7fT0bVAYTWxoSaLDAGUDVehn/01XV1cvDMEQQdEHyOgOdZhEZ2R4TOwxsscPooNj66c58VykaPkyzL22543nxpqtp89zZ9sB2wfaSig6tl2xnbHN6Xw2IBIckY+kjm/rYDZg8Io1nxjRKEYMUgxatGweYMKECdjyJHp8MEoIjhedyBBAKTru8zmBFa+bFXsMeHxY8tjhOEJsvKj3uWOMBQCrnU/jeWFOhucqFBWe1yRhYZuw7QTG84PS+qLBiebChSgC22aSfJQwXMywDI25Guszh1OshX8v+j+32267DeAz33PYYYdNoT916tTNUGIrHpSTJk2KXofg81OmTMnJDbnAPJ5/pxQQ/NeuXYsAHrF06dLnKRIhqH/hhReiZyg44Vi3ZMmSFdEbDrz32GOPvUzfFev+93//F/fEwGeAt0GfIsA6+zqpLukztp4l/7/oOxgDYWlJqhMNCjqoEMXAQBIagw1KBiGYHfHQwhFP0qhnrBb9HXcFv8Zdya/1himinHwQrvJxhQ/jyIm5jcCyS7ZhCOoYLZRq/u9Ehv8j+D+zhu/lvms09QXz3zv6HW5EgulG/B6U0bJzV5d0LPMdWztySarjv0M50miG55nnnG3AtgsYoG/rRJOAK0MhykF41W+DiQ0wDEYwBicGKpoNXnxdjPVPnjzZxetWiEhkO+2004YI3LBNN910PEpXH90DtNFGG433QsDgn/Xf5oDvBCIaQbh/1+79ks2NsKLHejt/3VtvvbXS/v/W8Bk3GloFH997lYMiCXv55ZdfdyXzXP0LFy5c6Y4BRYFGoQhFw/rW7AUCzB5fnhd7Lnl+AUtLUp1oMkqeGhAiAduu4PO1LcP67HSYsXDKzJb0bT0s/Fso89WFBpLqYSD0x0IYlFEmGUjyaTbIh6+tENCsQCT5YWn/Dv9ukoF8pRA5jLXTCFEIScE59O1nYFYYaHxthSW08N+iTKpLeg8G6I9kgOVYsYE5n4GkelooBFYkWNLC16PVw/Ae3wd8DawP8vlC5FBqxxGiEPK1M1sPP8lCgQiFIyytFfJZ+ICvCzFi/UIIA/NIBpLqYaEgJL2HMulzYZmvzhpgCawPwtdCJFJshxGiVPK1OdajDH2aFYpiLBQY+541kFQPA6E/FsIAjjLJQJIPyycMsKT3UAfyvR8aCP0k8tULkchYO40Q5SRsh/Y1fL4OfZYj+bRChQaM9p4tx0IY1Ed6zXI0A0n1NGDLkepA+L4QJVNKpxGi3CS1x6QAX0gdytAPDYxUjvaZsRIG9jC4j1TSQL7XIPTJSHUgny9EyZTacYSoBKO1y/D9kV7D5+vQtyVJqs/32VJJCu6jBf9CS5DPJ0l1IF+9ECVR7g4kRKUotK2Gn0sSi3w+KPZ1KRQrCPk+P9LfCV/no9DPCTFmytl5hKg1+dpzUn0xnyWV6C8jBfp87xVTLyERqaESHUiItFFMO09bnyhGMCQuItVIcEQzU4/tX6IihBBCCCGEEEIIIYQQQgghhBBCCCGEEEIIIYQQQgghhBBCCCGEEEIIIYQQQgghhBBCCCGEEEIIIYQQQgghhBBCCCGEEEJUlkzm/wcqtDgDxl6usAAAAABJRU5ErkJggg==" parent="8le9z9f76cK8EGYcwLgO-1" vertex="1">
          <mxGeometry x="310.49" y="632.13" width="19.02" height="20.37" as="geometry" />
        </mxCell>
        <mxCell id="U9nG9JyEE-MKVYN0Ibzq-6" style="rounded=0;orthogonalLoop=1;jettySize=auto;html=1;strokeColor=#000000;endArrow=none;endFill=0;strokeWidth=2;" parent="8le9z9f76cK8EGYcwLgO-1" edge="1">
          <mxGeometry relative="1" as="geometry">
            <mxPoint x="336.25" y="642.1857129768757" as="sourcePoint" />
            <mxPoint x="460" y="641.9000000000001" as="targetPoint" />
          </mxGeometry>
        </mxCell>
        <mxCell id="U9nG9JyEE-MKVYN0Ibzq-7" style="rounded=0;orthogonalLoop=1;jettySize=auto;html=1;dashed=1;strokeWidth=2;strokeColor=#99CCFF;exitX=0.5;exitY=0;exitDx=0;exitDy=0;" parent="8le9z9f76cK8EGYcwLgO-1" source="8le9z9f76cK8EGYcwLgO-32" edge="1">
          <mxGeometry relative="1" as="geometry">
            <mxPoint x="473" y="410" as="targetPoint" />
            <mxPoint x="290" y="633" as="sourcePoint" />
          </mxGeometry>
        </mxCell>
        <mxCell id="U9nG9JyEE-MKVYN0Ibzq-8" style="rounded=0;orthogonalLoop=1;jettySize=auto;html=1;dashed=1;strokeWidth=2;strokeColor=#99CCFF;exitX=0.5;exitY=0;exitDx=0;exitDy=0;" parent="8le9z9f76cK8EGYcwLgO-1" edge="1">
          <mxGeometry relative="1" as="geometry">
            <mxPoint x="639.59" y="410" as="targetPoint" />
            <mxPoint x="639.275" y="629.63" as="sourcePoint" />
          </mxGeometry>
        </mxCell>
        <mxCell id="e8gKcgxvItoSALIgjx3L-0" value="" style="shape=image;verticalLabelPosition=bottom;verticalAlign=top;imageAspect=0;aspect=fixed;image=data:image/png,iVBORw0KGgoAAAANSUhEUgAAAE0AAABNCAYAAADjCemwAAAAAXNSR0IArs4c6QAAAARnQU1BAACxjwv8YQUAAAAJcEhZcwAAFxEAABcRAcom8z8AABFsSURBVHhe5Zx5dFTXfcff/mbfF40kS8iSEFtAYhGLWZzYBhKwjePGMbZ7ju3GaePGcUrcpP2j6elJghOndey23lJSG+qehvhgTEjDwcYGSmzALAYDEgiE0DbSSJp93mzvvXn93TtPYxYJzSAJLXzOGXSXJzHvO7/7u7/fvfcNSYwRXq93PvyoZxhmOkkqlSRJeQiCNGR7CYJhaIGiyDgUFUmSCEnKMCRJtClK5pQoyh/B751wu92x7NU3l5smms/nM2Qyma/RNPUwRVHVHMc7eZ5zUxRNQB2/8gH+BiHLUjyVSnWk0+JZWZb3iqL4dklJSZ96yagzqqL5fC1FJKnfQJLkEpqmbVqt1szzfDHU1SuGD4iWTiaT50Ux7VUU4jg0vWaz2VqzvaPDqIiWFUv7c47jVuj1xikwlNSeL5DkDHHJFyH6wkmiIyBIgUiaCMUlIpyQiEBUVBSSyJi0DG3S0KRFTxNus0ZxmjSM3cQTZU49YdJriavFR1aYSCR6ksnEefgfNjgcnk/VrhFlREVraWmx6HSaH3OcZo3JZJp69ZDzBuLE0Qt9yWPNoWRDp0D7Y6JR7SoIPU8lZ5boyFmlBqrudhs7vcx2zfCOx+MBEPCALEf/yu2u6FabR4QREQ2JpdfrfkHTTL3RaCxjWdamdhH+SCL14cnu0J+agnRDR8yaUQha7RoRwNgylU5NenG1RVxZ5zGUOIy5e1JgvEaj0VMwkRyNRCJPV1RUJNWuYTFs0WAW/BrHsRvNZvM0hmF5tZlo7ooQ2w+1+/Y1Bpl4OmNXm0cVjiGTS6ea02vmFRvqKh0500PDFkQ7DeK96nQ6X1Obb5hhidbb2/srmAFXGI2mOrWJ6PQL6e2H23r3NwQ1/ph0U8S6GqOGFu6Yak7dX3+bpabUnBMPJoxWQYidsdsd94M/lNTmgrkh0VD4AD5ks8FgqNJoNLNRW0hIKe9+0tq5ryHIdQRTLnzhGOMwsNHlMyypdQvLHaV2HW6D8CQUDoeaFCW+zuWa0oUbC6Rg0bq6utBs+IrVal0BYYQetfkCQmLD5s9TXWHRgi8aZ4DlJTc+Mp2cWWbD7gMN12AweAEEXOfxeM7giwqgINF6errWsCz/PbPZsgzMW4vafn+4te23n3i57rBYhC8ap1h0dOTr9e7EY3dWudUmIhDwN0Mm8jLEdf+mNuVF3qJ1dbXN0ustm2B2XKg2EW/tOe/beqibTEnKuBiOQ0FTRGLdPKf45D3VJi2XjR1hggilUokXXa6in+CGPMhLNBSscpx5i8VivQfVQ0Jafn13U8cHn/uLFYJk8UUTiBU15vBf3FNlLnVg74KG6iWSzPzUanX8BjcMwZCiQazD+P19/w0zzkOojiL5v/nPzzrPdAol+IIJyu1OjfCrJ+bojbpslARDtRuG6qJ8UrAhs+RAILAJLGyBWiV+uf1M60QXDHGxN6l/cUdjJBZP4TrcY5EkpfcgI8EN1+G6ovn9vT8zm02zYJasQPX/2H3u4genA8W4cxKw/1zE9OZHF+KQ9OM0zGSylPf19e1VuwdlUNF6erzLDQbTg5AazUP1Px5t73n3SI8BRvSE82HXY8cxP7H1QHMalXmeZ7VazUII2q87KQwqGs/rnuU4rgaVj1/oC7+5rz05UWbJQoBcWLf1cG94z/E2LJxeb2BpmtoA8ehMfMEADCgaRPyPwy/fhcqiJEu/3NkkQ0pUhjsnIdGE7Hzlg3bJHxZkVIc4VMcw9K9x5wBcI1pLS4tGq9U+DH7MjOqbP7rQ5gtLuVWLyUo4Ieu27LsUQGXk3xiGrQyFQnfjzqu4RjRw/M/r9Xq0fk909MW69zYEs0nbLcC+xhC4oh4snMlkckuStBF3XMUVorW3t5eyLDcflMarE9sOtiW6QulxnR6NJNGk7Nx13IeHKLI2lmXLw+HwGtx5GVeIptPpfmEwGJai8rmOUOuBxmA2ZL6FONAUYg+c9vpQGbRwSZL4j7jjMnKioeUejUYzS62iBUQiEJcn3Ww5FGlJsez6rCeDyqq11YG1LcKdKpdb2jdAtBmo0BdJhPacCU6aILZQDjVHPGcu9QVRGaIIBqztp7hDJScaxzF3g7I4hdh5uD0M8cukCmILZfdJHxYNWRsE9NNQuR+csKOhqdNpdxsMxiVoM+J7m472nelMOPAV16Hcodv/6+/MdbA0NWggOFzg/SSTUqa105/ofWnneWdDZxQH3AWhEMkf3F+1c9WcomXP/OZk0TlvVO0YHI+Z9b79/UV4jzYSiWRgmK4Hn/871IctTVHkdVqtDqdLoaiQbPQmcIw2FOuXlX42moIh4E1rtCxdU1VkWPrvT9XVvPXd+ce0XP4bWlYd27L9h4uOrJlb/A2Gpory/d2usFjc7Y9ia4PUikqnk+txB4BF43nNMghm8RrJ+591R/MdmjRNjuh2XD6UOXTznn901gm7kVNbBueJr5TvffvZesGs55apTTDc1EIe7DrejY86QBiGzpLMxY0AhTIASMqr1Dpxqj1W0BL4WDC73Fy7dp5n0HUvLUddevnJOZ/8+fLyL2t5OhcRIERJUUtDc6ojlpMY8lELDFMnKlMMw9RCdl+OKj2hePi0Vxj3oiGWT3cMuAW3co7r0JZnFvR9qcy8RG26glgq/527s15B0xWIdKAyx/EmcGOPoTISbRm8KlGlNyhIkbic916ljmPQUagxocKtr7QZvhiiFEVKP1hbvfuH62pcdiOP08CBSKZxwJ8XKUkp6Q3G8T1yHBqiEv4gQDR6VnZaBUuLJERcmCCU2PCGGHx4dNP/fL9+35r5nlUUSd6OGwchJeK4NW984TQ2TfD5RCZDYDcGail4VRbhC6WGXOodT5h08HYV4sLv/25x0mniB1yRuJpADC+b5U1vOIlTSRR6wAsfOqRAwdwMGIiJBcwtBBFPS2O6AkKTpAA/OuBm8l7rKyRcQYQSkow2lxEwGWDTBtGY3Ekaf0wq6HzDWPo0RCQhFbygkIHgvRCCMVHoFw0C7axo4EBzQxLexISyNJOWQZZWEOr9501PRALNspMHFPDMg0TKCRUQpPynlglKoZYWEL6YOdD2Hj78o9YxsqwUFKON9fCUFaXfSed98EaGdKcQhKRqZipgbQ6Yoensbilg1dMFiTZOJgJkASHcMAoUWVnwYdnJAz4c7PPBp1G5s/gW3S29GjQgbhPH9wcYsmqmVP/MgMBxTwGMl+EJ5B7aGGmcRg4MOjsAFSXDgJH1UbIsd+IWAFSdiBNBlZhR9qvlEcdpYnN+H9wAjZ6SQZaGt6wQjgJFg+g6dzB5LBCS8HZJovS+jZ9UdQUT29XmEcVhzB5kQyMSLC6CymBp6R5UQLgsuoKC28aO6KgNi3zQa7K+Ji1nyh996ci9Oz7t2AnW0IgbR4giC48dvSimkWhtqEwlk2IjZO/Y2qqKTU6SUPJO2o9cCC6FN3lKrY4tJMG8/MeL9/7T1sZ0Ii2/r7YOD1KJlzgM2G+CRiAage+VEkXxT8lksgFVDFpeV+bQ5nzcUPRGUtMu9gjn1Oq44P/O9s351mvH5l/ojm2DD7Sw7PwqphXp2gw6Ld4rSSZTEBdn/oDKFHqKQ5bFJlRBLJ9uLeipjo3bzlXBX8Obqzcb7NMGoCuYtH379eMPbjvk3QvCYYO4EZZPs6KYDE0AaHiK8XgqKxr6BxoawNHhG19V6ykoWGvpEWqfe+tUF/x+WG0aN7y6u3nVU68fD4lSpuBj70Dqzpl2nGvCSETraSf6HxPCokmSsg06sLUV2w2VHjPnReV8OdEaql33wsHUyUvB92GSuSniZTKKDB+YWhuciz5hyb3Pf+xo7RV2RBNi3g9bTHFqvE6rEW8DgDYJhqG24A4glzYFg8HfWiyWb6Lyv/6h8ex7R3uv2CAtBIeBa68sMvQxNDUq+w0ZJcM1dESnhuPiqC2aPrbE3fjkyprpaGj6fN2gW8rab2m5m4Ls/W9dLtcLqNzcFep+6o3Pb5nTQtegENKWp2d7S92WMjQ0o9HoIdBmsdr7xbIQeqw5Ho9fQOVKj6Vo3hRjbnK41aivNJwtdprwanAiEVdIUnkVd6jkRCsuLj6aSAi5J3G/vrDYRlNEr1q9ZaBJovXBhR4XmjVRFpBOp+KxWPwdtRuTEw2hKOJPBEE4hMqLp7sdS2vMOG24lbhrllVaUOPBR8wikXCC4zSvXP1w7RWiOZ0lZ2EMN4Pzw+nUA/W3UXqeuqHH+yYiBg3VfN8CD9YEgn5kZRGbzfYj3HkZV4iGkOXoc/F41tpmV9gqVky3Dn3EZpKw6ks2ekaZA29phsOhBM9z15yCRFwjGnpIPpFI7kdTLeLp1VXlPEPi0zOTGaOG7nriKxU4ZUqlkigLaLVY7G/gzqu4RjRELBb750gkgq1Np+H5v15Z5udZckS/cWA8gQ7MPL2yNKHTavGqTTiMfBn/DO4cgAFFA8cXkuX0ixAIYwtbW19e9c1FRZD8Kgl8wSSCJJTgo3cUcavmluPjDLFYFO0JHIBAfw++YAAGFA1ht7veAdH+CxwiPjXz+F3VZatm2yedtd1X54ivX16JzxfD/aLv8+h0OBxrcecgDCoawmq1PwtD9RAEvtjCvrO62jF/iqEFd04C7qg2tf3l6ql6tAeAZstwOBJmGParUL/umuJ1RUNYrdb10WjkY1Q26XjjPzw0023W0RM+6C0ys94fratxanjWgh5dDAT8Ijj/B+x2+5CLqkOKBqpDzEY+BRMD3rww6njdz9bPitWWT1yLq680tv/4z6ZlDHqtFkUJfn9fkmW5f/F4PEM+64nIexWip6dnrkaj2WY0GqegejCWll7d1dT24elAGVpqxheNdxQiuXqO1f/tldVFFkN2g8Hv94Nu8u+cTvfD+Jo8KGjpBqxtBYz9l2DI1iI/gHhjV9O594712FNSZsgj9GMJx1DdDy1wZh6/p7q4P68EC4uDoR1xuVx3Z0dUfhS83gUTQxGkWu+azeZahmHw0aPtB9sath7stPRExHH5lIvdwLZBWMGsW1yB3x/aWQoEAklw+q/ATPkcvqgAChYNAfbMgON8T683zOV53oPaTrYEmnd82qEcPB+2pSRlXDwfytKkf1mNJblmnpuoq3ThLyuAkAIl4lGtVvctiMXwwxSFckOi9RMI9L3BcZov6/X6arWJ+LjB1/S/x7r4Ty9GHBmFKPjQ3UgAniMOzj741TluZdksT2m/KwmFQmlIwr1wxd1ut7sZN94AwxIN4ff3gAOlfg4TRDl6SKGfD096u3ce8aY+74iXQrWwM5vDYEaJ7tLaOqdl5dzbLMh3IVKpFLKuNGj3vsPheqAQ/zUQwxYNkR2ufS+AeI+gJ3LB16k9BHH4bFcnehTwaEvUHE9nTGrziKJhqdDcckN8da2dXTy92Nl/ygfMCoklyXLmEsMoj47U1x2OiGj9RKNRF3yqm+ATroWJ4rb+TxohJFLpw+d84ZOtYfpEq5BuD6TR0x83bIFuM9M5p8xI1JaZyCUz3BaTXpM7K4eiewjIBfgZgcT7720222a1a0QYUdH68fl8lSDYmyzL1Gk0WgNMFmpPFrTF39wZDB6/FBaCMREdWyWDgkj1RtNkJC4zQlrWgT9kNAwp2I1syqZjMlYDm7EZuAzMhMTM24z6meV2++UWjYJUZFnxuKDAzxBJUhvAb72ldo8ooyJaPxDXTQPHu0FRMneSJG3V63UOntegLEO94krQjaOUpv9g8FDfgYtiLbRbBC8BhCJpmjoFYr0DYcTLw/Vb12NURbsciIvK4Sa/K8vSfSCGDbILK8uyNLKWyx5luC7IQrMvEX01K/q6GxFirQMkmdlst7veG02hLuemiXY5nZ2dDpalHgGXthzsqwYszAMvHViJCEaowM3j8QyGB0l0hoI+Gl4KiN1Fksp5sMETYF2bysrK8JbjzWZMRBsM9NWvYIFXnNQG64zdzK+YHhqC+H8/AE6B0uHNUgAAAABJRU5ErkJggg==" vertex="1" parent="8le9z9f76cK8EGYcwLgO-1">
          <mxGeometry x="836.5" y="430" width="77" height="77" as="geometry" />
        </mxCell>
        <mxCell id="e8gKcgxvItoSALIgjx3L-1" value="" style="shape=image;verticalLabelPosition=bottom;verticalAlign=top;imageAspect=0;aspect=fixed;image=data:image/png,iVBORw0KGgoAAAANSUhEUgAAAOEAAACFCAYAAACt1p82AAAACXBIWXMAABcRAAAXEQHKJvM/AAAfU0lEQVR42u1de5AjR33+Zm93wRuwdN6Qw9h6xYhXYVbGwSkKm5sLiUPAsDIEVwwLoyPlIkW5cjLmwAkUp0uME0ywtQEKEx6nwcejKIK1KQNHquBmgYBNINYSAsECVtJwxnY4rMVYtiXfTf6YX9/2zs5TGmn16K9KtSvNTM90T3/9e3a3ZBgGBPxhbnYmAyAKQKaf2Hc7NAFU6H8NQLPV7lRGqK4ygCR9wNXZDhWqL6tzpdXuNEWP8QdJkNCzI7LP3pCKXaWOqrXanfKQ1DPJ1VMGkAih2DqrJ9W1InqUIKHfDpkDkKXOGBnALVcAlAGUByk9iHh5qufCAG5Zp3qWBCEFCZ06ZIHIF9mhx9igTlrsZyelQSY/IOK5EbJIhGwKEk4wCUndLISoaoaFVQCFVrujhVTPKBEvF5KqGebAU6SBpylIOHmSrzSE5LMjY74XyTg3O5OngSYyxPWcaDJOFAlJIhQAHAip43iRIyySL5NkbAaoq0wDTVhOlprL8WhI6u0GDTolQcLxJGCWOmWky06o0acWVE0kQmToI3dJjA0AOS+PaggDzZqlrpUA9UzCDGnIXF27ae9VqmtNkHCypd8akbYcdmegeKNMNlpQCaKStGg6lFvuguR989DS4MfqGgk46EyEVBxrElKnLAXo6Bt0fnFQozA9Yx6AEnCAyPFSiryeRwJK94F6KImQ+YBquuOgI0g4/ASUaXSP+CTfjjoGOA9mPsAzZ1vtjjY3O1MKQOI62ZelHXw3QQeeNQDyuBJxLEkYUCocxhB55YiMxYAddGEUyOcwUBZ8SsYNImJFkHB8CDjUxn8XqrQbAntXd+CdFX1oAGNJxLEiYQACXtdqd4ojUqcCgENdXl6ngUYbgXpGyXzYO2lEHBsS+iRgneyoyojVLYh9y7BCBGyOWF39DDpjRcSxICF53e4YZ+OeYnBln+rpcqvdyY/4+yx5DDp1AJlxcNaMPAnJdtI8XpjaandyYzDYRKmubkTcPw6xNZ/vda3V7mRGva5TY9Apy5NAQACgUV8mqT62BKS6VqiuGy6nLczNzhQFCXcWJbhnh4wNAX0Qcf+4ZZf4JOIBUl+FOjqEduBqq92RMaawqKb7xzm9y4dqugEgOar24UiSkDpgzeWljHWGhaUd5GFZJqPPdc3B3fu90mp3soKEg3shZQCLLqOiLJZQGEsiFuGeiH/lKA5II0dCipkddzll/6TNR5swIlbg7B2ut9qd5KjVaRQdMwUPlUQQcLyRhbOjJkHBfkHCPo6CWTinNW3AnLMmMMagXF+3sESebGVBwj7BLQukIFbumhgiFmBmzNghMmqD8cjYhB624EjaAgKiP4yaJMx3aScKjKc01GBOR3OyDXOChOGOekk4hyTqwhkzsXCzDbOChOEi2+WLEBhvaVh2sQ0XafAWJAwJbqrF0EvBg8dOPO3gsRPywWMnfrfP95kbhZd58NiJyw4eO7F88NiJa4Q0HAHHDI1m6w6Hhy5BO6ZWnw7gIgAvpM/FAGI04L1YV9J3+SjjswDu05X09S7nPBfAFwG8WlfS1ZhafRGA7wC4SlfSXxzW9xlTqxfTc18P4KSupI/32D+iAB5yODwSqWzTIzBQyC7HyjvcoZ7BkY19zgcg9Vh0HMAVMbX6fl1J3+9wztsAXABglr5XaOQ/PuTvMwtA1ZX0F6gNFwDcoCvpq7tUSZtzszMrDj6DxbnZmeiwh65GgYRZD5tgEGSTiFxPB/BjAJ8lwp0bAuGc8H0A1wJ4t4O0/WMAP2G/6Uq6A+DOEXifTwHQ4L7PA9jTY5kanB138k4P1uNAQqeZ0yv9uNmjndPSsz7zszipkUy6XUQd5SsA3gTgigHU+5MAbo6p1X/QlfQjlmPXwlwU92qOmL8D4DYA79aVdJ1+mwPwdgCvpM7/IwBLdMmHieA3AjhbV9JX0TWvAXANSeOTAG4H8HFdSRt0/DwA7wTwEgAzAL6sK+kbuOd4A9nwzwDwAIBP6kr6KB37BIAXA3gkplZfSJfsic3ues7BYyduB9B4/8vPe1cXbVUGcKtL/xEk7NEeTLiMfqHhFw91pq86pt+pt09dBOBpfZRwflEn1TJHhOHJptAg8Qbu/Bki2D8BqMfU6pMAfA3Af5CUeJik5xTV7XUA5qiDblDZbwPwegB/BeCHAFIAPkR//5Y0gi8B+AKAlwHYBeBS7tkOA9hHg8RPADwbwEdjavUZupK+GcBH6J4PkDYBAH+gt0+dc8m5Z30IQKtLlbQ2NztTd+grsrAJe0PS5VioU5UeaZ+a0tun/og687DgXwDcwpMQwGsBfEtX0g/G1KrbtUsAfqsr6bdbtQeSkE8B8E1dSX+efnsygPcAuERX0vfS+T+OqdUlAPfG1OpNRN7nArhZV9JtS5m7ydmS1pX0L+nYD2JqVQFwV0yt3qor6e/F1Or9ABq6kr6bG1R+87qFc+7usa0qDiQc+jVohj1EIbuMfhrGH6sAzoqp1Uu4364B8DEf114B4FMuxyWLDfmHAH7OEZDZmr8kO/gSAL8le+7GmFp9iqW8lwL4T46A7Pp7AfwKwIV9biunQTky7Andw07CpIuqtlMYmJqqK+nTJAnfRlLjxQDO0pX0131cngbwP27mL4D7uO/nA/i5k7YOYA/ZhVeQmvnTmFp9b0ytnk3nnAfnUNIJcmL1E1oXfgVBwh5IWBt1ggXApwBcGlOrSVL3bvFrKgE4x+X4afowPAzTU2mHcwA0aWD4ia6kF0kyxgAcj6nVKbp+t8P1uwH8us/tNLIzaEZ1tbWJWbpCV9KPwfR6HoLppf18AMnw2gC3+jaAi2JqNcb/GFOrvwfgeXScf64GOY2SJEW/AWBvTK3OW65PwQzt/JfDfY0w+qHHciZD7ZwZSseMZWfbYRr1dkpSfoSk/yFdST/h85oPALg7plbfAeAT1NlfAzPkYEf2X8XU6s0AVmJqlXlHn0lOoZt0Jb0RU6tRIt4XSLJdDtOz+ktdSXdiavVjdP21AO4l8t4G4G90Jf24w3M2ADzv+/ojsVb79KnLLnjqfQPUqIQk5EiXnZudKc7NzlTmZmcMmK75W9HdVsvDDL8k/gqABzmCnARwEMDHLefdgc2lHtqkuj5E1zwAM3xwAYCvAzhGpHoCwCkAn7Mh4k0AbgbwXgDfBfA+ALfoSrrI2ZHPAfBvAO4iUl9OiQIAcAMR/hYAd5P0freupPlV0r5Hjh52z58B+ED26/fduXzPyff0qd2VudkZY252RpubnSnQEorD0yl2KneUlqpgn6BkO0yzq0PDLx7q7Fq++8HDAE5/7oHWE2QvPcF12lPkEPoqgP0AOpxdxY6zawzuOzvWgek9/A0E+tWnNPjfBbgOM0Za2umV+aYH3EhJUmfyGDIpNzUFY/7Ju/6bI90TRBz2vU1S5gka5RnJ2tz5pyykPc39PU2SRGA4kIC5fOIBCvQXAJR3Is90eoDkKyDYvuwDxcOPnZr+cP3hox5tcgzAG2HmdXrB4D6n6e9LicAC/UG0B0IeAVCktU0HunPzVJ/JF6X91NeHmYABEER3l6h9d8HMwpntxrETU6ufianV6wW/fKHXXY0jZMfWBrl04nQfCVgISe1chekNrcD0ENYwISGKmFp9NjlXXhJTq0VdSZ8SPHPFdSQNMzA9ogu9kJHWqen7TsfTfSBfL3ut12HGtzQA2rDuJz9AKDBT1BZhJl9/VfDMGXZboFN/zMCMFQZ1AiYAHKf5in3b9Xg6ZAIWEHx/9TqRtiz2j9giBXfBTMKWAfwGpkPrq9zxFwJ4i82lT8CcvvQCABfqSvrjlnKXYcbtWlTGi2CGDd4O4Nu6kv4g5YXeAOBPYDqTbteV9CdGlJgV0pxK1EdlassghFwkFTXbD6k4FRL5ouQeDkJAFcC+VruTbLU7BUHAbbgcQF1X0j+HOe3nFTRTgeEXMLNn2OdLMON29+tK+lGYMcF9NuXmsDkbPwXgz2HOKfwMgEpMrc4C+HcAjwF4FcxpTW+mAP44SEut1e7kWu1OFGaoaTWAinq8H7bidAgEZJMmEwHIVxCqpifeDMpuoWlL3wDwFzCzZ6Ar6QdhzhdkEk6l7zcFvM+lAJ6pK+kTVM41AHRdSd9Ixx+MqdW3EtFvGzP1tQSgRNKxAH8xxkPU50NTT6dCIKDmk4CrAFI0Cg0jAQ0AjwyJKjoH4OXYunrAF0lq2Z1/OcyE6jd14bz5ISMg4WUAvhZTq2ezDwAdQDymVs8aU1tSow1l98HfDJ1FAFpYU6SmeyBgDuZyc1569QaNGkO9xMCz9zy5851XJ/es//qx57z+W/dfjM3lLZ4PcwLsIPFKmLHFG7mJu1EAl8XU6h5KSWMEPBvAPwO4hptoGwQNy/dzyR681vJ7FWaoZWwTDsjeS/r0bSwQEXvejHa6BwIe8XFqX71KYeP83TOPn797Zk2/4KlrMNd4QUytzsCcP3cxgCcROR4G8NQ+Psp+ciR81/L7HnLWfID77TYAn9aV9DdtJPsui8SUrL/BzOjh8TDM1c8+jwlFq90p0Ea0Jbh7+UMh4nQXBMz4JOBYbNZJyck/pA/rzOcAeBYRk0nMFyCEVDxaSOkyAK/XlXTTcuxRAIcZCWNq9S9hThN6o01R98Oc2MvjBTDXeHHDXaQKTywJiYgVshWLcE806ZmI010QUPOhfo71dtU0nehH9LmdCDEN0yPJr9K2AOeJrk54E4BjVgISvgRz4aQXkf36Pjr/Qk5tPa0r6R/AXAj4XCLq7TBXT3uXD3XyowDuianVvyZt4DTMUEVcV9IfnDAiNgHkyPN/pF9EnA5AwChML6jbaL8GIDuJnk8i5v/S59NEzF0Afp+IeSHMJQS9EAHwQYd7PB5Tq39HEu48mFO+9ltO68TU6ht0Jf1oTK2+CsA/AngHzPl918MMPbCpRydgyWXVlfT/xdSqDODvAbwVwOMwJ/TePMFSsTQ3O9Mk9TTiQsQSulh63/dUJh/TRNZIAoqNOgXGEpwm6CaIAk+zm/J584IgoMCkg0wsGZsTqe1wiGzJ8CShx46ozAbMiOC7wARJxCzMVQ3cOJH0K5SmfNiBJR9OGEFAgUmSiGUbW9xq15fCUkfzcM+GyYucT4EJJWIJZgqmExb9qqWO6qjHvoDAEO4NKCAwYLU0CtNR4xTQr7fanWQvktBNnNZJSgoITLI0bMJ9F+mEn1kXUw4Ml+HuDc0JT6iAwBmP6WE3k80r0dtJEhY81FBNNL+AwBkiFuA8+yLipTVuswkpIHmPw/kiHCEg4Kw9HnfhjWPIwk4SurG2KAgoIGArDTU4z9KPuNmOWyQh6a4PdcNmAQEhDV2loaOn1CoJcy73KAkCCgh0LQ0TTnHDICQsimYWEPCEG09yruqoR3B+pdXuZEX7Cgj4UktrsM8026BV3hwloRvJyqJpBQR8w4kvETuVlCehLEgoIBAKSi7Hsm4kXHRRRYVDRkDAJyiLxil4v03YTZMO67Zzqdbtw0iSlEHw7aoqhmE0bcpiG30EQdMwDDHLQ2AnoMF+gaiFudmZKC/Ypn2oolpA4uVgBvy73RHnItjvuhSF++Rip+cBzJn/JcMwhIc3RJw8Gk/C9PjJAErzS42Sw3lZOq8GoDi/1KhNiF3otErblgXTJMMwQHsIKg6iVfLZ2dlCUHt7eXLDMCSXe9Tgf7l9O6wByAnpGAoB8wButfy8AUCeX2pUiKBsSzvrO1ueX2qM9Swcj2jDlnVomCRMOpy8GoCAGnrfpHGlSxHvFwsANEmSknYqL1efpE2bNDmJ7KpKO1wfSHUOoMoPXOU+eTTepAH3LQBeQXUt0W/yyaPxHMytqFcBfAjmCuY5en/fAvB8KqM4v9QojKldWJubndmA/aJQyW02oYut5fflFkMgoB/Vt1cSghql7KGC57B9GfRl+nvA5brdLtd7YdXyTMUAWoU04D4WofegcM+dp/4S4QbvvfTZgDkzJwNzv8VJQcXhHdqS0GkJN0+vKI36vRJjDdweci6qaokkhNwj6fdKkpTxIUEO07320gBQsWmTDEzP8qqNdF2xDGRs5+LDNtdbMSoSYi/MjWoOeZB2EpM9nEi4RehNk+6KHiRh0MbdoHI11rHdVEMbIua5AUAmkjBiBlmGPutVP8MwCpIkaZwUtta1Rr8vOkjxomEYmuV59xqGUbAMZIbNvbUR6mw/FVZyICEWsUrCZBeF8JA9jtdJ/asA0AzDqIVVQ+qomkUq81sjJ3p4bn7UqpOtl7OMbKteEsuOYJbfLhJ9dWzhq6+HsV22m/NANQwjN6gaE8FrRPq8JEmlXlRlUn2ZDWm1Dw/4KCKJrc6tjMVm8mq/UcaGh2ayEcDnMHYknJudSbK5uV4k7DVTZqftmkKP9mrUzpA2DCMvSZIfEtYMw5A5UmskSfPMHiXpaiV/jiS5X4JqVhU3CE4ejUfpfkmY8b6aw3nsuf4VwA9gbnpj1ShUavcm2cB5CxnrdLw8v9SY5EysJCOpKwl7XVM0TNWz2/tTsL5rdVeSpA0AGQrDBEWJYptWg1yTJKnCOTZgsSkLCBYP3dvtgHfyaLwI05vLiHLo5NG4CqAwv9SoUbyPPR//TK8FoM4vNaInj8Yvg+lsKlqIVQBQIPJmMDmB+kBwJeHc7ExGLO6LAsygdDfevYQDmSI2tmWRI3/SIjn3he2oOXk0XiApdidMrzSTyCWYezEWSEKyz8303H9KI/hXAPyZXbwvFU/IVHYTQHm9sZlJQ8dqdCwDoLneqFdS8cSZtMT1Rn1LXVPxRJLTDDT+eCqesIunNtcb9Qod59Mda+uNes3yLPy5Gfb/0JBwjO2VIKjYqaQeErRglUySJPH7F+w3DKMUwCmk2aisUQDJHgP1fByvRNKuyNm7zHZdAPBhOq9Iz/U5uwJT8UQBW8MVt6biif3rjXopFU+wLJs69a0IXbMMLuyUiifU9UY9x5FM4yV1Kp5YWW/U2aDotCiZZHMtuGeRQWmQqXhCJZJH2PEB9KtmmI6ZcUfUhgCeUpELn1hVUQBISpJUsNh0mk+nEG9T3CNJ0jIftukSESJe00MNjsDFq5yKJ3IcAetcWUUieZTTEHhY7WuFCBu1kIiVuZiKJ2SSiKvce2Kx4zX6W7a59kgqnrAOXLzf4EgqnqiEJBGjfky9afh0ow4C1HE97bQdUEfZC2XPd4cPx1XOxSlkDWzLNp1btkhiaztUyF6V+1z/oLnAq6QyFlLxBJOqdl7SfZY2WqZOq3CDVo1I2KT3kIQliX+9UZdpAOD7RZ5UWEb2K6mcGjeQ8O26TN+PhKwB+pr1M005bk7HZfQwlakL+JklIQ1wUMjQ6HqYOn3Fok4UXBqajf7W3xaoA9qqJnZOHA9Vea8kSdEgCQ/9Aql5GoAC/d3rcq6Wiid4KcTaUuHOqZF0zVNbZhwkcJ6712Eqm9cOauuNepMk4F4bEpbILj0yoKbasLMJnWI6A7UJ3WZQ7BCSvFPEkq3D3PpFK1noWJC2i9oQSeaOOUm7GnWqTJ8GyyYCxPuIMEe439fgM72QSOJUR3b/FVhS/EjiMW1lbb1RL1j7ro1qGbXcu1/OGNnDz7CFhL5y3CYNhmG4LeuR59RK1aImy3DfRNJO4h9mnYkyfxI+tYM6ugt6l7h6RGxUSuaoiQG4GNu3yVujAYiP9xUtbZBFDzm+5DyJcO2jcSSMcvVg55RS8USSPKA1rhyr13NQHtCkl1OGJ2FNkHAL/EgVRtCyjYeyCfdNQpxGfCsp/aDcjSpK8boCNuN4BerQTO3Lc1JtjZM2SWyPB/KOG3Z+DVxYJxVPdBPikS2DBu/MyqbiCWu/vRWmN3YVW5cXLHCqqN/32xNoIe1EUElo50SITGKs0JqT6uQYcXGaaL28aEpyKAyqvjQjvkRkjAJo24zi5zJbxiXTRaV+tIDtK7l3M6Dz7WudIJuF86ybvWRPsudZ5CToBr2bfgsY2We9tpDQrTAxE53URMrCyfmM840akryKDXMC7n0ArgLwTmzPe7XadblUPNHkOjhztiRJVZXp+iYn/e2+M2dKLRVP7OekWhmbscw8XXcdOVaaTPUEIJMqy87J0bOvACiQ/Wm9N7M5o+g9XTMQCfnFfw2HC1wX/uWyOuxwpYdd1W/SZF1ss1U+r9NneU3DMKKSJJUNwxi7+XGURXPIRi3mf1udX2rIYdyPeVKtGTIhlW2sN+o75uibm52pONjD2/akmLIY43ZY9Nrk0M349xPY7iMBCz1cn5ckSZMkqcjljTKbpyJJkkwOlDNSUpKkS/kgPPNqSpKUo0/ZEqTnry3R8Sz9lqHvZUs5eVYOfdd2qo2HHPt2kIBJF4fUtgFn2uJocJJobvp3xeW6CIA7uBXPNPRhXiGRQSbVJwN/AWa3NWaYo4IF6IsWQ/8Qtce6JEm7Sd26B8DVdIwR7TjMuGaOnkmFOcWqZlFnNc6IX5Qk6TKYOZ1nypEkKcWVs8JJp1Vq41QIbZrsUfoUYQbqy6l4oozNbfby2BpTbXLeygyFGZrrjXqZyklS2ycBJEl9ZGUUuffBBp9nAXgFxfpKpNbmAUS51DUAyFMs88z7XW/U8+Q0KlF/vZL6hkx/NQCZgKlsgVazt5Lw1i5IqMHf3LoFfnSgbI+uZtj3OKPesTEsdcpi083etHOeSJK0hs3E4hUA97uUqRqGkZMkqWjT2ROgeCQNKFfDnAZV5KQ6e7GHacY/62gaOUGS6D37Kdnj9U2yx2rkCClRmVEiTpLeeY6IxghaIzJmKLxQIZLlYHo2WV2L3PtgidmMdGylBPbeDnHvskznsvuyskvkNc1RORWyL6NkU0bpvgo8ll6xIO/Rt2CrjtIEwzUXlTTp4Mkrw3m1YTewmQSHSGLUKEPFjXwZSZKadP4hetHdEHAD3kv7l5wazXJOlnuJ1oHCrjyvgYYlNjcdJLfGOTGaIWfKFF36wAZJ8pyHwyHDSTw2SGrc3zLVJctJJ5kRkSsnD6C43qjnsZnCBsu1ZTquwQxZZLB1VgSTsLn1Rp2FXdi9ZE7ilbjB1K6fr/htQNprIuHiX2k6ktDSUeyQ65L5QUiZ8yHmIyHcq+DRefOctGQjuZM0XQQQpcGoRgQseZGc7MAc18HzZC9qAL4BMx1NZuvSYACxrfmlRnl+qZEhe2qFI/1+AMn5pUbOYz4gc9LJdD3TVpi6zez0ms3gwntVWbscJ4mUpI9s8S7WuPewgM1lFXnJ3uS8txVuoGMkrJGqqWEzVor1Rr1Anxw3Y8MPckG1r6kAKlreyUFDHXB/n926fo77geq1Ejelp5U4u7BJzpkr+ZGRbDCWXcK+L9PLL5PkALYu+KRhc0YB3+lYx8gbhvFlas8CffZzscMaJ7VqnAezFiIZtfmlRhZAiv4v+ZkFT2ECpqKzKU8gFbMOIEdSr8Q9b5T7WyHpxWy+FU7lrvDvw+G+Byx9uAlgIRVPRFPxRIbU2ibZrTIri9my9N4WSaJ265BxStrfaLU7tkJuy3bZVFDJpaAtKwc7eCSL6G2V7N1OUspu0aSAKmguzJAJ1bcEILPTqwgMC9jMifVGXaJOX1lv1LP0e446fpYbqJKcKprkJBzTePbTdz597yKmkrJcUW4e425y5Bj0DBrnqFsmst1BpE3SfQvU51lidZLFHQOS0I07y612x1ZjnHawcxQXaVh02qWJOjhzs8voLishCZvkALIXV7sor0JOn1If+lwWQFYQcJs2xd7fGclNXsgCs8GIKCVOAtW4gDtziFU4j+k+urZCXtCmxX5jnlnWN6+k+8o2A8WV1DcrlBDAFi6Okp3ZDQEzcF/PyFH72iYJqUB+9NimzrXanZzoawIC4XDGiYQy3LP397XaHU00vYAAMDc745aZBQAptryhH8cMAIAI5qb6lXrIohEQGCcCRuEeVVDdCOhIQoKbypnA6OyVICDQbxvYKWy2AR/hO0cSEnuXXa49MDc7I2xDgUmWgnm4p0gW/Gw1b2sTWkSt3SaPPNNlsTapwAQSUIa732St1e74ig64qaMgFrtJuwgATdiHAhNGwAzcE1s24J395Y+ERETNQy0VRBSYNAJqcE+fLATRDl3VUcvNnSYpnhG/pJo2xasSmGACBo6jByFhFFvTiQQRBQQBQ+j/U35PpIJlWBYutWABQI0eWEBgXAgo+yDgBoBsNwJoKsjJpOd6TetgNmJOvD6BMSBgHqYX1IuAsldQvmd11PJgOWyuSekGFUBeqKcCI0g+lgmz6HFqz2G6rkgYkIh1ADmRayowQgTk15zpKwF7IiGnK5fhb7a7CtN1WxOvWWBIyZck8vlZKCy0RJWeSEgP7sdrxD94EUBRqKgCQ0a+AtznA/JYg+mECUWg9ExCTn8uw/9edmyhJSEZBXaSfGzxJyXAZStkXoUmREIhIVepArav4OwFtkZLWUhHgQFJPbZCXtAdo65rtTvFsJ8pVBJydmIJ3a0zs0oSsiIcOQIh90kZ3W/VtkbSry8TFUInIaee5ruQinaVr8DM1GEfAQE3ZLC5kl0SPeyPyHwYboubDS0JLaK/CO9Yi4DAsGFg3vy+ktCiDhTg33EjIDD25BsoCTkyduONEhDoNzZg+jGKO+GtHygJLTZjlgi5IPqAwA5hBaYjcEc98ztCQhu7UcbmbjoR0TcE+ijx2G6/QxMS23ESOqis/CeJ3pbVF5hMrGFzf8EaAG1YE0OGjoQ+CCqW0RBwQm0UM7D+H7xmkX2rfP1FAAAAAElFTkSuQmCC" vertex="1" parent="8le9z9f76cK8EGYcwLgO-1">
          <mxGeometry x="790" y="740" width="203.01" height="120" as="geometry" />
        </mxCell>
        <mxCell id="e8gKcgxvItoSALIgjx3L-5" value="&lt;span style=&quot;font-size: 15px&quot;&gt;&lt;b&gt;公有云系统&lt;/b&gt;&lt;/span&gt;" style="text;html=1;resizable=0;autosize=1;align=center;verticalAlign=middle;points=[];fillColor=none;strokeColor=none;rounded=0;" vertex="1" parent="8le9z9f76cK8EGYcwLgO-1">
          <mxGeometry x="846.5" y="870" width="90" height="20" as="geometry" />
        </mxCell>
        <mxCell id="e8gKcgxvItoSALIgjx3L-6" value="&lt;span style=&quot;font-size: 15px&quot;&gt;&lt;b&gt;ZOOM&lt;/b&gt;&lt;/span&gt;" style="text;html=1;resizable=0;autosize=1;align=center;verticalAlign=middle;points=[];fillColor=none;strokeColor=none;rounded=0;" vertex="1" parent="8le9z9f76cK8EGYcwLgO-1">
          <mxGeometry x="845" y="510" width="60" height="20" as="geometry" />
        </mxCell>
      </root>
    </mxGraphModel>
  </diagram>
</mxfile>
